<svg id="Layer_1" data-name="Layer 1" xmlns="http://www.w3.org/2000/svg" xmlns:xlink="http://www.w3.org/1999/xlink" viewBox="0 0 2026.65 1949.49"><defs><style>.cls-1{fill:url(#linear-gradient);}.cls-2{fill:url(#Green);}.cls-3{fill:url(#Green-2);}.cls-4{fill:url(#Green-3);}.cls-5{fill:url(#linear-gradient-2);}.cls-6{fill:url(#Green-4);}.cls-7{fill:url(#Green-5);}.cls-8{fill:url(#Green-6);}.cls-9{fill:#565646;}.cls-10,.cls-11,.cls-12,.cls-13,.cls-14,.cls-21,.cls-22,.cls-23,.cls-9{fill-rule:evenodd;}.cls-10{fill:#f4c27a;}.cls-11{fill:#606050;}.cls-12{fill:url(#linear-gradient-3);}.cls-13{fill:url(#linear-gradient-4);}.cls-14{fill:url(#linear-gradient-5);}.cls-15{fill:#62bb46;}.cls-16{fill:#00854a;}.cls-17{fill:#ededed;}.cls-18{fill:#fff;}.cls-19{opacity:0.44;}.cls-20{fill:#f7f7f7;}.cls-21{fill:#edba77;}.cls-22{fill:#262626;}.cls-23{fill:url(#linear-gradient-6);}.cls-24{fill:url(#Green-7);}.cls-25{fill:#f9f9f9;}.cls-26{fill:#0f8daa;}.cls-27{fill:#0f92ba;}.cls-28{fill:url(#Green-8);}.cls-29,.cls-50{fill:#2b2b2b;}.cls-29{opacity:0.05;isolation:isolate;}.cls-30{fill:#a4dfff;}.cls-31{fill:#40adad;}.cls-32{fill:url(#linear-gradient-7);}.cls-33{fill:url(#linear-gradient-8);}.cls-34{fill:url(#linear-gradient-9);}.cls-35{fill:url(#linear-gradient-10);}.cls-36{fill:#c9c9c9;}.cls-37{fill:url(#linear-gradient-11);}.cls-38{fill:url(#linear-gradient-12);}.cls-39{fill:url(#linear-gradient-13);}.cls-40{fill:#d3d1d1;}.cls-41{fill:#424242;}.cls-42{fill:#adadad;}.cls-43{fill:#bababa;}.cls-44{fill:#e0e0e0;}.cls-45{fill:#282828;}.cls-46,.cls-47,.cls-48,.cls-53,.cls-75,.cls-76,.cls-77{fill:none;}.cls-46,.cls-47,.cls-48,.cls-75,.cls-76,.cls-77{stroke:#1ee231;}.cls-46,.cls-53,.cls-75{stroke-miterlimit:10;}.cls-46{stroke-width:8.08px;}.cls-47,.cls-48{stroke-miterlimit:10;}.cls-47{stroke-width:2.24px;}.cls-48{stroke-width:5.83px;}.cls-49{fill:#232323;}.cls-51{fill:#d3d3d3;}.cls-52{fill:#e2e2e2;}.cls-53{stroke:#231f20;stroke-linecap:round;stroke-width:16.45px;}.cls-54{fill:#f4ba7f;}.cls-55{fill:url(#Green-9);}.cls-56{fill:#fcc490;}.cls-57{fill:#303030;}.cls-58{fill:#2b2a29;}.cls-59{fill:url(#linear-gradient-14);}.cls-60{fill:url(#Green-10);}.cls-61{fill:url(#linear-gradient-15);}.cls-62{fill:url(#linear-gradient-16);}.cls-63{fill:url(#linear-gradient-17);}.cls-64{fill:#ddd;}.cls-65{fill:url(#linear-gradient-18);}.cls-66{fill:#78c8ff;}.cls-67{fill:#007ee5;}.cls-68{fill:url(#linear-gradient-19);}.cls-69{fill:url(#linear-gradient-20);}.cls-70{fill:url(#linear-gradient-21);}.cls-71{fill:url(#linear-gradient-22);}.cls-72{fill:#353535;}.cls-73{fill:#2d2d2d;}.cls-74{fill:#3d3d3d;}.cls-75{stroke-width:3.9px;}.cls-76,.cls-77{stroke-miterlimit:10;}.cls-76{stroke-width:1.26px;}.cls-77{stroke-width:2.81px;}.cls-78{fill:#fcd37a;}.cls-79{fill:#f2f2f2;}.cls-80{fill:#212121;}.cls-81{fill:#efc46f;}.cls-82{fill:#3f3f3f;}.cls-83{fill:url(#linear-gradient-23);}.cls-84{fill:url(#linear-gradient-24);}.cls-85{fill:#035946;}.cls-86{fill:url(#linear-gradient-25);}.cls-87{fill:url(#Green_Yellow);}.cls-88{fill:#4e6dc4;}.cls-89{fill:url(#Green_Yellow-2);}.cls-90{fill:url(#Green_Yellow-3);}.cls-91{fill:#5ae595;}.cls-92{fill:url(#Green_Yellow-4);}.cls-93{fill:url(#Green_Yellow-5);}.cls-94{fill:url(#Green_Yellow-6);}</style><linearGradient id="linear-gradient" x1="4593.36" y1="1560.2" x2="4943.42" y2="1560.2" gradientTransform="translate(6556.53 1724.4) rotate(180)" gradientUnits="userSpaceOnUse"><stop offset="0" stop-color="#e2e3e5"/><stop offset="1" stop-color="#efefef"/></linearGradient><linearGradient id="Green" x1="1684.9" y1="104.4" x2="1897.66" y2="104.4" gradientUnits="userSpaceOnUse"><stop offset="0" stop-color="#64c08a"/><stop offset="0.5" stop-color="#00a550"/><stop offset="1" stop-color="#00914c"/></linearGradient><linearGradient id="Green-2" x1="1684.9" y1="145.37" x2="1897.66" y2="145.37" xlink:href="#Green"/><linearGradient id="Green-3" x1="1684.9" y1="186.33" x2="1824.47" y2="186.33" xlink:href="#Green"/><linearGradient id="linear-gradient-2" x1="5335.86" y1="1153.54" x2="5685.92" y2="1153.54" gradientTransform="matrix(1, 0, 0, -1, -4834.62, 1724.4)" xlink:href="#linear-gradient"/><linearGradient id="Green-4" x1="1383.45" y1="1213.34" x2="1596.21" y2="1213.34" gradientTransform="translate(2162.95 1724.4) rotate(180)" xlink:href="#Green"/><linearGradient id="Green-5" x1="1383.45" y1="1172.38" x2="1596.21" y2="1172.38" gradientTransform="translate(2162.95 1724.4) rotate(180)" xlink:href="#Green"/><linearGradient id="Green-6" x1="1456.64" y1="1131.4" x2="1596.21" y2="1131.4" gradientTransform="translate(2162.95 1724.4) rotate(180)" xlink:href="#Green"/><linearGradient id="linear-gradient-3" x1="1970.7" y1="1028.93" x2="2017.7" y2="1028.93" gradientTransform="matrix(1, 0, 0, -1, -441.04, 1724.4)" gradientUnits="userSpaceOnUse"><stop offset="0" stop-color="#ffb888"/><stop offset="0.29" stop-color="#ff9b57"/><stop offset="1" stop-color="#ff6801"/></linearGradient><linearGradient id="linear-gradient-4" x1="1829.21" y1="1366.5" x2="1920.05" y2="1366.5" gradientTransform="matrix(1, 0, 0, -1, -441.04, 1724.4)" xlink:href="#linear-gradient"/><linearGradient id="linear-gradient-5" x1="1822.21" y1="1212.12" x2="2061.64" y2="1212.12" xlink:href="#linear-gradient-3"/><linearGradient id="linear-gradient-6" x1="1909.99" y1="1212.5" x2="2061.62" y2="1212.5" gradientTransform="matrix(1, 0, 0, -1, -441.04, 1724.4)" xlink:href="#linear-gradient"/><linearGradient id="Green-7" x1="1390.83" y1="782.82" x2="88.26" y2="1168.1" gradientTransform="matrix(1, 0, 0, -1, 0, 1947.28)" xlink:href="#Green"/><linearGradient id="Green-8" x1="1421.42" y1="529.01" x2="2025.88" y2="839.19" gradientTransform="matrix(1, 0, 0, -1, 0, 1947.28)" xlink:href="#Green"/><linearGradient id="linear-gradient-7" x1="1461.64" y1="999.77" x2="1965.42" y2="774.44" gradientTransform="matrix(1, 0, 0, -1, -441.04, 1724.4)" gradientUnits="userSpaceOnUse"><stop offset="0" stop-color="#424242"/><stop offset="0.12" stop-color="#474747"/><stop offset="0.28" stop-color="#575757"/><stop offset="0.45" stop-color="#707070"/><stop offset="0.63" stop-color="#939393"/><stop offset="0.81" stop-color="silver"/><stop offset="1" stop-color="#f4f4f4"/></linearGradient><linearGradient id="linear-gradient-8" x1="1904.42" y1="738.71" x2="1533.14" y2="1045.26" xlink:href="#linear-gradient-7"/><linearGradient id="linear-gradient-9" x1="1433.26" y1="708.39" x2="1869.15" y2="708.39" gradientTransform="matrix(1, 0, 0, -1, -441.04, 1724.4)" gradientUnits="userSpaceOnUse"><stop offset="0" stop-color="#6b6b6b"/><stop offset="0.14" stop-color="#707070"/><stop offset="0.32" stop-color="gray"/><stop offset="0.52" stop-color="#999"/><stop offset="0.73" stop-color="#bcbcbc"/><stop offset="0.95" stop-color="#e9e9e9"/><stop offset="1" stop-color="#f4f4f4"/></linearGradient><linearGradient id="linear-gradient-10" x1="1433.35" y1="665.69" x2="1699.19" y2="665.69" xlink:href="#linear-gradient-7"/><linearGradient id="linear-gradient-11" x1="1915.57" y1="633.46" x2="1201.11" y2="861.85" xlink:href="#linear-gradient-9"/><linearGradient id="linear-gradient-12" x1="1397.43" y1="761.72" x2="1943.36" y2="667.69" xlink:href="#linear-gradient-7"/><linearGradient id="linear-gradient-13" x1="1407.34" y1="765.83" x2="1738.91" y2="721.24" xlink:href="#linear-gradient-7"/><linearGradient id="Green-9" x1="1436.42" y1="705.51" x2="1508.7" y2="705.51" gradientTransform="matrix(1, 0, 0, -1, -441.04, 1724.4)" xlink:href="#Green"/><linearGradient id="linear-gradient-14" x1="1232.86" y1="549.85" x2="1508.7" y2="549.85" gradientTransform="matrix(1, 0, 0, -1, -441.04, 1724.4)" xlink:href="#linear-gradient"/><linearGradient id="Green-10" x1="1448.79" y1="546.07" x2="1675.08" y2="546.07" gradientTransform="matrix(1, 0, 0, -1, -441.04, 1724.4)" xlink:href="#Green"/><linearGradient id="linear-gradient-15" x1="1791.75" y1="487.12" x2="1919.54" y2="487.12" xlink:href="#linear-gradient-3"/><linearGradient id="linear-gradient-16" x1="2009.74" y1="567.33" x2="1726.96" y2="528.45" gradientTransform="matrix(1, 0, 0, -1, -441.04, 1724.4)" gradientUnits="userSpaceOnUse"><stop offset="0" stop-color="#ffb888"/><stop offset="1" stop-color="#fff"/></linearGradient><linearGradient id="linear-gradient-17" x1="1478.5" y1="742.61" x2="1643.47" y2="742.61" gradientTransform="matrix(1, 0, 0, -1, 0, 1947.28)" xlink:href="#linear-gradient-3"/><linearGradient id="linear-gradient-18" x1="1478.5" y1="703.31" x2="1643.47" y2="703.31" gradientTransform="matrix(1, 0, 0, -1, 0, 1947.28)" xlink:href="#linear-gradient-3"/><linearGradient id="linear-gradient-19" x1="1791.75" y1="581.97" x2="1919.54" y2="581.97" xlink:href="#linear-gradient-3"/><linearGradient id="linear-gradient-20" x1="2009.74" y1="662.18" x2="1726.96" y2="623.3" xlink:href="#linear-gradient-16"/><linearGradient id="linear-gradient-21" x1="1478.5" y1="837.46" x2="1643.47" y2="837.46" gradientTransform="matrix(1, 0, 0, -1, 0, 1947.28)" xlink:href="#linear-gradient-3"/><linearGradient id="linear-gradient-22" x1="1478.5" y1="798.16" x2="1643.47" y2="798.16" gradientTransform="matrix(1, 0, 0, -1, 0, 1947.28)" xlink:href="#linear-gradient-3"/><linearGradient id="linear-gradient-23" x1="744.25" y1="107.06" x2="890.39" y2="107.06" gradientTransform="matrix(1, 0, 0, -1, -441.04, 1724.4)" xlink:href="#linear-gradient"/><linearGradient id="linear-gradient-24" x1="842.85" y1="179.86" x2="599.69" y2="295.75" gradientTransform="matrix(1, 0, 0, -1, -441.04, 1724.4)" gradientUnits="userSpaceOnUse"><stop offset="0" stop-color="#f3f7ff"/><stop offset="1" stop-color="#cdd9ff"/></linearGradient><linearGradient id="linear-gradient-25" x1="598.02" y1="107.04" x2="744.3" y2="107.04" gradientTransform="matrix(1, 0, 0, -1, -441.04, 1724.4)" xlink:href="#linear-gradient"/><linearGradient id="Green_Yellow" x1="478.39" y1="316.31" x2="744.28" y2="316.31" gradientTransform="matrix(1, 0, 0, -1, -441.04, 1724.4)" gradientUnits="userSpaceOnUse"><stop offset="0" stop-color="#fff166"/><stop offset="0.08" stop-color="#f0e660"/><stop offset="0.18" stop-color="#e5dd5b"/><stop offset="0.28" stop-color="#e1da59"/><stop offset="0.67" stop-color="#24b34b"/><stop offset="0.89" stop-color="#21777e"/><stop offset="1" stop-color="#2e3192"/></linearGradient><linearGradient id="Green_Yellow-2" x1="598.05" y1="356.73" x2="757.98" y2="356.73" xlink:href="#Green_Yellow"/><linearGradient id="Green_Yellow-3" x1="719.06" y1="430.37" x2="962.56" y2="430.37" xlink:href="#Green_Yellow"/><linearGradient id="Green_Yellow-4" x1="966.09" y1="406.62" x2="684.63" y2="317.63" xlink:href="#Green_Yellow"/><linearGradient id="Green_Yellow-5" x1="744.28" y1="298.22" x2="1088.34" y2="298.22" xlink:href="#Green_Yellow"/><linearGradient id="Green_Yellow-6" x1="683.26" y1="155.46" x2="868.87" y2="155.46" xlink:href="#Green_Yellow"/></defs><path class="cls-1" d="M1613.11,145.36c0-60.44,78.36-109.44,175-109.44s175,49,175,109.44-78.36,109.45-175,109.45c-58.93,0-111.06-18.22-142.78-46.13l-32.25,83.79V153.4l.5.3A70.32,70.32,0,0,1,1613.11,145.36Z"/><rect class="cls-2" x="1684.9" y="96.27" width="212.76" height="16.25"/><rect class="cls-3" x="1684.9" y="137.24" width="212.76" height="16.25"/><rect class="cls-4" x="1684.9" y="178.21" width="139.57" height="16.25"/><path class="cls-5" d="M851.3,552c0-60.43-78.37-109.44-175-109.44s-175,49-175,109.44,78.36,109.45,175,109.45c58.92,0,111.06-18.22,142.77-46.13l32.26,83.8V560.06l-.51.3A68.27,68.27,0,0,0,851.3,552Z"/><rect class="cls-6" x="566.74" y="502.93" width="212.76" height="16.25"/><rect class="cls-7" x="566.74" y="543.89" width="212.76" height="16.25"/><rect class="cls-8" x="566.74" y="584.87" width="139.57" height="16.25"/><path class="cls-9" d="M1450.17,1002.42s-48.47,27.14-48.47,45.87,10.27,52,44.72,22.72,58.75-49.5,65.28-62.74,8-18.76-8.82-35.64S1477.22,977.45,1471,991,1450.17,1002.42,1450.17,1002.42Z"/><path class="cls-10" d="M1424.88,896.13s28.07,51.71,33.55,66.56,6.34,24.76-2.46,33.59-20.34,21.19-10.18,33.79,31.34-7.7,43.74-27.22,17.86-19.52,11.83-34.67S1485.48,921,1484.2,902.6s-4.31-33.71-9-38.39S1424.88,896.13,1424.88,896.13Z"/><path class="cls-9" d="M1385,648.36s-18.13,78.63-8.76,134.19,20.88,71,33,88,11.8,27,11.8,27,20,12.52,39.72-1.47,23.48-24.54,23.48-24.54-18.86-51.56-18.86-85.92S1479.05,716,1479.05,716l-16-47.32S1385,629.65,1385,648.36Z"/><path class="cls-9" d="M1506.46,1069.91s-34.54,25.95-44.21,40.83-1.92,39.85,32,35.7,59.72-38.77,74.54-58.59,3.5-38.52-.46-58S1506.46,1069.91,1506.46,1069.91Z"/><path class="cls-10" d="M1532.61,972.72s2.22,56.1-5.15,69.67-31.35,32.47-22.75,41.09,38.17,11.83,53.3-9.63,8.24-33.29,11-53.94,14.58-50.15,12.37-65.16S1532.61,972.72,1532.61,972.72Z"/><path class="cls-11" d="M1460.72,687.4s12.52,105.6,33,159.89,35.55,107.05,35.55,116.54v10.65s9.15,10.59,25.67,3.66,30.1-20.08,30.1-20.08,3.31-60.89-4.74-120.3-4.45-127.64-12.53-151.1S1460.72,687.4,1460.72,687.4Z"/><path class="cls-12" d="M1529.66,720.44s39,4,43,0l4-4.05L1570,668.7Z"/><path class="cls-13" d="M1431.94,292.44s-38.09,3.39-42,58.3,0,72.62,0,72.62L1479,343.61Z"/><path class="cls-14" d="M1604.47,406.51c-6.59-18.79-14.34-33-23.11-44.12a117.53,117.53,0,0,0-28.26-26.28C1532.59,322.16,1443.36,304,1443.36,304s-38,36.79-42.45,68.22-29.7,33.52-15.41,69.82,20.44,64.95,14.36,106.73-25.3,86.89-15.95,108.33S1448.78,702.28,1467,705s63.57,15.53,63.57,15.53,21.45-9.63,35-30.57c1.64-2.5,3.66-5.54,6-9-3-18.36-8.3-45-8.3-45l12-7.25c12-7.25,43-42.45,43-42.45s.16.31.4.9a83.55,83.55,0,0,0,1.92-17.2C1620.65,527.51,1617.69,443.9,1604.47,406.51ZM1549.16,618c6-5.22,4.4-27.63-.23-59.29-3.39-22.85-4.76-52.9-2.42-60.78,1.17-4,3-2.17,5.14,9.64,0,0,13.77,71.53,13.77,85.79C1565.42,606.77,1550.87,616.81,1549.16,618Z"/><polygon class="cls-15" points="1399.31 443.84 1453.52 475.14 1399.31 469.76 1347.76 499.52 1293.56 468.23 1345.11 438.47 1399.31 443.84"/><polygon class="cls-15" points="1447.95 473.35 1399.2 468.48 1399.01 468.48 1347.78 498.1 1296 468.23 1345.38 439.71 1399.2 445.09 1447.95 473.35"/><polygon class="cls-16" points="1399.2 445.09 1399.2 468.48 1399.01 468.48 1347.78 498.1 1296 468.23 1345.38 439.71 1399.2 445.09"/><polygon class="cls-17" points="1340.46 436.05 1340.46 577.1 1433.32 523.49 1433.32 382.43 1340.46 436.05"/><polygon class="cls-15" points="1347.76 705.01 1293.56 673.72 1293.56 468.23 1347.76 499.52 1347.76 705.01"/><polygon class="cls-18" points="1338.73 521.42 1302.59 500.56 1302.59 492.74 1338.73 513.6 1338.73 521.42"/><polygon class="cls-18" points="1338.73 534.14 1302.59 513.28 1302.59 505.46 1338.73 526.32 1338.73 534.14"/><polygon class="cls-18" points="1338.73 546.85 1302.59 525.99 1302.59 518.17 1338.73 539.03 1338.73 546.85"/><polygon class="cls-18" points="1338.73 559.57 1302.59 538.7 1302.59 530.88 1338.73 551.75 1338.73 559.57"/><polygon class="cls-18" points="1333.82 680.34 1307.5 665.15 1307.5 657.33 1333.82 672.52 1333.82 680.34"/><polygon class="cls-18" points="1338.73 653.39 1302.59 632.51 1302.59 560.68 1338.73 581.54 1338.73 653.39"/><polygon class="cls-16" points="1453.52 643.95 1453.52 475.14 1399.31 469.75 1399.31 469.76 1347.76 499.52 1347.76 705.01 1401.97 673.72 1401.97 673.71 1453.52 643.95"/><g class="cls-19"><path class="cls-18" d="M1365.49,674.28V509.77l37.75-21.8,32.51,3.24v142.5ZM1367,510.66v161l67.19-38.8V492.57l-30.63-3.05Z"/></g><polygon class="cls-20" points="1340.46 495.32 1340.46 436.05 1314.27 420.92 1314.27 480.2 1340.46 495.32"/><polygon class="cls-18" points="1433.32 382.43 1340.46 436.05 1314.27 420.92 1407.12 367.3 1433.32 382.43"/><path class="cls-10" d="M1471.43,622.59s-12.32-1.08-18.89-7-37.44-8-46.24-9.7-18.09-4.71-17.66,2.67,11.91,8.67,21,11.43,16,6,8.86,10.11-15.48,3.86-26.89,8.92-35.78,5.32-39.23,9.19-3.86,5.78-3.86,5.78,14.45,1.23,23.12.73,12.27-1.77,12.27-1.77-30.51,3-34.21,5.78-1.75,7.29,5.37,7.76,13.43.21,13.43.21-6.58,2.25-6.35,6.12,8.29,3.85,12.47,3.59,9.15-.31,9.15-.31-1.93,4.69,3.23,6,22.15,1,45.07-8.1,36.11-21.52,46.71-22.15,13.48-4.81,13.48-4.81Z"/><path class="cls-21" d="M1449,302s4.59,24.38-5.49,34.45c0,0-2.6,23.51,27.52,29s53.93-18,53.93-18L1506.88,280Z"/><path class="cls-10" d="M1441,139.9s-36.34,47.64-32.3,71.48,1.48,46.23,8.06,60.53,11.77,45.1,33.39,39.59,50.4-12.1,56.73-31.51S1477.6,128.5,1441,139.9Z"/><path class="cls-22" d="M1438.91,135.12s-29,91.68,19,104.51,49.55,49,43,83.49,14.1,38.61,50.74,27.62,34.48-38.86,21.27-79.18-5.87-60.18-5.87-91S1500.72,65.41,1438.91,135.12Z"/><path class="cls-22" d="M1458,121.39s-50.45,12.07-59.22,70.93,14,98.24,27.08,103c0,0-18.9-56.61-7.35-75.86S1458,206.08,1458,185.17Z"/><path class="cls-23" d="M1604.47,406.51c-6.59-18.79-14.34-33-23.11-44.12a57,57,0,0,0-5.5,3.85s-42.38,21.29-29.39,131.72c1.17-4,3-2.17,5.14,9.63,0,0,9,42.84,11.89,65,0,21.24-94.14,45.52-94.14,45.52s-3,30.33,6.94,39.7c7.53,7.16,28.46,2.25,53.6-3.56,7.8-1.79,16-3.7,24.32-5.33,31.66-6.21,52.82-28.9,59.58-44.76a1.19,1.19,0,0,1,.15-.35,28.81,28.81,0,0,0,1.44-4.32,1.18,1.18,0,0,0,.12-.36v-.23c3.16-9.9,5.07-19.69,5.07-28.81v-2.26C1620.54,524.63,1617.46,443.24,1604.47,406.51Z"/><polygon class="cls-16" points="798.26 1310.54 766.52 1328.8 766.52 960.13 798.26 941.83 798.26 1310.54"/><polygon class="cls-15" points="734.83 1310.54 766.52 1328.8 766.52 960.13 734.83 941.83 734.83 1310.54"/><polygon class="cls-24" points="734.83 943.41 1519.82 1396.65 1928.15 1160.93 1928.15 1129.36 734.83 911.84 734.83 943.41"/><polygon class="cls-25" points="734.83 911.84 1519.82 1365.04 1928.15 1129.36 1143.11 676.09 734.83 911.84"/><polygon class="cls-26" points="1928.15 1529.65 1896.41 1547.9 1896.41 1179.24 1928.15 1160.93 1928.15 1529.65"/><polygon class="cls-27" points="1864.73 1529.65 1896.41 1547.9 1896.46 1179.24 1864.73 1160.93 1864.73 1529.65"/><polygon class="cls-15" points="1865.17 1358.94 1488.78 1576.27 1488.56 1612.97 1896.91 1377.25 1865.17 1358.94"/><polygon class="cls-28" points="1519.82 1365.04 1519.82 1396.65 1928.15 1160.93 1928.15 1129.36 1519.82 1365.04"/><polygon class="cls-16" points="1519.82 1594.93 1519.82 1626.56 1928.15 1390.78 1928.15 1359.23 1519.82 1594.93"/><polygon class="cls-16" points="1551.55 1747.06 1519.82 1765.32 1519.82 1396.65 1551.55 1378.35 1551.55 1747.06"/><polygon class="cls-15" points="1488.11 1747.06 1519.82 1765.32 1519.82 1396.65 1488.11 1378.35 1488.11 1747.06"/><polygon class="cls-29" points="1042.88 799.73 1204.71 891.58 1310.83 828.64 1173.82 748.59 1042.88 799.73"/><polygon class="cls-30" points="1109.48 546.46 1163.69 577.75 1109.48 572.38 1057.93 602.14 1003.74 570.84 1055.29 541.08 1109.48 546.46"/><polygon class="cls-31" points="1158.13 575.96 1109.37 571.09 1109.18 571.09 1057.95 600.71 1006.17 570.84 1055.55 542.33 1109.37 547.7 1158.13 575.96"/><polygon class="cls-16" points="1109.37 547.7 1109.37 571.09 1109.18 571.09 1057.95 600.71 1006.17 570.84 1055.55 542.33 1109.37 547.7"/><polygon class="cls-17" points="1050.64 538.65 1050.64 679.72 1143.5 626.1 1143.49 485.04 1050.64 538.65"/><polygon class="cls-15" points="1057.93 807.62 1003.74 776.33 1003.74 570.84 1057.93 602.14 1057.93 807.62"/><polygon class="cls-18" points="1048.9 624.04 1012.77 603.18 1012.77 595.36 1048.9 616.22 1048.9 624.04"/><polygon class="cls-18" points="1048.9 636.75 1012.77 615.89 1012.77 608.07 1048.9 628.93 1048.9 636.75"/><polygon class="cls-18" points="1048.9 649.47 1012.77 628.6 1012.77 620.78 1048.9 641.64 1048.9 649.47"/><polygon class="cls-18" points="1048.9 662.18 1012.77 641.32 1012.77 633.49 1048.9 654.36 1048.9 662.18"/><polygon class="cls-18" points="1043.99 782.95 1017.68 767.76 1017.68 759.94 1043.99 775.13 1043.99 782.95"/><polygon class="cls-18" points="1048.9 755.99 1012.77 735.13 1012.77 663.29 1048.9 684.15 1048.9 755.99"/><polygon class="cls-16" points="1163.69 746.56 1163.69 577.75 1109.48 572.37 1109.48 572.38 1057.93 602.14 1057.94 807.62 1112.14 776.33 1112.14 776.32 1163.69 746.56"/><g class="cls-19"><path class="cls-18" d="M1075.68,776.89V612.37l37.76-21.78,32.51,3.22V736.36Zm1.55-163.62V774.21l67.17-38.78V595.21l-30.61-3Z"/></g><polygon class="cls-20" points="1050.64 597.94 1050.64 538.65 1024.44 523.53 1024.44 582.81 1050.64 597.94"/><polygon class="cls-18" points="1143.49 485.04 1050.64 538.65 1024.44 523.53 1117.29 469.92 1143.49 485.04"/><polygon class="cls-30" points="1023.28 580.71 1057.95 600.71 1109.37 571.09 1143.5 574.49 1149.73 576.36 1109.48 572.38 1057.93 602.14 1014.66 577.14 1023.28 580.71"/><polygon class="cls-30" points="1171.72 582.69 1225.93 613.98 1171.72 608.61 1120.17 638.37 1065.97 607.08 1117.52 577.32 1171.72 582.69"/><polygon class="cls-15" points="1220.36 612.2 1171.6 607.33 1171.42 607.33 1120.19 636.95 1068.41 607.08 1117.78 578.57 1171.6 583.93 1220.36 612.2"/><polygon class="cls-16" points="1171.6 583.93 1171.6 607.33 1171.42 607.33 1120.19 636.95 1068.41 607.08 1117.78 578.57 1171.6 583.93"/><polygon class="cls-17" points="1112.87 574.9 1112.87 715.95 1205.73 662.33 1205.73 521.28 1112.87 574.9"/><polygon class="cls-15" points="1120.17 843.87 1065.97 812.58 1065.97 607.08 1120.17 638.37 1120.17 843.87"/><polygon class="cls-18" points="1111.14 660.28 1075 639.42 1075.01 631.59 1111.14 652.45 1111.14 660.28"/><polygon class="cls-18" points="1111.14 673 1075 652.12 1075 644.3 1111.14 665.16 1111.14 673"/><polygon class="cls-18" points="1111.14 685.7 1075 664.85 1075 657.02 1111.14 677.88 1111.14 685.7"/><polygon class="cls-18" points="1111.14 698.41 1075 677.55 1075 669.73 1111.14 690.59 1111.14 698.41"/><polygon class="cls-18" points="1106.23 819.19 1079.91 804 1079.91 796.18 1106.23 811.37 1106.23 819.19"/><polygon class="cls-18" points="1111.14 792.23 1075 771.37 1075 699.53 1111.14 720.39 1111.14 792.23"/><polygon class="cls-16" points="1225.93 782.8 1225.93 613.98 1171.72 608.6 1171.72 608.61 1120.17 638.37 1120.17 843.87 1174.38 812.58 1174.38 812.56 1225.93 782.8"/><g class="cls-19"><path class="cls-18" d="M1137.91,813.12V648.6l37.76-21.8,32.5,3.24V772.58Zm1.55-163.56V810.5l67.18-38.79V631.45l-30.62-3Z"/></g><polygon class="cls-20" points="1112.87 634.17 1112.87 574.9 1086.67 559.78 1086.67 619.05 1112.87 634.17"/><polygon class="cls-18" points="1205.73 521.28 1112.87 574.9 1086.67 559.78 1179.53 506.16 1205.73 521.28"/><polygon class="cls-30" points="1085.51 616.94 1120.19 636.95 1171.6 607.33 1205.73 610.74 1211.97 612.6 1171.72 608.61 1120.17 638.37 1076.89 613.39 1085.51 616.94"/><path class="cls-32" d="M1170.93,861.16c0,7,5,15.58,11,19.09l247.67,147.47c4.67,2,13.64-2.3,13.64-9.32V840.27c0-7-5-15.57-11-19.08L1182,676.71c-6.09-3.51-15.54.11-15.77,7.33Z"/><path class="cls-33" d="M1166.18,863.15c0,7,4.93,15.56,11,19.08l250.28,144.47c6.09,3.54,11,.68,11-6.35V842.3c0-7-4.94-15.59-11-19.09L1177.19,678.74c-6.08-3.52-11-.68-11,6.34Z"/><path class="cls-18" d="M1429.05,842.28v174.48L1181.91,874.09c-3.19-1.88-6.3-7.25-6.3-10.92V688.66l247.16,142.71C1426,833.21,1429.05,838.62,1429.05,842.28Z"/><path class="cls-34" d="M992.31,985.27v.53c.22,2.12,1.72,4.24,4.53,5.84l250.29,144.48a24.24,24.24,0,0,0,22,0l154.23-89c6.07-3.51,4.55-13.34,4.55-13.34L1173.1,895.88c-6.08-3.51-15.94-3.51-22,0L1000,983.1l-5.59-9.05c-1.34.79-1.92,2.63-2.11,4.61a1.31,1.31,0,0,0,0,.28A49.52,49.52,0,0,0,992.31,985.27Z"/><path class="cls-35" d="M992.31,978.64v7.16c.22,2.12,1.72,4.24,4.53,5.84l250.29,144.48a22.4,22.4,0,0,0,11,2.64v-6.66L1000,983.08l-7.71-4.44Z"/><path class="cls-36" d="M996.87,972.29c-6.08,3.5-6.08,9.21,0,12.72l250.28,144.47c6.08,3.5,15.94,3.5,22,0l154.23-89.07c6.08-3.51,6.08-9.19,0-12.71L1173.13,883.23c-6.09-3.49-16-3.49-22,0Z"/><path class="cls-37" d="M1258.17,1128.37a18.8,18.8,0,0,0,9.13-2.13l154.22-89c1.67-1,2.68-2.13,2.68-3.09s-1-2.14-2.68-3.09L1171.25,886.54a20.52,20.52,0,0,0-18.3,0L998.73,975.59c-1.68,1-2.68,2.13-2.68,3.08s1,2.14,2.68,3.11L1249,1126.25A18.88,18.88,0,0,0,1258.17,1128.37Z"/><path class="cls-38" d="M1017.22,970.52c-7.59,4.38-7.7,11.38-.34,15.64l228.27,131.78c7.4,4.29,19.55,4.2,27.12-.17l130.78-75.53c7.57-4.37,7.7-11.39.32-15.66L1175.1,894.81c-7.39-4.28-19.53-4.19-27.1.18Z"/><path class="cls-39" d="M1083.22,942.46c-7.31,4.25-7.31,11.08,0,15.32l207.86,120c7.33,4.24,19.2,4.24,26.52,0L1374,1045.2c7.33-4.22,7.33-11.07,0-15.3l-207.86-120c-7.31-4.21-19.18-4.21-26.49,0Z"/><path class="cls-40" d="M1304.35,1081a25.53,25.53,0,0,1-12.53-3L1084,958c-3-1.76-4.72-4-4.72-6.32s1.67-4.57,4.72-6.33l56.44-32.59a27.85,27.85,0,0,1,25,0l207.85,120c3.06,1.77,4.74,4,4.74,6.33s-1.68,4.56-4.73,6.33L1316.81,1078A25.4,25.4,0,0,1,1304.35,1081Z"/><path class="cls-40" d="M1165.27,901.26a1,1,0,0,0,0,1.87l24.87,14.38a3.64,3.64,0,0,0,3.25,0h0a1,1,0,0,0,0-1.93l-24.87-14.36a3.52,3.52,0,0,0-3.25,0Z"/><path class="cls-41" d="M1354.71,1032c-1.39.79-1.51,2-.33,2.69l6.74,3.86a5.21,5.21,0,0,0,4.66-.2l2.47-1.43c1.38-.8,1.53-2,.33-2.68l-6.74-3.85a5.1,5.1,0,0,0-4.64.18Z"/><path class="cls-41" d="M1342.14,1024.78c-1.37.79-1.52,2-.33,2.67l6.69,3.86a5.26,5.26,0,0,0,4.67-.19l2.47-1.43c1.36-.8,1.51-2,.33-2.69l-6.74-3.85a5.16,5.16,0,0,0-4.64.18Z"/><path class="cls-41" d="M1329.57,1017.48c-1.38.79-1.51,2-.33,2.69l6.69,3.85a5.2,5.2,0,0,0,4.66-.17l2.46-1.45c1.39-.8,1.53-2,.34-2.67l-6.74-3.85a5,5,0,0,0-4.63.17Z"/><path class="cls-41" d="M1317,1010.25c-1.37.79-1.51,2-.33,2.68l6.69,3.85a5.14,5.14,0,0,0,4.66-.17l2.49-1.43c1.37-.8,1.52-2,.31-2.69l-6.68-3.86a5.12,5.12,0,0,0-4.65.21Z"/><path class="cls-41" d="M1304.43,1003c-1.38.81-1.53,2-.34,2.69l6.75,3.86a5.08,5.08,0,0,0,4.63-.2L1318,1008c1.37-.8,1.52-2,.32-2.7l-6.74-3.85a5.13,5.13,0,0,0-4.64.19Z"/><path class="cls-41" d="M1291.85,995.73c-1.37.81-1.51,2-.31,2.69l6.68,3.86a5.18,5.18,0,0,0,4.65-.2l2.49-1.42c1.36-.79,1.51-2,.31-2.69l-6.68-3.85a5.15,5.15,0,0,0-4.65.19Z"/><path class="cls-41" d="M1279.27,988.47c-1.35.81-1.52,2-.31,2.67l6.68,3.86a5.21,5.21,0,0,0,4.65-.19l2.49-1.44c1.38-.79,1.52-2,.33-2.68l-6.7-3.85a5.18,5.18,0,0,0-4.65.2Z"/><path class="cls-41" d="M1266.72,981.22c-1.37.79-1.53,2-.33,2.68l6.74,3.85a5.13,5.13,0,0,0,4.64-.2l2.49-1.43c1.37-.78,1.53-2,.31-2.68l-6.68-3.86a5.22,5.22,0,0,0-4.65.19Z"/><path class="cls-41" d="M1254.15,974c-1.38.79-1.53,2-.33,2.67l6.68,3.85a5.18,5.18,0,0,0,4.65-.18l2.48-1.43c1.38-.81,1.52-2,.33-2.69l-6.69-3.86a5.25,5.25,0,0,0-4.65.2Z"/><path class="cls-41" d="M1241.57,966.7c-1.38.8-1.52,2-.32,2.69l6.67,3.86a5.24,5.24,0,0,0,4.66-.19l2.47-1.42c1.39-.81,1.52-2,.34-2.69l-6.69-3.85a5.16,5.16,0,0,0-4.64.17Z"/><path class="cls-41" d="M1229,959.46c-1.37.78-1.51,2-.32,2.68l6.74,3.85a5.18,5.18,0,0,0,4.65-.21l2.48-1.41c1.38-.8,1.51-2,.33-2.69l-6.74-3.85a5.24,5.24,0,0,0-4.66.19Z"/><path class="cls-41" d="M1216.42,952.19c-1.38.78-1.51,2-.32,2.66l6.69,3.85a5.14,5.14,0,0,0,4.66-.19l2.46-1.43c1.39-.78,1.53-2,.32-2.67l-6.68-3.85a5,5,0,0,0-4.65.19Z"/><path class="cls-41" d="M1203.84,944.92c-1.36.8-1.5,2-.32,2.7l6.75,3.85a5.28,5.28,0,0,0,4.65-.19l2.48-1.45c1.37-.79,1.52-2,.32-2.67L1211,943.3a5.14,5.14,0,0,0-4.66.21Z"/><path class="cls-41" d="M1191.28,937.68c-1.38.79-1.52,2-.32,2.69l6.68,3.85a5.22,5.22,0,0,0,4.65-.18l2.49-1.44c1.36-.8,1.52-2,.32-2.69l-6.74-3.85a5.14,5.14,0,0,0-4.63.18Z"/><path class="cls-41" d="M1178.71,930.4c-1.38.8-1.52,2-.33,2.7l6.75,3.86a5.17,5.17,0,0,0,4.63-.19l2.48-1.43c1.37-.8,1.53-2,.32-2.68l-6.67-3.85a5.14,5.14,0,0,0-4.66.2Z"/><path class="cls-41" d="M1166.11,923.15c-1.36.8-1.52,2-.33,2.68l6.74,3.85a5.13,5.13,0,0,0,4.64-.17l2.49-1.44c1.37-.78,1.52-2,.32-2.68l-6.68-3.85a5,5,0,0,0-4.65.19Z"/><path class="cls-41" d="M1153.59,915.9c-1.36.78-1.52,2-.32,2.67l6.74,3.85a5.13,5.13,0,0,0,4.64-.19l2.47-1.43c1.39-.78,1.53-2,.34-2.66l-6.69-3.86a5.12,5.12,0,0,0-4.65.21Z"/><path class="cls-41" d="M1340.2,1035.84c-1.86,1.07-2.07,2.71-.44,3.64l9.1,5.24a6.89,6.89,0,0,0,6.31-.25l3.37-1.92c1.87-1.08,2.07-2.71.45-3.64l-9.09-5.25a7,7,0,0,0-6.33.25Z"/><path class="cls-41" d="M1323.76,1026.36c-1.85,1.06-2,2.7-.43,3.65l9.09,5.24a7,7,0,0,0,6.32-.26l3.37-1.93c1.87-1.07,2.07-2.72.43-3.64l-9.09-5.25a6.93,6.93,0,0,0-6.3.25Z"/><path class="cls-41" d="M1307.32,1016.88c-1.85,1.06-2,2.69-.42,3.63l9.09,5.26a7.1,7.1,0,0,0,6.32-.25l3.38-1.93c1.85-1.08,2.06-2.71.43-3.64l-9.09-5.24a7,7,0,0,0-6.32.25Z"/><path class="cls-41" d="M1290.91,1007.37c-1.86,1.08-2.07,2.71-.45,3.65l9.09,5.26a7.1,7.1,0,0,0,6.32-.25l3.38-1.93c1.86-1.07,2.07-2.7.45-3.66l-9.11-5.24a7,7,0,0,0-6.31.25Z"/><path class="cls-41" d="M1274.47,997.88c-1.87,1.08-2.06,2.72-.44,3.66l9.1,5.24a7,7,0,0,0,6.32-.25l3.37-1.92c1.86-1.09,2.06-2.72.43-3.66l-9.09-5.25a7,7,0,0,0-6.31.27Z"/><path class="cls-41" d="M1258,988.4c-1.86,1.09-2.07,2.7-.44,3.65l9.09,5.25a7,7,0,0,0,6.31-.25l3.39-1.93c1.86-1.08,2.06-2.71.44-3.65l-9.1-5.25a7,7,0,0,0-6.32.25Z"/><path class="cls-41" d="M1241.61,979c-1.86,1.07-2.07,2.7-.45,3.63l9.1,5.25a7,7,0,0,0,6.31-.25l3.37-1.93c1.87-1.07,2.08-2.7.44-3.65l-9.08-5.25a7.08,7.08,0,0,0-6.31.26Z"/><path class="cls-41" d="M1225.17,969.42c-1.92,1.09-2.06,2.72-.44,3.66l9.1,5.23a7,7,0,0,0,6.31-.24l3.38-1.92c1.86-1.09,2.06-2.71.45-3.65l-9.12-5.24a7,7,0,0,0-6.3.25Z"/><path class="cls-41" d="M1208.73,959.94c-1.86,1.07-2.06,2.71-.43,3.64l9.09,5.25a7.13,7.13,0,0,0,6.32-.24l3.38-1.93c1.87-1.09,2.05-2.71.42-3.65l-9.08-5.24a7,7,0,0,0-6.32.25Z"/><path class="cls-41" d="M1192.31,950.44c-1.92,1.09-2.07,2.73-.44,3.65l9.08,5.25a7,7,0,0,0,6.32-.24l3.39-1.93c1.85-1.1,2.06-2.71.42-3.67l-9.07-5.25a7.09,7.09,0,0,0-6.33.27Z"/><path class="cls-41" d="M1175.88,941c-1.87,1.09-2.07,2.73-.44,3.65l9.09,5.25a7,7,0,0,0,6.31-.25l3.39-1.92c1.86-1.09,2-2.73.42-3.64l-9.08-5.26a7,7,0,0,0-6.32.25Z"/><path class="cls-41" d="M1159.44,931.48c-1.87,1.07-2.07,2.7-.44,3.64l9.09,5.25a7,7,0,0,0,6.32-.25l3.37-1.93c1.92-1.09,2.07-2.72.45-3.64l-9.09-5.26a7.09,7.09,0,0,0-6.33.24Z"/><path class="cls-41" d="M1143,922c-1.93,1.08-2.08,2.71-.44,3.65l9.08,5.23a6.92,6.92,0,0,0,6.31-.24l3.39-1.93c1.86-1.1,2.05-2.72.43-3.65l-9.08-5.26a7,7,0,0,0-6.32.25Z"/><path class="cls-41" d="M1310.3,1032.31c-1.86,1.08-2.06,2.69-.44,3.64l9.1,5.24a7,7,0,0,0,6.3-.24l3.39-1.93c1.86-1.1,2.06-2.73.44-3.67l-9.09-5.26a7,7,0,0,0-6.33.28Z"/><path class="cls-41" d="M1294,1022.91c-1.86,1.06-2.06,2.7-.44,3.65l9.09,5.25a7.1,7.1,0,0,0,6.32-.28l3.38-1.93c1.87-1.08,2.05-2.71.43-3.66l-9.09-5.23a7,7,0,0,0-6.32.24Z"/><path class="cls-41" d="M1277.71,1013.48c-1.85,1.09-2.06,2.73-.43,3.66l9.1,5.26a7.14,7.14,0,0,0,6.31-.25l3.37-1.93c1.87-1.07,2.06-2.72.45-3.64l-9.09-5.27a7,7,0,0,0-6.32.26Z"/><path class="cls-41" d="M1261.47,1004.1c-1.86,1.07-2.06,2.68-.45,3.63l9.1,5.27a7,7,0,0,0,6.31-.27l3.38-1.93c1.87-1.08,2.07-2.7.44-3.64l-9.09-5.25a6.93,6.93,0,0,0-6.3.26Z"/><path class="cls-41" d="M1245.14,994.7c-1.87,1.07-2.06,2.68-.44,3.63l9.09,5.25a7,7,0,0,0,6.31-.24l3.39-1.93c1.87-1.09,2.06-2.71.44-3.64l-9.09-5.26a7.11,7.11,0,0,0-6.31.27Z"/><path class="cls-41" d="M1228.86,985.28c-1.87,1.09-2.08,2.7-.45,3.65l9.1,5.25a7,7,0,0,0,6.3-.27l3.39-1.93c1.86-1.07,2.06-2.69.44-3.64l-9.09-5.26a7,7,0,0,0-6.32.26Z"/><path class="cls-41" d="M1212.56,975.88c-1.86,1.08-2.06,2.69-.45,3.63l9.11,5.28a7.1,7.1,0,0,0,6.32-.28l3.37-1.93c1.87-1.09,2.07-2.73.44-3.64l-9.08-5.26a7.07,7.07,0,0,0-6.32.25Z"/><path class="cls-41" d="M1196.27,966.44c-1.87,1.07-2,2.71-.44,3.64l9.09,5.26a7.06,7.06,0,0,0,6.33-.25l3.37-1.93c1.87-1.08,2.07-2.72.44-3.64l-9.09-5.25a7,7,0,0,0-6.31.25Z"/><path class="cls-41" d="M1180,957.07c-1.86,1.07-2.06,2.71-.43,3.64l9.09,5.24a6.92,6.92,0,0,0,6.31-.24l3.38-1.93c1.87-1.08,2.06-2.72.44-3.65l-9.1-5.26a7.06,7.06,0,0,0-6.3.25Z"/><path class="cls-41" d="M1163.7,947.66c-1.86,1.07-2.06,2.71-.44,3.65l9.1,5.26a7,7,0,0,0,6.3-.28l3.38-1.93c1.86-1.06,2.07-2.7.44-3.62l-9.08-5.27a7.1,7.1,0,0,0-6.32.26Z"/><path class="cls-41" d="M1147.41,938.27c-1.86,1.06-2.06,2.68-.43,3.64l9.09,5.26a7.11,7.11,0,0,0,6.31-.26l3.37-1.93c1.92-1.09,2.07-2.71.45-3.64l-9.1-5.26a7,7,0,0,0-6.32.25Z"/><path class="cls-41" d="M1131.13,928.88c-1.92,1.07-2.07,2.7-.46,3.64l9.1,5.26a7.07,7.07,0,0,0,6.32-.26l3.36-1.92c1.87-1.09,2.09-2.71.46-3.65l-9.11-5.24a7,7,0,0,0-6.3.24Z"/><path class="cls-41" d="M1294.9,1038c-1.87,1.08-2.07,2.74-.45,3.66l9.1,5.24a7,7,0,0,0,6.31-.24l3.38-1.93c1.86-1.06,2.07-2.68.43-3.64l-9.07-5.25a6.92,6.92,0,0,0-6.31.27Z"/><path class="cls-41" d="M1278.87,1028.72c-1.93,1-2.07,2.67-.44,3.63l9.09,5.26a7,7,0,0,0,6.3-.27l3.4-1.92c1.86-1.08,2-2.72.43-3.64l-9.1-5.26a7.1,7.1,0,0,0-6.32.25Z"/><path class="cls-41" d="M1262.82,1019.46c-1.86,1.07-2.08,2.69-.44,3.63l9.09,5.25a7,7,0,0,0,6.32-.25l3.38-1.93c1.86-1.08,2-2.71.45-3.65l-9.11-5.25a7.08,7.08,0,0,0-6.31.26Z"/><path class="cls-41" d="M1246.8,1010.18c-1.87,1.08-2.06,2.71-.45,3.66l9.1,5.26a7.09,7.09,0,0,0,6.3-.26l3.39-1.92c1.86-1.08,2.06-2.72.43-3.62l-9.08-5.28a7,7,0,0,0-6.31.25Z"/><path class="cls-41" d="M1230.76,1000.92c-1.87,1.09-2.06,2.72-.44,3.67l9.08,5.25a7.16,7.16,0,0,0,6.33-.26l3.37-1.93c1.87-1,2.06-2.68.44-3.62l-9.09-5.25a7,7,0,0,0-6.32.26Z"/><path class="cls-41" d="M1214.72,991.68c-1.86,1.08-2.06,2.69-.44,3.63l9.09,5.25a7,7,0,0,0,6.32-.24l3.37-1.92c1.87-1.08,2.06-2.71.46-3.64l-9.11-5.24a7,7,0,0,0-6.31.25Z"/><path class="cls-41" d="M1198.7,982.41c-1.87,1.09-2.07,2.72-.45,3.66l9.1,5.24a7.06,7.06,0,0,0,6.3-.25l3.38-1.93c1.92-1.07,2.06-2.71.44-3.62l-9.08-5.28a7.06,7.06,0,0,0-6.33.25Z"/><path class="cls-41" d="M1182.66,973.18c-1.87,1.07-2.07,2.71-.45,3.64l9.09,5.26a7.06,7.06,0,0,0,6.33-.25l3.36-1.93c1.87-1.08,2.08-2.71.44-3.64l-9.09-5.26a7,7,0,0,0-6.3.27Z"/><path class="cls-41" d="M1166.63,963.89c-1.92,1.09-2.07,2.73-.46,3.65l9.1,5.25a7,7,0,0,0,6.32-.26l3.37-1.92c1.87-1.07,2.07-2.72.44-3.64l-9.09-5.25a7,7,0,0,0-6.31.25Z"/><path class="cls-41" d="M1150.59,954.66c-1.87,1.06-2.07,2.7-.45,3.62l9.11,5.25a7,7,0,0,0,6.31-.24l3.37-1.93c1.87-1.07,2.07-2.69.45-3.64l-9.1-5.24a7.08,7.08,0,0,0-6.31.23Z"/><path class="cls-41" d="M1134.56,945.37c-1.87,1.09-2.07,2.73-.44,3.66l9.07,5.25a7.06,7.06,0,0,0,6.33-.26l3.38-1.92c1.87-1.07,2.06-2.71.43-3.65l-9.09-5.25a7,7,0,0,0-6.32.26Z"/><path class="cls-41" d="M1118.53,936.14c-1.87,1.07-2.09,2.69-.45,3.64l9.09,5.25a7.14,7.14,0,0,0,6.31-.25l3.38-1.93c1.87-1.09,2.06-2.73.46-3.66l-9.11-5.25a7,7,0,0,0-6.31.26Z"/><path class="cls-41" d="M1279.5,1043.62c-1.86,1.08-2.07,2.71-.45,3.66l9.1,5.24a7,7,0,0,0,6.32-.26l3.37-1.92c1.86-1.07,2.06-2.7.45-3.64l-9.1-5.24a7,7,0,0,0-6.31.23Z"/><path class="cls-41" d="M1262.85,1034c-1.87,1.07-2.06,2.71-.44,3.64l9.1,5.26a7,7,0,0,0,6.31-.27l3.38-1.92c1.87-1.07,2.07-2.7.44-3.65l-9.09-5.25a7.1,7.1,0,0,0-6.32.25Z"/><path class="cls-41" d="M1246.22,1024.41c-1.87,1.08-2.06,2.71-.44,3.66l9.09,5.25a7.07,7.07,0,0,0,6.32-.26l3.38-1.93c1.86-1.09,2.06-2.7.43-3.65l-9.09-5.25a7.1,7.1,0,0,0-6.32.26Z"/><path class="cls-41" d="M1229.58,1014.81c-1.86,1.07-2.07,2.7-.44,3.65l9.09,5.25a7,7,0,0,0,6.3-.27l3.39-1.93c1.87-1.07,2.06-2.71.45-3.64l-9.09-5.25a7.07,7.07,0,0,0-6.32.26Z"/><path class="cls-41" d="M1212.94,1005.2c-1.87,1.07-2.07,2.7-.44,3.65l9.08,5.25a7.1,7.1,0,0,0,6.32-.26l3.39-1.92c1.86-1.08,2.06-2.71.43-3.65l-9.09-5.25a7.08,7.08,0,0,0-6.31.26Z"/><path class="cls-41" d="M1196.3,995.59c-1.87,1.1-2.06,2.69-.44,3.63l9.1,5.26a7,7,0,0,0,6.3-.25l3.39-1.92c1.86-1.09,2.06-2.73.44-3.66L1206,993.4a7.07,7.07,0,0,0-6.32.24Z"/><path class="cls-41" d="M1179.66,986c-1.86,1.1-2.07,2.73-.44,3.67l9.09,5.24a7,7,0,0,0,6.31-.23l3.38-1.93c1.87-1.08,2.07-2.72.46-3.66l-9.1-5.25a7.06,7.06,0,0,0-6.33.25Z"/><path class="cls-41" d="M1163,976.36c-1.87,1.09-2.07,2.72-.43,3.66l9.08,5.25A7,7,0,0,0,1178,985l3.38-1.93c1.87-1.07,2.08-2.71.44-3.64l-9.09-5.27a7.07,7.07,0,0,0-6.32.27Z"/><path class="cls-41" d="M1146.38,966.78c-1.85,1.07-2.06,2.69-.44,3.64l9.09,5.24a7,7,0,0,0,6.32-.26l3.37-1.92c1.87-1.1,2.07-2.72.44-3.67l-9.09-5.25a7,7,0,0,0-6.31.26Z"/><path class="cls-41" d="M1129.74,957.15c-1.85,1.1-2.07,2.72-.44,3.65l9.09,5.25a7,7,0,0,0,6.32-.26l3.36-1.92c1.93-1.08,2.07-2.71.45-3.65l-9.09-5.26a7,7,0,0,0-6.31.27Z"/><path class="cls-41" d="M1289.93,1064.87c-1.93,1.09-2.06,2.72-.45,3.65l9.09,5.23a7,7,0,0,0,6.32-.24l3.39-1.93c1.84-1.1,2-2.72.43-3.66l-9.1-5.24a7,7,0,0,0-6.31.25Z"/><path class="cls-41" d="M1276.25,1057c-1.93,1.09-2.29,2.6-1,3.37l7.61,4.41c1.34.78,4,.54,5.83-.53l3.38-1.93c1.86-1.07,2.27-2.57,1-3.36l-7.62-4.38c-1.36-.79-4-.56-5.85.52Z"/><path class="cls-41" d="M1262.43,1049c-1.87,1.08-2.28,2.59-1,3.37l7.61,4.39c1.36.79,4,.55,5.78-.52l3.38-1.92c1.87-1.1,2.28-2.6,1-3.38l-7.61-4.41c-1.36-.79-4-.54-5.84.54Z"/><path class="cls-41" d="M1248.52,1041c-1.87,1.09-2.28,2.59-1,3.37l7.61,4.4c1.36.8,4,.55,5.78-.54l3.38-1.93c1.92-1.07,2.28-2.58,1-3.37l-7.63-4.4c-1.35-.78-4-.52-5.78.54Z"/><path class="cls-41" d="M1137.22,976.71c-1.87,1.08-2.27,2.6-1,3.38l7.62,4.39c1.36.79,4,.55,5.83-.52l3.39-1.93c1.85-1.06,2.26-2.57.91-3.36l-7.61-4.4c-1.36-.76-4-.53-5.84.53Z"/><path class="cls-41" d="M1122.19,968c-1.86,1.08-2.28,2.57-1,3.35l7.62,4.4c1.35.79,4,.55,5.83-.53l3.38-1.93c1.87-1.05,2.28-2.58,1-3.35l-7.6-4.4c-1.36-.78-4-.53-5.84.54Z"/><path class="cls-41" d="M1092.72,951c-1.86,1.07-2.28,2.59-1,3.37l7.61,4.39c1.37.78,4,.55,5.84-.53l3.37-1.93c1.85-1.05,2.28-2.56,1-3.35l-7.61-4.4c-1.36-.78-4-.54-5.85.53Z"/><path class="cls-41" d="M1110.41,957.66c-.77.45-.29,1.44,1.07,2.24l7.6,4.39c1.36.8,3.1,1.05,3.86.62l1.38-.82c.77-.44.29-1.43-1.07-2.21l-7.61-4.4c-1.35-.79-3.08-1.05-3.86-.61Z"/><path class="cls-41" d="M1106.23,960.08c-.77.45-.28,1.45,1.07,2.23l7.6,4.37c1.37.8,3.1,1.08,3.86.62l1.37-.79c.78-.44.3-1.42-1.06-2.22l-7.6-4.39c-1.36-.8-3.1-1.07-3.85-.62Z"/><path class="cls-41" d="M1326.62,1041.73c-1.87,1.08-1.92,2.77-.1,3.85l10.12,5.84a7.27,7.27,0,0,0,6.64-.07l3.38-1.93c1.86-1.08,1.92-2.8.1-3.85l-10.11-5.86a7.41,7.41,0,0,0-6.65,0Z"/><path class="cls-41" d="M1311.48,1047.54c-1.85,1.08-1.66,2.88.41,4.13l11.64,6.74a7.93,7.93,0,0,0,7.16.22l3.37-1.93c1.87-1.08,1.69-2.89-.39-4.13l-11.65-6.74a7.91,7.91,0,0,0-7.15-.22Z"/><path class="cls-41" d="M1296.14,1053.21c-1.87,1.08-1.44,3.07,1,4.45l13.35,7.7c2.4,1.37,5.85,1.64,7.71.56l3.38-1.92c1.87-1.06,1.46-3.07-1-4.45l-13.34-7.71c-2.39-1.38-5.78-1.62-7.71-.55Z"/><path class="cls-41" d="M1105.92,943.39c-1.87,1.07-1.47,3.07,1,4.45l13.36,7.7c2.39,1.39,5.78,1.62,7.7.55l3.38-1.92c1.85-1.09,1.45-3.08-1-4.46L1117,942c-2.38-1.36-5.78-1.62-7.7-.54Z"/><path class="cls-41" d="M1151.46,985.63c-2,1.13-2.29,2.84-.63,3.8l88.67,51.21a7.32,7.32,0,0,0,6.57-.39l4.61-2.64c2-1.16,2.27-2.88.62-3.79l-88.67-51.2c-1.64-1-4.59-.8-6.58.34Z"/><path class="cls-42" d="M1134.27,1001.84l-34.3,19.81c-2,1.14-2,3,0,4.16l76.51,44.19a8,8,0,0,0,7.22,0l34.31-19.83c2-1.14,2-3,0-4.15l-76.52-44.18A8,8,0,0,0,1134.27,1001.84Z"/><path class="cls-40" d="M1134.27,1002.91l-34.3,19.8c-2,1.14-2,3,0,4.17l76.51,44.17a8,8,0,0,0,7.22,0l34.31-19.82c2-1.14,2-3,0-4.15l-76.52-44.17A8,8,0,0,0,1134.27,1002.91Z"/><path class="cls-43" d="M1107.56,1018.38l-7.59,4.38c-2,1.15-2,3,0,4.16l76.51,44.18a8,8,0,0,0,7.22,0l7.59-4.38Z"/><polygon class="cls-44" points="1137.51 1049.15 1138.02 1049.44 1149.69 1042.68 1149.17 1042.4 1137.51 1049.15"/><path class="cls-45" d="M1394.09,1059.22v2.57a1.55,1.55,0,0,1-.71,1.25l-7,4a.45.45,0,0,1-.63-.08.45.45,0,0,1-.09-.34v-2.56Z"/><path class="cls-45" d="M1383.91,1065.06v2.51a1.6,1.6,0,0,1-.71,1.26l-7,4c-.41.25-.73.06-.73-.41v-2.55Z"/><polygon class="cls-45" points="1272.79 1132.47 1334.95 1096.58 1334.95 1093.75 1272.79 1129.62 1272.79 1132.47"/><polyline class="cls-46" points="1266.59 826.26 1293.12 876.91 1341.31 850.62"/><ellipse class="cls-47" cx="1302.34" cy="852.7" rx="45.19" ry="78.27" transform="translate(-251.87 765.41) rotate(-30)"/><ellipse class="cls-48" cx="1302.34" cy="852.7" rx="50.8" ry="87.97" transform="translate(-251.87 765.41) rotate(-30)"/><path class="cls-49" d="M1127.47,1521.42c21.86-.15,52.48-15.58,63.7-8.3s32.87,31.79-15.21,55.07-87,42.57-91.5,22.7,2.54-43.66,3.11-54.43S1111.45,1521.65,1127.47,1521.42Z"/><path class="cls-49" d="M1134,1548.57c-32.87,18.38-52.79-5.17-52.79-5.17s-8.67-101.35-15.41-146.75-5.78-65.69-30-53.07c-19.26,10-42.67,33.55-90.66,60.36V1236.22c35.76-10.82,109.52-35.75,148.32-41.55,58-8.67,63.09,34.11,59.86,139-3,98,7.38,182,7.38,182S1164.58,1531.55,1134,1548.57Z"/><polygon class="cls-50" points="1097.37 1769.72 1064.86 1788.51 902.7 1694.87 902.7 1679.26 1097.37 1754.06 1097.37 1769.72"/><polygon class="cls-50" points="902.66 1769.72 935.25 1788.51 1097.37 1694.87 1097.37 1679.26 902.66 1754.06 902.66 1769.72"/><polygon class="cls-51" points="1097.37 1754.06 1064.86 1772.86 902.7 1679.26 935.25 1660.45 1097.37 1754.06"/><polygon class="cls-51" points="902.66 1754.06 935.25 1772.86 1097.37 1679.26 1064.83 1660.45 902.66 1754.06"/><path class="cls-50" d="M1014.35,1710.84a14.3,14.3,0,0,1-14.28,14.32h0a14.3,14.3,0,0,1-14.31-14.29V1474.45a14.28,14.28,0,0,1,14.31-14.26h0a14.28,14.28,0,0,1,14.31,14.26Z"/><path class="cls-51" d="M753,1480.05H753l3-39.84,57.12-.06,136.4-78.76c9.06-5.21,23.74-5.21,32.75,0l135.8,78.45,63.57-.13-2.89,40.45h0c.09,3.57-2.14,7-6.74,9.72L982.19,1599.37c-9.05,5.24-23.73,5.24-32.75,0L759.7,1489.88C755.09,1487.21,752.87,1483.65,753,1480.05Z"/><path class="cls-52" d="M764,1448.76c-9-5.23-9-13.69,0-18.91l189.68-109.53c9.09-5.22,23.74-5.22,32.84,0l189.69,109.53c9,5.22,9,13.68,0,18.91L986.55,1558.28c-9.1,5.27-23.75,5.27-32.84,0Z"/><path class="cls-53" d="M780.61,1439.34v-52.85c0-22.16,15.54-49.12,34.79-60.26l122.39-70.66c19.19-11.06,34.78-2.12,34.78,20.06v52.87"/><path class="cls-50" d="M856.3,1515.43c-17.43,7.16-33.71,9.63-48.16,7.93a62,62,0,0,1-38.33-18.87h0a1.3,1.3,0,0,1-.34-.28c16.45,4.11,35.7,2.23,56.65-6.37Z"/><path class="cls-54" d="M1042.6,988.34c8.13-4.13,21.71-19.17,31.24-29.22s23.77-21.51,33.71-26.38,17.27-7,18.78-7l1.51.06s5.34-3.56,8.92-3.12a35.38,35.38,0,0,1,5.21,1s1.67.35,4.18.65,6.61,3.85,6.61,3.85,5.38-1.16,6,2.82-16.61,14.69-27.1,22.87-31.37,27.48-30.72,31,11.74,1.7,21-2,17.52-4.17,19.61-.14-10.91,16.38-28.42,18.09-35.3,14.65-43.22,10.89-18.09.19-18.09.19Z"/><path class="cls-55" d="M995.38,1020l41.1-32.75s13.49-1.18,19.14,10.6c6.74,14.13,12,21,12,21l-29.35,31.64Z"/><path class="cls-56" d="M1203.26,1119.26a20.2,20.2,0,0,0,4.1-15.54c-1.41-9.5-2.59-18.69,6.74-40.91s13.84-39.41,17.79-37.56,9.28,4.54,4.2,19.57-5.78,18.35-3.91,18.92,24.08-18.92,30.65-28.9,25.3-33.07,29.19-33.07,5.13,5.78,0,16.51-18.64,29.52-18.64,29.52,28.57-31.9,32.48-35.21,15.35-4,3.32,13.84A284.14,284.14,0,0,1,1283,1059s31.88-31.94,36.08-29.18-13.48,21.86-19.86,30.77a76,76,0,0,1-11.71,13.42s25.25-21.35,28.56-19.53-16.22,25.57-23.12,32.15-24.34,24.66-34.58,29.22-29.19,31.27-29.19,31.27Z"/><path class="cls-49" d="M1242.34,1572.54c21.8-.23,52.49-15.64,63.66-8.32s32.9,31.66-15.2,55-86.94,42.54-91.5,22.62,2.55-43.61,3.11-54.42S1226.27,1572.66,1242.34,1572.54Z"/><path class="cls-57" d="M839.75,1312.12c-21.91,68.83,1,101.3,25.48,107.67s27.23,8.77,27.23,8.77,56.43,66.35,133.66,31.63,110.62-55.26,134.75-67.85,29.85,15.86,26.77,59.42c-3.2,45.77,8.45,142.74,8.45,142.74s19.93,23.46,52.77,5.11c30.6-17,26.74-32.75,26.74-32.75s-6.54-85.95-5.27-184-23-141-81-132.38-160.56,38.24-163.74,44.66S839.75,1312.12,839.75,1312.12Z"/><path class="cls-56" d="M884.13,909.91c-7.4,28-10.92,44.42-19.26,46.37a66.79,66.79,0,0,1-13.48,1.92s8.66,31.53,55,34.47,55.37-4.5,55.37-4.5-6.55-21.34,0-40.28,11.3-24.08,11.3-24.08-31.88-26.4-53.45-24.46S884.13,909.91,884.13,909.91Z"/><path class="cls-54" d="M1035.76,830.1c-8.37,23.83-12.89,43.09-14.5,59.53s-19.64,39.25-37,42.52S958.48,918,958.48,918s18.37-82.25,38.61-91.91S1035.76,830.1,1035.76,830.1Z"/><path class="cls-58" d="M882.52,909.28c-.6-17.33-36-41.21-35.38-105.59S885.74,699.42,954,711s98.67,48.89,94.39,90.42-19.65,39-24.14,39.62-.33,15.1-5.17,19.26-5.78,40.53-11.25,35.09,4.82-32.49-.67-33.49-21.53,26.6-27,38.93c-6.43,14.5-16.72,39.58-52.12,36.42S883.2,927.91,882.52,909.28Z"/><path class="cls-59" d="M844.58,941.3c-37-2.61-67.27,54.7-45.38,132S834,1165,836.88,1210.39s2.89,69,3.38,83-12.42,41.83-12.42,41.83,42.66,54.13,120.52,69.84c99.11,20,106.16-60,101.28-103.37-4.05-35.92,14.81-56.61-3.22-83s-30.28-46.37-32.18-55.37,1.28-62.47,22.52-90.76,30.9-22.51,30.9-22.51-82.43-67.66-132-90.78S844.58,941.3,844.58,941.3Z"/><path class="cls-60" d="M1067.66,1050.1c27.41,26.35,39.89,103.56,48.27,126.17s30.9,9.63,48.93-15.47,33.8-49.37,33.8-49.37a58.09,58.09,0,0,1,23.82,19.26c10.29,14.16,11.56,24.47,11.56,24.47s-42.81,67.42-69.88,106.69-54.06,65-77.87,32.17-31.54-56.9-31.54-56.9-45.72-53.17-47-95S1050.91,1033.94,1067.66,1050.1Z"/><path class="cls-53" d="M967.25,1546v-52.87c0-22.16,15.53-49.12,34.75-60.25l122.42-70.63c19.2-11.08,34.75-2.12,34.75,20v52.87"/><path class="cls-51" d="M752.38,1013.8l32.35-15.7h0c2.62-1.62,6.34-1.45,10.45,1l168.3,97.18c8,4.65,14.56,16,14.56,25.26v194.27c0,4.82-1.78,8.1-4.57,9.49v.1l-31.89,15.34-25.37-43.84-121-69.85c-8-4.65-14.57-16-14.57-25.23V1062.69Z"/><path class="cls-52" d="M945.16,1331.77c0,9.32-6.48,13-14.53,8.4L762.31,1243c-8-4.66-14.54-15.93-14.54-25.18V1023.42c0-9.28,6.49-13,14.54-8.4l168.32,97.21c8,4.64,14.53,15.86,14.53,25.19Z"/><path class="cls-17" d="M903.17,1284.78c0,5.92-4.17,8.31-9.33,5.37l-108.17-62.42c-5.16-3-9.34-10.2-9.34-16.21V1086.64c0-5.91,4.18-8.37,9.34-5.38l108.16,62.46c5.16,3,9.33,10.22,9.33,16.17Z"/><path class="cls-50" d="M823.77,1242c18.3-21.1,32.53-40,32.53-40l-30.18-17.69c-71.45,51.68-126.74,154.11-126.74,239.5,0,45,15.36,77,40.41,92.75v.07l27.72,16s-1.39-2.53-3.53-6.68a92.3,92.3,0,0,0,30.71.32,128.45,128.45,0,0,0,13.42-3,62,62,0,0,1-38.33-18.87h0a1.3,1.3,0,0,1-.34-.28,62.24,62.24,0,0,1-19.91-9c-4-9.4-7.7-19-9.74-27.14-6.22-24.76-4.19-81.87,17.55-131.66S805.47,1263.14,823.77,1242Z"/><path class="cls-41" d="M856.3,1221.07V1202c-71.57,51.63-126.83,154-126.83,239.46a161.92,161.92,0,0,0,4.32,38.43c4.71,18.65,12.84,33.71,23.85,44.61,23,22.74,58.23,27.48,98.66,10.1v-19.16c-17.43,7.16-33.71,9.63-48.16,7.93a62,62,0,0,1-38.33-18.87h0a1.3,1.3,0,0,1-.34-.28c-14.8-15.65-23.61-40.23-23.61-72.18C745.85,1357,793.83,1267.45,856.3,1221.07Z"/><path class="cls-49" d="M841.35,820.35c-3.51-40.39,5.93-95.35,41.51-109.2s122-7.91,148.66,18.77,23.93,73.63,17.19,96.36S1020,847,997.12,845.54s-48.53,19.27-88.61,19.27S842.94,838.64,841.35,820.35Z"/><path class="cls-61" d="M1478.5,1249.65V1295l-119.71-69.13c-4.41-2.57-8.08-9.41-8.08-15.41v-23.9c0-3.09,1-5.29,2.57-6.25a.7.7,0,0,1,.37-.29c1.4-.81,3.16-.66,5.14.44Z"/><path class="cls-18" d="M1478.51,1255.75v33.18l-115.26-66.54a15.14,15.14,0,0,1-6.81-11.8v-17.46c0-4.35,3.06-6.09,6.81-3.93Z"/><path class="cls-62" d="M1643.47,1153.58l-5.3,3.08-28.59,16.62-5.3,3.09-125.78,73.28-119.71-69.11c-2-1.1-3.74-1.26-5.14-.45l163.94-95.35.15-.07c1.46-1.4,3.6-1.55,6-.15Z"/><polygon class="cls-63" points="1478.51 1255.75 1643.47 1159.75 1643.47 1153.58 1478.5 1249.65 1478.51 1255.75"/><polygon class="cls-64" points="1478.51 1288.93 1643.47 1192.91 1643.47 1159.75 1478.51 1255.75 1478.51 1288.93"/><polygon class="cls-65" points="1478.5 1295.03 1643.47 1199.02 1643.47 1192.91 1478.51 1288.93 1478.5 1295.03"/><path class="cls-66" d="M1478.5,1202.23v45.37l-119.71-69.12c-4.41-2.58-8.08-9.41-8.08-15.42v-23.89c0-3.09,1-5.3,2.57-6.25a.78.78,0,0,1,.37-.3c1.4-.81,3.16-.66,5.14.44Z"/><path class="cls-18" d="M1478.51,1208.32v33.18L1363.25,1175a15.14,15.14,0,0,1-6.81-11.8v-17.45c0-4.35,3.06-6.1,6.81-3.93Z"/><path class="cls-30" d="M1643.47,1106.15l-5.3,3.08-28.59,16.63-5.3,3.08-125.78,73.29-119.71-69.12c-2-1.1-3.74-1.25-5.14-.44l163.94-95.35.15-.07c1.46-1.4,3.6-1.55,6-.16Z"/><polygon class="cls-67" points="1478.51 1208.32 1643.47 1112.33 1643.47 1106.15 1478.5 1202.23 1478.51 1208.32"/><polygon class="cls-64" points="1478.51 1241.5 1643.47 1145.49 1643.47 1112.33 1478.51 1208.32 1478.51 1241.5"/><polygon class="cls-67" points="1478.5 1247.6 1643.47 1151.59 1643.47 1145.49 1478.51 1241.5 1478.5 1247.6"/><path class="cls-68" d="M1478.5,1154.8v45.37l-119.71-69.12c-4.41-2.57-8.08-9.41-8.08-15.41v-23.9c0-3.09,1-5.29,2.57-6.25a.84.84,0,0,1,.37-.3c1.4-.8,3.16-.65,5.14.45Z"/><path class="cls-18" d="M1478.51,1160.9v33.18l-115.26-66.55a15.1,15.1,0,0,1-6.81-11.79v-17.46c0-4.35,3.06-6.09,6.81-3.93Z"/><path class="cls-69" d="M1643.47,1058.73l-5.3,3.09-28.59,16.61-5.3,3.09L1478.5,1154.8l-119.71-69.11c-2-1.1-3.74-1.26-5.14-.45l163.94-95.35.15-.07c1.46-1.39,3.6-1.55,6-.15Z"/><polygon class="cls-70" points="1478.51 1160.9 1643.47 1064.9 1643.47 1058.73 1478.5 1154.8 1478.51 1160.9"/><polygon class="cls-64" points="1478.51 1194.08 1643.47 1098.06 1643.47 1064.9 1478.51 1160.9 1478.51 1194.08"/><polygon class="cls-71" points="1478.5 1200.17 1643.47 1104.17 1643.47 1098.06 1478.51 1194.08 1478.5 1200.17"/><path class="cls-72" d="M1940.25,755.34c69.9,37.86,48.57,133.11,35.24,216.14s-51.71,162.84-90.54,160.94-82.83-82.31-82.83-86.11S1940.25,755.34,1940.25,755.34Z"/><path class="cls-73" d="M1611.9,1032.74,1479.61,934a12.5,12.5,0,0,0-11.26-1.33L1388,967.26h-5.66v4.64h0a4.13,4.13,0,0,0,1.93,3.11l133.87,99.88a12.53,12.53,0,0,0,11.26,1.33l83.24-35.81c1.75-.75,2.65-1.93,2.7-3.18h0v-4.49Z"/><path class="cls-74" d="M1612.7,1035.78l-83.24,35.8a12.53,12.53,0,0,1-11.26-1.32l-133.87-99.87c-2.89-2.17-2.56-5.08.77-6.5l83.23-35.81a12.53,12.53,0,0,1,11.26,1.32l133.88,99.88C1616.36,1031.46,1616,1034.37,1612.7,1035.78Z"/><polygon class="cls-18" points="1603.11 1026.95 1517 1063.99 1391.08 970.04 1477.18 933 1603.11 1026.95"/><polyline class="cls-75" points="1469.72 996.67 1489.84 1000.83 1495.29 972"/><ellipse class="cls-76" cx="1485.19" cy="988.62" rx="21.81" ry="37.77" transform="translate(269.09 2294.11) rotate(-80.68)"/><ellipse class="cls-77" cx="1485.19" cy="988.62" rx="24.51" ry="42.47" transform="translate(269.09 2294.11) rotate(-80.68)"/><path class="cls-78" d="M1533.6,1071.22a17.54,17.54,0,0,1-1-14.53c3.07-7.86-7.56-31.63-14.45-44.44s-12.71-21-16-9.23,5.78,17.94,2.57,29.74-23.59.34-31.63-7-13-13.84-19.49-17.43-13.16-4.28-9.23,2.38,14.19,19.84,17.61,24.29,8,9.57,8,9.57-4.73,2-4.81,6.83,4,10.59,4,10.59-4.44,1.59-4,7.52,5.7,10.71,5.7,10.71-2.74.24-1,6.61,14.13,17.55,32.14,20.75,22.79,9.79,22.79,9.79Z"/><path class="cls-79" d="M1549,1079.6l-15-10.11s-15.11,7.58-15.79,30.6,2.23,22.22,2.23,22.22l15.41,10.09Z"/><path class="cls-80" d="M1869.46,1756.69s-22.9,11.63-37.56,6.5-46.5-18.46-58.46-6.5-15.41,51,21.19,64.28,88.66,37.83,111.91,36.47,33.71-15.5,24.61-58.8S1869.46,1756.69,1869.46,1756.69Z"/><path class="cls-50" d="M1930.41,1208.08s-8.87,88.21-5.22,174.82,10,224.27,11.86,279.89,3.19,138.58,3.19,138.58-33.71,1.82-55.16-17.78-21.42-25.53-21.42-25.53-50.61-318.64-58.81-358.29-20-142.66-14.45-177.33,96-43.76,97.83-43.76S1930.41,1208.08,1930.41,1208.08Z"/><path class="cls-50" d="M1769.38,1812.78s-22.9,11.62-37.56,6.49-46.5-18.46-58.46-6.49-15.41,50.94,21.19,64.27,88.65,37.84,111.9,36.47,33.71-15.5,24.62-58.81S1769.38,1812.78,1769.38,1812.78Z"/><path class="cls-72" d="M1865.23,1260.28s-43.76,92.08-40.12,178.7,10,224.28,11.86,279.89,3.18,138.58,3.18,138.58-33.71,1.83-55.15-17.78-21.43-25.53-21.43-25.53-50.6-318.63-58.8-358.29-20-142.66-14.44-177.32,96-43.76,97.83-43.76S1865.23,1260.28,1865.23,1260.28Z"/><path class="cls-81" d="M1873.89,736.06s-3.19,16.38,10,23.71c0,0,9.11,24.6-26.44,36s-68.49,5.92-69.34,5.92,5.87-45.13,0-52.88-21.42-9.57-21.42-9.57l2.56-22.57s70-26.2,83.18-20.73S1873.89,736.06,1873.89,736.06Z"/><path class="cls-79" d="M1897.85,754.78s-5-9.44-34.44,0-68.39,21.4-79.67,34.38-13.1,24.82-13.1,24.82Z"/><path class="cls-78" d="M1720.16,622s.68,22.91,7.52,34.54,3.42,27,3.42,41.36,13.33,34.87,25.64,40,26.32-3.42,30.82-16.06-15.73-91.75-26.67-99.84S1720.16,622,1720.16,622Z"/><path class="cls-82" d="M1875.71,741.3c1.44-20.65,39.67-33.51,48.56-97.78s-38.3-121-114.19-120.39-97.11,21.19-101.89,56.06,12.3,69.76,29.06,71.81,0,28,6.84,32.47,12,4.44,12,15,5.14,8.2,5.78-.35,10.26-14,12.66-1,4.44,34.53,23.93,44.1S1874.68,756,1875.71,741.3Z"/><path class="cls-74" d="M1940.25,755.34c-18.61-5-44.3-2.48-71.84,7.14-36.5,12.78-82.72,31.72-107.81,62.06s-85,86.14-90.54,118.91-29.6,123.53-32.34,147.73-16,23.72-35.55,15.94-54.7-30.51-54.7-30.51-17.78,10.78-16.88,35.23l.89,24.46s70.27,57.43,103.55,68.38,47.34,3.62,57.86-6.36c9.77-9.42,19.19-46.24,20.4-51-1.31,7.42-15.51,86.62-19,106.19-3.63,20.5-13.21,25,5.52,27.76s122.61,26.27,180-6.57,58.1-60.22,52.64-94.39c-4.68-29-12.73-72.68-14.52-91h0a552.9,552.9,0,0,1-5.26-63.74l.06-.06c0-.1.15-.41.36-.84a13.39,13.39,0,0,0,.53-1.32.23.23,0,0,0,.11-.2c.15-.37.37-.79.52-1.26,3.31-8,11.36-27.51,19-43.34,2.54-5.21,5-10.05,7.22-13.94,9.93-17.34,16.87-41.23,18-45.44a.92.92,0,0,1,.1-.32.89.89,0,0,1,.11-.31C1980.94,864.83,1967.45,791.4,1940.25,755.34Z"/><path class="cls-83" d="M303.21,1582v154.12A17.85,17.85,0,0,0,312,1734l115.52-66.71c2.4-1.38,3.64-3.22,3.64-5.07l18.22-163.73c-.35,1.76-1.7,3.46-4.05,4.82l-132.09,76.26A20.5,20.5,0,0,1,303.21,1582Z"/><path class="cls-84" d="M157.08,1498.62c.4,1.74,1.74,3.39,4,4.72l132.06,76.26a22.06,22.06,0,0,0,20.07,0l132.09-76.26c2.35-1.34,3.7-3,4.05-4.82h0l.1-1c0-2.11-1.36-4.19-4.15-5.78l-132.09-76.26c-5.53-3.19-14.52-3.19-20.07,0l-132.06,76.26C157.89,1493.64,156.53,1496.17,157.08,1498.62Z"/><path class="cls-85" d="M175.4,1498.48a6.72,6.72,0,0,0,3.52,4.13l115.54,66.76a19.38,19.38,0,0,0,17.55,0l115.58-66.71a6.67,6.67,0,0,0,3.54-4.21h0l.08-.83c0-1.84-1.2-3.67-3.62-5.07L312,1425.84c-4.81-2.78-12.7-2.78-17.55,0l-115.57,66.64C176.09,1494.13,174.92,1496.34,175.4,1498.48Z"/><path class="cls-86" d="M157,1498.54l18.29,163.73c0,1.85,1.22,3.69,3.64,5.07l115.55,66.73a18,18,0,0,0,8.8,2.1V1582a20.43,20.43,0,0,1-10-2.41l-132.06-76.27c-2.29-1.32-3.64-3-4-4.71Z"/><path class="cls-87" d="M303.24,1497.56s-5.47-91.06-92-91.06h27.93c11.24,0,23.57-35.3-58.63-35.3,0,0-29.93-1.83,11.94-8s-67-71.15-152.83-32.33c0,0-18.38,45.63,47.68,53.79s-10.9,8.18-27.25,1.71-11.23,24.85,20.78,38.8A188.58,188.58,0,0,0,157,1440.88c15.85,0-6.63,7.83-39.31,4.42s-44.6-12.25-44.6-12.25,71.84,65.71,124.94,58.56S303.24,1497.56,303.24,1497.56Z"/><path class="cls-88" d="M309.29,1509.31a.58.58,0,0,1-.44-.21,727.84,727.84,0,0,0-79.07-79.84C186.68,1392,121.91,1346,58,1338.27a.54.54,0,0,1-.48-.61h0a.54.54,0,0,1,.59-.48h0c64.15,7.71,129.15,53.94,172.4,91.26a729,729,0,0,1,79.19,79.94.57.57,0,0,1-.07.79h0A.51.51,0,0,1,309.29,1509.31Z"/><path class="cls-88" d="M167.42,1463.62a209.65,209.65,0,0,1-33.84-2.79.57.57,0,0,1-.53-.59.55.55,0,0,1,.59-.52h.11c70.11,11.42,112.57-16,113-16.27a.55.55,0,0,1,.77.16.55.55,0,0,1-.14.76h0C247,1444.62,217.59,1463.62,167.42,1463.62Z"/><path class="cls-88" d="M211.22,1413.67a.54.54,0,0,1-.25-.06.56.56,0,0,1-.24-.75c.1-.2,9.91-19.85-6.35-40.76a.56.56,0,0,1,.18-.77.55.55,0,0,1,.7.08c16.71,21.49,6.56,41.76,6.46,42A.58.58,0,0,1,211.22,1413.67Z"/><path class="cls-88" d="M115.7,1407.13A140.49,140.49,0,0,1,86.22,1404a.56.56,0,0,1,.23-1.09c54.61,11.73,92.88-13.19,93.27-13.48a.56.56,0,0,1,.77.15.55.55,0,0,1-.15.76h0C180,1390.58,154.62,1407.13,115.7,1407.13Z"/><path class="cls-88" d="M131.5,1361.67a.58.58,0,0,1-.56-.52c0-.26-1.83-26-23.76-37.93a.56.56,0,0,1-.08-.79.57.57,0,0,1,.61-.18c22.48,12.26,24.33,38.53,24.35,38.84a.57.57,0,0,1-.53.59h0Z"/><path class="cls-88" d="M61.08,1356.22a51.7,51.7,0,0,1-14.31-1.92.56.56,0,0,1,.31-1.07c24.24,7,47.79-7.32,48-7.47a.55.55,0,0,1,.76.18h0a.55.55,0,0,1-.17.77C95.51,1346.8,80,1356.22,61.08,1356.22Z"/><path class="cls-89" d="M305.46,1497.63s30.63-94.46-8.18-163.9c0,0-6.14-8-6.14,22.57s5.12-25.65-34.67-65.49-91.93-53.11-91.93-53.11-26.67,92.65,20.42,118.59c0,0,9.53,13-18.38,0s19.26,42.78,65.8,63.22c0,0,8.42,15.32-16.09,4.25S210.82,1473.61,305.46,1497.63Z"/><path class="cls-88" d="M309.29,1514.57a.55.55,0,0,1-.55-.5c-.06-.37-5.1-38-24.08-88-17.48-46.23-50.72-112.77-109.8-167.58a.56.56,0,0,1,.76-.82h0c59.23,55,92.55,121.7,110.07,168,19,50.19,24.08,87.89,24.08,88.26a.56.56,0,0,1-.48.63Z"/><path class="cls-88" d="M285.63,1457.09c-10.22,0-28.44-3.75-54.9-22.89a.57.57,0,0,1-.12-.78.58.58,0,0,1,.78-.12c42.14,30.45,63.44,21.32,63.65,21.18a.55.55,0,0,1,.73.27h0a.57.57,0,0,1-.27.75C295.15,1455.72,291.88,1457.09,285.63,1457.09Z"/><path class="cls-88" d="M278,1408.46a.56.56,0,0,1-.54-.57.54.54,0,0,1,.35-.51h0c.16-.07,16.87-7.05,16.87-61.64a.56.56,0,1,1,1.1-.15.38.38,0,0,1,0,.15c0,55.57-16.86,62.44-17.58,62.7A.68.68,0,0,1,278,1408.46Z"/><path class="cls-88" d="M255.78,1368.22c-11.55,0-53.48-2.41-80.9-35.64a.56.56,0,0,1,.77-.81l.09.11c31.53,38.14,82.5,35.15,83,35.11a.54.54,0,0,1,.59.47v0a.56.56,0,0,1-.52.6h0A20.87,20.87,0,0,1,255.78,1368.22Z"/><path class="cls-88" d="M228.6,1319.47a.55.55,0,0,1-.38-.94h0c.1-.11,9.95-10.9-.14-43.35a.55.55,0,0,1,.38-.69.55.55,0,0,1,.69.37c10.31,33.13.3,44-.13,44.39A.54.54,0,0,1,228.6,1319.47Z"/><path class="cls-90" d="M312.85,1450s-62.6-76.91,1.86-166.78c0,0-36.69,49-36.69,7.15s50-147.11,172.09-152.17,61.82,87.85,8.67,128.7l48.34-10.21S496.78,1396.2,312.85,1450Z"/><path class="cls-88" d="M314.69,1488.46a.55.55,0,0,1-.55-.5c-.06-.67-5.64-67.7,13.72-141.47,11.37-43.34,29-80.52,52.39-110.49,29.26-37.45,67.65-63.68,114.14-77.92a.55.55,0,1,1,.32,1.06c-104.75,32.11-148,119.74-165.77,187.6-19.27,73.59-13.75,140.45-13.69,141.12a.56.56,0,0,1-.51.6Z"/><path class="cls-91" d="M316.93,1409.77a.55.55,0,0,1-.55-.47.56.56,0,0,1,.45-.64c.68-.13,69.44-13.09,135.18-92a.56.56,0,0,1,.79,0,.55.55,0,0,1,.06.73c-66,79.28-135.15,92.3-135.8,92.46Z"/><path class="cls-88" d="M326,1356.76a.54.54,0,0,1-.52-.37c-.32-1-31.38-94.92,0-146.29a.56.56,0,0,1,.77-.2.57.57,0,0,1,.19.77h0c-31.16,50.93-.27,144.48,0,145.36a.55.55,0,0,1-.34.7.42.42,0,0,1-.19,0Z"/><path class="cls-88" d="M346.42,1312.31a35.05,35.05,0,0,1-6.94-.52.55.55,0,0,1-.41-.67h0a.55.55,0,0,1,.65-.42h0c.37.08,37.15,7.91,109.58-41.54a.56.56,0,0,1,.79.16.58.58,0,0,1-.16.8C395,1307.61,360.31,1312.31,346.42,1312.31Z"/><path class="cls-88" d="M379.74,1238.17h0a.54.54,0,0,1-.5-.59v0c0-.58,5.64-59.34,32.75-86.48a.55.55,0,0,1,.77,0h0a.56.56,0,0,1,0,.78c-26.87,26.88-32.42,85.22-32.47,85.81A.56.56,0,0,1,379.74,1238.17Z"/><path class="cls-88" d="M469.76,1203.37c-29.41,0-42-11.82-42.15-12a.54.54,0,0,1,0-.78h0a.56.56,0,0,1,.79,0c.22.22,22.77,21.3,78.61,6.28a.56.56,0,0,1,.68.38v0a.56.56,0,0,1-.4.68A145.37,145.37,0,0,1,469.76,1203.37Z"/><path class="cls-92" d="M310.45,1487.5s97-21.13,137.47-89.65c0,0,3.8-9.3-22.59,6.08s24.72-8.51,39.06-63-.42-106.17-.42-106.17-93.43,23.64-92.16,77.38c0,0-6.46,14.82-9.26-15.87s-27.28,38.16-21.46,88.67c0,0-9,15-11.78-11.75S283.52,1393.62,310.45,1487.5Z"/><path class="cls-88" d="M303.21,1518.73H303a.56.56,0,0,1-.31-.73h0c.83-2,83.4-202.92,149.43-248.79a.56.56,0,0,1,.77.15.54.54,0,0,1-.13.76h0c-65.76,45.68-148.2,246.28-149,248.3A.57.57,0,0,1,303.21,1518.73Z"/><path class="cls-91" d="M320.07,1479.93a.57.57,0,0,1-.56-.56.58.58,0,0,1,.46-.55c.43-.07,44.3-8.66,102.78-48.94a.55.55,0,0,1,.63.91c-58.66,40.45-102.78,49-103.21,49.12Z"/><path class="cls-88" d="M346.53,1424.24a.55.55,0,0,1-.55-.45c-.08-.47-8.51-47.63,3.6-82a.56.56,0,1,1,1.05.37c-12,34.15-3.64,81-3.55,81.48a.57.57,0,0,1-.45.65Z"/><path class="cls-88" d="M395.08,1374.46c-14.38,0-19.27-5-19.6-5.37a.56.56,0,0,1,0-.79.56.56,0,0,1,.78,0c.18.19,15,15,69.55-7.7a.56.56,0,0,1,.73.3.58.58,0,0,1-.3.73C422.32,1371.58,406,1374.46,395.08,1374.46Z"/><path class="cls-88" d="M407.26,1319.47a.56.56,0,0,1-.52-.37c-.11-.27-9.77-27.57,12.52-49.87a.55.55,0,0,1,.78,0h0a.57.57,0,0,1,0,.79c-21.79,21.79-12.38,48.43-12.28,48.7a.55.55,0,0,1-.32.71h0A.58.58,0,0,1,407.26,1319.47Z"/><path class="cls-93" d="M303.24,1497.56s12.15-118.15,72.55-128.21L378,1369a34,34,0,0,1,0,28.6c-7,15.67,48.76-83.54,138.17-41.42,0,0,9.76,6-16.26,26.45s39-32.49,93.22,24.61l54.17,57.11s-47.19,57.88-97,25.19-52.39-28-46.6-20.7,39,29.67,39,29.67-68.28,29.16-101.34-23.27c0,0-1.09,9.09,17.34,23.27S377.34,1444.77,303.24,1497.56Z"/><path class="cls-88" d="M300,1507.18a.51.51,0,0,1-.31-.11.56.56,0,0,1-.14-.77c.31-.43,31.12-43.18,84-71.76,31-16.81,63.5-25.52,96.48-25.89,41.21-.41,83.34,12.17,125.21,37.56a.54.54,0,0,1,.18.75h0a.55.55,0,0,1-.76.19c-94.39-57.19-172-37.9-220.56-11.65-52.62,28.47-83.3,71-83.61,71.46A.58.58,0,0,1,300,1507.18Z"/><path class="cls-88" d="M335,1469.86H335a.55.55,0,0,1-.51-.59h0c.05-.58,5.3-57.85,30.33-82.9a.55.55,0,0,1,.78,0h0a.54.54,0,0,1,0,.78c-24.75,24.77-30,81.65-30,82.22A.56.56,0,0,1,335,1469.86Z"/><path class="cls-88" d="M477.54,1476.85h-.08c-59.71-8.78-91.42-42.38-91.73-42.72a.55.55,0,0,1,0-.77h0a.57.57,0,0,1,.79,0c.31.34,31.72,33.66,91.08,42.38a.56.56,0,0,1,.46.63h0A.56.56,0,0,1,477.54,1476.85Z"/><path class="cls-88" d="M439.76,1414.42h-.05a.54.54,0,0,1-.51-.59h0c0-.42,1-10.59,9.31-22.15,7.71-10.66,23.57-24.49,55.15-29.79a.56.56,0,1,1,.28,1.08l-.1,0c-59.64,10-63.5,50.55-63.56,51A.56.56,0,0,1,439.76,1414.42Z"/><path class="cls-88" d="M548,1469.86a.46.46,0,0,1-.23-.06c-27.8-12.67-37.23-28-40.26-38.67-3.29-11.56,0-20.05.15-20.41a.55.55,0,0,1,.75-.23.56.56,0,0,1,.28.64,33.59,33.59,0,0,0-.09,19.77c3,10.4,12.26,25.42,39.63,37.89a.55.55,0,0,1,.29.73.56.56,0,0,1-.52.34Z"/><path class="cls-88" d="M601.81,1422.39a.69.69,0,0,1-.24-.05c-34.86-16.25-47.89-.32-48-.16a.57.57,0,0,1-.78.1.56.56,0,0,1-.09-.78c.13-.18,13.63-16.83,49.37-.17a.56.56,0,0,1,.25.75.54.54,0,0,1-.49.31Z"/><path class="cls-94" d="M303.24,1497.56s64.66-64.53,104.5,0c0,0,17.34,20.61-18.72,12.44s3.74,5.11,19.74,10.6,39.34,64.18-14.3,96.78c0,0-9.27,8.09-18.16-14.39s-9,13.28,0,28.6-99.3,85.29-82.44-17.87c0,0-9.71,23.49-9.71,33.71s-50.08-47-11.23-85.8c0,0,.5-13.49-17.34,9.84S225.35,1486.81,303.24,1497.56Z"/><path class="cls-88" d="M324,1644.19a.55.55,0,0,1-.52-.38c-36.23-106.08-31.3-135.61-25.15-143.79,2.36-3.13,4.81-3,4.94-3a.56.56,0,1,1,0,1.12h0c-.05,0-2.05,0-4.06,2.66-6,8.07-10.59,37.34,25.36,142.67a.56.56,0,0,1-.33.71.64.64,0,0,1-.2,0Z"/><path class="cls-88" d="M362.85,1624.61a.57.57,0,0,1-.52-.36c-17.34-43.34-55.73-38-56.11-37.91a.57.57,0,0,1-.69-.4.55.55,0,0,1,.4-.68l.11,0c.41-.07,39.66-5.56,57.32,38.6a.56.56,0,0,1-.3.72h0Z"/><path class="cls-88" d="M273.28,1624.61a.55.55,0,0,1-.54-.46c-7.81-38.64,24.31-74.45,24.63-74.8a.55.55,0,0,1,.82.74h0c-.32.35-32.05,35.76-24.37,73.85a.56.56,0,0,1-.43.66Z"/><path class="cls-88" d="M395.14,1572a.54.54,0,0,1-.49-.31c-14.32-28.39-40.68-39.14-60.28-43.16a131.19,131.19,0,0,0-39.49-1.92.56.56,0,0,1-.63-.49.57.57,0,0,1,.47-.62,133.36,133.36,0,0,1,39.92,1.92c19.84,4.07,46.53,15,61.05,43.75a.55.55,0,0,1-.25.75.54.54,0,0,1-.25.06Z"/><path class="cls-88" d="M249.94,1552.18h-.2a.56.56,0,0,1-.33-.71v0c14.24-37.39,45.68-43.15,46-43.21a.55.55,0,0,1,.6.51.57.57,0,0,1-.42.59c-.31,0-31.13,5.73-45.14,42.51A.57.57,0,0,1,249.94,1552.18Z"/><path class="cls-88" d="M395.14,1530.74a.63.63,0,0,1-.39-.17c-47.49-47.48-96.32-28.28-96.77-28.09a.56.56,0,0,1-.75-.25.55.55,0,0,1,.25-.75l.08,0c.12,0,12.59-5,30.82-4,16.79,1,42.09,7.31,67.16,32.38a.56.56,0,0,1,0,.77h0A.56.56,0,0,1,395.14,1530.74Z"/></svg>