<svg id="Layer_1" data-name="Layer 1" xmlns="http://www.w3.org/2000/svg" xmlns:xlink="http://www.w3.org/1999/xlink" viewBox="0 0 2026.65 1949.49"><defs><style>.cls-1{fill:url(#linear-gradient);}.cls-2{fill:url(#linear-gradient-2);}.cls-3{fill:url(#linear-gradient-3);}.cls-4{fill:url(#linear-gradient-4);}.cls-5{fill:url(#linear-gradient-5);}.cls-6{fill:url(#linear-gradient-6);}.cls-7{fill:url(#linear-gradient-7);}.cls-8{fill:url(#linear-gradient-8);}.cls-9{fill:#565646;}.cls-10,.cls-11,.cls-12,.cls-13,.cls-14,.cls-22,.cls-23,.cls-24,.cls-47,.cls-74,.cls-9{fill-rule:evenodd;}.cls-10{fill:#f4c27a;}.cls-11{fill:#606050;}.cls-12{fill:url(#linear-gradient-9);}.cls-13{fill:url(#linear-gradient-10);}.cls-14{fill:url(#linear-gradient-11);}.cls-15{fill:#a4dfff;}.cls-16{fill:#78c8ff;}.cls-17{fill:#007ee5;}.cls-18{fill:#ededed;}.cls-19{fill:#fff;}.cls-20{opacity:0.44;}.cls-21{fill:#f7f7f7;}.cls-22{fill:#edba77;}.cls-23{fill:#262626;}.cls-24{fill:url(#linear-gradient-12);}.cls-25{fill:#0f8daa;}.cls-26{fill:#0f92ba;}.cls-27{fill:url(#linear-gradient-13);}.cls-28{fill:#f9f9f9;}.cls-29{fill:#1099cd;}.cls-30{fill:url(#linear-gradient-14);}.cls-31,.cls-51{fill:#2b2b2b;}.cls-31{opacity:0.05;}.cls-32{fill:#40adad;}.cls-33{fill:url(#linear-gradient-15);}.cls-34{fill:url(#linear-gradient-16);}.cls-35{fill:url(#linear-gradient-17);}.cls-36{fill:url(#linear-gradient-18);}.cls-37{fill:#c9c9c9;}.cls-38{fill:url(#linear-gradient-19);}.cls-39{fill:url(#linear-gradient-20);}.cls-40{fill:url(#linear-gradient-21);}.cls-41{fill:#d3d1d1;}.cls-42{fill:#424242;}.cls-43{fill:#adadad;}.cls-44{fill:#bababa;}.cls-45{fill:#e0e0e0;}.cls-46{fill:#282828;}.cls-47,.cls-48,.cls-49,.cls-54,.cls-74,.cls-75,.cls-76{fill:none;stroke-miterlimit:10;}.cls-47,.cls-48,.cls-49,.cls-74,.cls-75,.cls-76{stroke:#1ee231;}.cls-47{stroke-width:8.08px;}.cls-48{stroke-width:2.24px;}.cls-49{stroke-width:5.83px;}.cls-50{fill:#232323;}.cls-52{fill:#d3d3d3;}.cls-53{fill:#e2e2e2;}.cls-54{stroke:#231f20;stroke-linecap:round;stroke-width:16.45px;}.cls-55{fill:#f4ba7f;}.cls-56{fill:url(#linear-gradient-22);}.cls-57{fill:#fcc490;}.cls-58{fill:#303030;}.cls-59{fill:#2b2a29;}.cls-60{fill:url(#linear-gradient-23);}.cls-61{fill:url(#linear-gradient-24);}.cls-62{fill:url(#linear-gradient-25);}.cls-63{fill:url(#linear-gradient-26);}.cls-64{fill:url(#linear-gradient-27);}.cls-65{fill:#ddd;}.cls-66{fill:url(#linear-gradient-28);}.cls-67{fill:url(#linear-gradient-29);}.cls-68{fill:url(#linear-gradient-30);}.cls-69{fill:url(#linear-gradient-31);}.cls-70{fill:url(#linear-gradient-32);}.cls-71{fill:#353535;}.cls-72{fill:#2d2d2d;}.cls-73{fill:#3d3d3d;}.cls-74{stroke-width:3.9px;}.cls-75{stroke-width:1.26px;}.cls-76{stroke-width:2.81px;}.cls-77{fill:#fcd37a;}.cls-78{fill:#f2f2f2;}.cls-79{fill:#212121;}.cls-80{fill:#efc46f;}.cls-81{fill:#3f3f3f;}.cls-82{fill:url(#linear-gradient-33);}.cls-83{fill:url(#linear-gradient-34);}.cls-84{fill:url(#linear-gradient-35);}.cls-85{fill:url(#linear-gradient-36);}.cls-86{fill:url(#linear-gradient-37);}.cls-87{fill:#4e6dc4;}.cls-88{fill:url(#linear-gradient-38);}.cls-89{fill:url(#linear-gradient-39);}.cls-90{fill:#5ae595;}.cls-91{fill:url(#linear-gradient-40);}.cls-92{fill:url(#linear-gradient-41);}.cls-93{fill:url(#linear-gradient-42);}</style><linearGradient id="linear-gradient" x1="3373.02" y1="356.05" x2="3736.47" y2="356.05" gradientTransform="matrix(-1, 0, 0, 1, 5813.57, 0)" gradientUnits="userSpaceOnUse"><stop offset="0" stop-color="#e2e3e5"/><stop offset="1" stop-color="#efefef"/></linearGradient><linearGradient id="linear-gradient-2" x1="1710.6" y1="71.09" x2="1931.5" y2="71.09" gradientUnits="userSpaceOnUse"><stop offset="0" stop-color="#ffb888"/><stop offset="0.29" stop-color="#ff9b57"/><stop offset="1" stop-color="#ff6801"/></linearGradient><linearGradient id="linear-gradient-3" x1="1710.6" y1="113.63" x2="1931.5" y2="113.63" xlink:href="#linear-gradient-2"/><linearGradient id="linear-gradient-4" x1="1710.6" y1="156.16" x2="1855.5" y2="156.16" xlink:href="#linear-gradient-2"/><linearGradient id="linear-gradient-5" x1="5316.26" y1="778.27" x2="5679.71" y2="778.27" gradientTransform="translate(-4393.58)" xlink:href="#linear-gradient"/><linearGradient id="linear-gradient-6" x1="208.39" y1="716.2" x2="429.29" y2="716.2" gradientTransform="matrix(1, 0, 0, -1, 782.3, 1432.39)" gradientUnits="userSpaceOnUse"><stop offset="0" stop-color="#00c6ff"/><stop offset="1" stop-color="#0072ff"/></linearGradient><linearGradient id="linear-gradient-7" x1="208.39" y1="758.73" x2="429.29" y2="758.73" gradientTransform="matrix(1, 0, 0, -1, 782.3, 1517.46)" xlink:href="#linear-gradient-6"/><linearGradient id="linear-gradient-8" x1="284.39" y1="801.27" x2="429.29" y2="801.27" gradientTransform="matrix(1, 0, 0, -1, 706.31, 1602.53)" xlink:href="#linear-gradient-6"/><linearGradient id="linear-gradient-9" x1="1990.46" y1="907.65" x2="2039.25" y2="907.65" xlink:href="#linear-gradient-2"/><linearGradient id="linear-gradient-10" x1="1843.59" y1="557.18" x2="1937.91" y2="557.18" gradientTransform="matrix(1, 0, 0, 1, 0, 0)" xlink:href="#linear-gradient"/><linearGradient id="linear-gradient-11" x1="1836.33" y1="717.46" x2="2084.93" y2="717.46" xlink:href="#linear-gradient-2"/><linearGradient id="linear-gradient-12" x1="1927.46" y1="717.03" x2="2084.93" y2="717.03" gradientTransform="matrix(1, 0, 0, 1, 0, 0)" xlink:href="#linear-gradient"/><linearGradient id="linear-gradient-13" x1="1405.27" y1="1171.72" x2="52.87" y2="771.69" gradientUnits="userSpaceOnUse"><stop offset="0" stop-color="#20b5d8"/><stop offset="1" stop-color="#8cee98"/></linearGradient><linearGradient id="linear-gradient-14" x1="1437.04" y1="1435.24" x2="2064.62" y2="1113.19" xlink:href="#linear-gradient-13"/><linearGradient id="linear-gradient-15" x1="1461.91" y1="937.95" x2="1984.97" y2="1171.9" gradientUnits="userSpaceOnUse"><stop offset="0" stop-color="#424242"/><stop offset="0.12" stop-color="#474747"/><stop offset="0.28" stop-color="#575757"/><stop offset="0.45" stop-color="#707070"/><stop offset="0.63" stop-color="#939393"/><stop offset="0.81" stop-color="silver"/><stop offset="1" stop-color="#f4f4f4"/></linearGradient><linearGradient id="linear-gradient-16" x1="1921.64" y1="1208.98" x2="1536.15" y2="890.7" xlink:href="#linear-gradient-15"/><linearGradient id="linear-gradient-17" x1="1432.43" y1="1240.48" x2="1885.04" y2="1240.48" gradientUnits="userSpaceOnUse"><stop offset="0" stop-color="#6b6b6b"/><stop offset="0.14" stop-color="#707070"/><stop offset="0.32" stop-color="gray"/><stop offset="0.52" stop-color="#999"/><stop offset="0.73" stop-color="#bcbcbc"/><stop offset="0.95" stop-color="#e9e9e9"/><stop offset="1" stop-color="#f4f4f4"/></linearGradient><linearGradient id="linear-gradient-18" x1="1432.55" y1="1284.8" x2="1708.58" y2="1284.8" xlink:href="#linear-gradient-15"/><linearGradient id="linear-gradient-19" x1="1933.23" y1="1318.22" x2="1191.43" y2="1081.09" xlink:href="#linear-gradient-17"/><linearGradient id="linear-gradient-20" x1="1395.25" y1="1185.09" x2="1962.07" y2="1282.72" xlink:href="#linear-gradient-15"/><linearGradient id="linear-gradient-21" x1="1405.54" y1="1180.83" x2="1749.8" y2="1227.12" xlink:href="#linear-gradient-15"/><linearGradient id="linear-gradient-22" x1="1435.73" y1="1243.5" x2="1510.78" y2="1243.5" gradientTransform="matrix(1, 0, 0, 1, 0, 0)" xlink:href="#linear-gradient-6"/><linearGradient id="linear-gradient-23" x1="1224.38" y1="1405.05" x2="1510.78" y2="1405.05" gradientTransform="matrix(1, 0, 0, 1, 0, 0)" xlink:href="#linear-gradient"/><linearGradient id="linear-gradient-24" x1="1448.61" y1="1408.99" x2="1683.56" y2="1408.99" gradientTransform="matrix(1, 0, 0, 1, 0, 0)" xlink:href="#linear-gradient-6"/><linearGradient id="linear-gradient-25" x1="1804.66" y1="1470.23" x2="1937.34" y2="1470.23" xlink:href="#linear-gradient-2"/><linearGradient id="linear-gradient-26" x1="2030.99" y1="1386.93" x2="1737.39" y2="1427.3" gradientUnits="userSpaceOnUse"><stop offset="0" stop-color="#ffb888"/><stop offset="1" stop-color="#fff"/></linearGradient><linearGradient id="linear-gradient-27" x1="1496.3" y1="1213.46" x2="1667.58" y2="1213.46" xlink:href="#linear-gradient-2"/><linearGradient id="linear-gradient-28" x1="1496.3" y1="1254.27" x2="1667.58" y2="1254.27" xlink:href="#linear-gradient-2"/><linearGradient id="linear-gradient-29" x1="1804.66" y1="1371.75" x2="1937.34" y2="1371.75" xlink:href="#linear-gradient-2"/><linearGradient id="linear-gradient-30" x1="2030.99" y1="1288.45" x2="1737.39" y2="1328.82" xlink:href="#linear-gradient-26"/><linearGradient id="linear-gradient-31" x1="1496.3" y1="1114.98" x2="1667.58" y2="1114.98" xlink:href="#linear-gradient-2"/><linearGradient id="linear-gradient-32" x1="1496.3" y1="1155.79" x2="1667.58" y2="1155.79" xlink:href="#linear-gradient-2"/><linearGradient id="linear-gradient-33" x1="717.08" y1="1864.81" x2="868.84" y2="1864.81" gradientTransform="matrix(1, 0, 0, 1, 0, 0)" xlink:href="#linear-gradient"/><linearGradient id="linear-gradient-34" x1="819.45" y1="1789.22" x2="566.98" y2="1668.9" gradientUnits="userSpaceOnUse"><stop offset="0" stop-color="#f3f7ff"/><stop offset="1" stop-color="#cdd9ff"/></linearGradient><linearGradient id="linear-gradient-35" x1="584.27" y1="1740.44" x2="849.92" y2="1740.44" gradientUnits="userSpaceOnUse"><stop offset="0" stop-color="#f5995b"/><stop offset="1" stop-color="#fb5f5c"/></linearGradient><linearGradient id="linear-gradient-36" x1="565.25" y1="1864.81" x2="717.11" y2="1864.81" gradientTransform="matrix(1, 0, 0, 1, 0, 0)" xlink:href="#linear-gradient"/><linearGradient id="linear-gradient-37" x1="441.04" y1="1647.55" x2="717.11" y2="1647.55" xlink:href="#linear-gradient-13"/><linearGradient id="linear-gradient-38" x1="565.24" y1="1605.59" x2="731.33" y2="1605.59" xlink:href="#linear-gradient-13"/><linearGradient id="linear-gradient-39" x1="690.93" y1="1529.11" x2="943.74" y2="1529.11" xlink:href="#linear-gradient-13"/><linearGradient id="linear-gradient-40" x1="947.4" y1="1553.75" x2="655.17" y2="1646.15" xlink:href="#linear-gradient-13"/><linearGradient id="linear-gradient-41" x1="717.11" y1="1666.32" x2="1074.34" y2="1666.32" xlink:href="#linear-gradient-13"/><linearGradient id="linear-gradient-42" x1="653.72" y1="1814.53" x2="846.47" y2="1814.53" xlink:href="#linear-gradient-13"/></defs><path class="cls-1" d="M2077.1,336.51c0-62.76,81.36-113.63,181.72-113.63s181.73,50.87,181.73,113.63-81.36,113.63-181.73,113.63c-61.18,0-115.3-18.91-148.24-47.89l-33.48,87V344.85l.52.32A71.27,71.27,0,0,1,2077.1,336.51Z" transform="translate(-441.04 -222.88)"/><rect class="cls-2" x="1710.6" y="62.66" width="220.9" height="16.87"/><rect class="cls-3" x="1710.6" y="105.2" width="220.9" height="16.87"/><rect class="cls-4" x="1710.6" y="147.73" width="144.91" height="16.87"/><path class="cls-5" d="M1286.14,758.73c0-62.75-81.37-113.63-181.73-113.63S922.69,696,922.69,758.73s81.36,113.63,181.72,113.63c61.18,0,115.31-18.91,148.24-47.89l33.49,87V767.07l-.53.32A71.27,71.27,0,0,0,1286.14,758.73Z" transform="translate(-441.04 -222.88)"/><rect class="cls-6" x="990.7" y="707.76" width="220.9" height="16.87" transform="translate(1761.25 1209.51) rotate(180)"/><rect class="cls-7" x="990.7" y="750.3" width="220.9" height="16.87" transform="translate(1761.25 1294.58) rotate(180)"/><rect class="cls-8" x="990.7" y="792.83" width="144.91" height="16.87" transform="translate(1685.26 1379.65) rotate(180)"/><path class="cls-9" d="M1907.92,1226.36s-50.32,28.18-50.32,47.62,10.66,54,46.43,23.59,61-51.39,67.78-65.14,8.33-19.48-9.16-37-26.64,5-33.08,19.11S1907.92,1226.36,1907.92,1226.36Z" transform="translate(-441.04 -222.88)"/><path class="cls-10" d="M1881.67,1116s29.14,53.69,34.83,69.11,6.58,25.71-2.55,34.87-21.12,22-10.57,35.09,32.54-8,45.41-28.26,18.54-20.27,12.28-36-16.48-49-17.81-68.09-4.48-35-9.32-39.86S1881.67,1116,1881.67,1116Z" transform="translate(-441.04 -222.88)"/><path class="cls-9" d="M1840.25,858.75s-18.82,81.64-9.1,139.33,21.68,73.67,34.24,91.39,12.25,28,12.25,28,20.72,13,41.24-1.53,24.38-25.48,24.38-25.48-19.59-53.53-19.59-89.21S1937.91,929,1937.91,929l-16.56-49.13S1840.25,839.33,1840.25,858.75Z" transform="translate(-441.04 -222.88)"/><path class="cls-9" d="M1966.37,1296.43s-35.86,26.94-45.9,42.39-2,41.38,33.17,37.07,62-40.25,77.39-60.83,3.63-40-.48-60.24S1966.37,1296.43,1966.37,1296.43Z" transform="translate(-441.04 -222.88)"/><path class="cls-10" d="M1993.52,1195.52s2.3,58.25-5.35,72.34-32.55,33.71-23.62,42.66,39.63,12.28,55.34-10,8.56-34.56,11.42-56,15.14-52.07,12.84-67.66S1993.52,1195.52,1993.52,1195.52Z" transform="translate(-441.04 -222.88)"/><path class="cls-11" d="M1918.88,899.29s13,109.64,34.3,166,36.91,111.15,36.91,121v11.06s9.5,11,26.65,3.8S2048,1180.3,2048,1180.3s3.43-63.22-4.93-124.9-4.62-132.53-13-156.88S1918.88,899.29,1918.88,899.29Z" transform="translate(-441.04 -222.88)"/><path class="cls-12" d="M1990.46,933.59s40.48,4.17,44.62,0l4.17-4.2-6.92-49.52Z" transform="translate(-441.04 -222.88)"/><path class="cls-13" d="M1889,489.21s-39.55,3.52-43.63,60.53,0,75.4,0,75.4l92.5-82.8Z" transform="translate(-441.04 -222.88)"/><path class="cls-14" d="M2068.13,607.65c-6.84-19.51-14.89-34.24-24-45.81a121.63,121.63,0,0,0-29.34-27.28c-21.29-14.49-113.94-33.31-113.94-33.31s-39.5,38.2-44.07,70.83-30.84,34.8-16,72.49S1862,712,1855.69,755.38s-26.27,90.22-16.56,112.48,67.35,46.87,86.25,49.7,66,16.12,66,16.12,22.27-10,36.36-31.74c1.7-2.59,3.8-5.75,6.23-9.31-3.11-19.06-8.62-46.67-8.62-46.67l12.47-7.53c12.42-7.52,44.64-44.07,44.64-44.07s.16.32.41.93a86.85,86.85,0,0,0,2-17.85C2084.93,733.28,2081.85,646.47,2068.13,607.65ZM2010.7,827.22c6.23-5.42,4.57-28.69-.24-61.56-3.52-23.72-4.94-54.92-2.51-63.1,1.21-4.16,3.11-2.26,5.34,10,0,0,14.29,74.27,14.29,89.08C2027.58,815.57,2012.48,826,2010.7,827.22Z" transform="translate(-441.04 -222.88)"/><polygon class="cls-15" points="1414.08 423.53 1470.36 456.02 1414.08 450.44 1360.56 481.34 1304.28 448.85 1357.8 417.95 1414.08 423.53"/><polygon class="cls-16" points="1464.58 454.17 1413.96 449.11 1413.77 449.11 1360.58 479.86 1306.82 448.85 1358.08 419.24 1413.96 424.82 1464.58 454.17"/><polygon class="cls-17" points="1413.96 424.82 1413.96 449.11 1413.77 449.11 1360.58 479.86 1306.82 448.85 1358.08 419.24 1413.96 424.82"/><polygon class="cls-18" points="1352.98 415.44 1352.98 561.89 1449.39 506.22 1449.39 359.77 1352.98 415.44"/><polygon class="cls-16" points="1360.56 694.69 1304.28 662.2 1304.28 448.85 1360.56 481.34 1360.56 694.69"/><polygon class="cls-19" points="1351.18 504.08 1313.66 482.42 1313.66 474.3 1351.18 495.96 1351.18 504.08"/><polygon class="cls-19" points="1351.18 517.28 1313.66 495.62 1313.66 487.5 1351.18 509.16 1351.18 517.28"/><polygon class="cls-19" points="1351.18 530.48 1313.66 508.82 1313.66 500.7 1351.18 522.36 1351.18 530.48"/><polygon class="cls-19" points="1351.18 543.68 1313.66 522.02 1313.66 513.9 1351.18 535.56 1351.18 543.68"/><polygon class="cls-19" points="1346.08 669.08 1318.76 653.31 1318.76 645.18 1346.08 660.96 1346.08 669.08"/><polygon class="cls-19" points="1351.18 641.09 1313.66 619.42 1313.66 544.84 1351.18 566.5 1351.18 641.09"/><polygon class="cls-17" points="1470.36 631.29 1470.36 456.02 1414.08 450.43 1414.08 450.44 1360.56 481.34 1360.56 694.69 1416.84 662.2 1416.84 662.19 1470.36 631.29"/><g class="cls-20"><path class="cls-19" d="M1820,885.66V714.86l39.2-22.63,33.75,3.36V843.54Zm1.6-169.88V882.89l69.76-40.28V697l-31.8-3.17Z" transform="translate(-441.04 -222.88)"/></g><polygon class="cls-21" points="1352.98 476.98 1352.98 415.44 1325.78 399.73 1325.78 461.28 1352.98 476.98"/><polygon class="cls-19" points="1449.39 359.77 1352.98 415.44 1325.78 399.73 1422.19 344.06 1449.39 359.77"/><path class="cls-10" d="M1930,832s-12.79-1.13-19.62-7.23-38.87-8.32-48-10.07-18.79-4.89-18.34,2.77,12.37,9,21.83,11.87,16.67,6.19,9.2,10.5-16.07,4-27.92,9.26-37.14,5.52-40.73,9.54-4,6-4,6,15,1.28,24,.76,12.74-1.84,12.74-1.84-31.68,3.08-35.52,6-1.82,7.57,5.58,8.06,13.94.22,13.94.22-6.83,2.33-6.59,6.35,8.6,4,12.94,3.73,9.5-.33,9.5-.33-2,4.87,3.36,6.27,23,1,46.79-8.41,37.49-22.35,48.5-23,14-5,14-5Z" transform="translate(-441.04 -222.88)"/><path class="cls-22" d="M1906.7,499.11s4.76,25.31-5.7,35.77c0,0-2.7,24.41,28.57,30.11s56-18.66,56-18.66l-18.77-70Z" transform="translate(-441.04 -222.88)"/><path class="cls-10" d="M1898.36,330.84s-37.73,49.46-33.53,74.21,1.53,48,8.36,62.85,12.22,46.82,34.67,41.1,52.33-12.56,58.9-32.71S1936.4,319,1898.36,330.84Z" transform="translate(-441.04 -222.88)"/><path class="cls-23" d="M1896.23,325.88s-30.11,95.18,19.78,108.5,51.45,50.92,44.62,86.69,14.64,40.09,52.68,28.67,35.8-40.34,22.08-82.21-6.09-62.48-6.09-94.43S1960.41,253.5,1896.23,325.88Z" transform="translate(-441.04 -222.88)"/><path class="cls-23" d="M1916.05,311.62s-52.38,12.53-61.48,73.64,14.58,102,28.11,106.93c0,0-19.62-58.77-7.63-78.76s41-13.88,41-35.59Z" transform="translate(-441.04 -222.88)"/><path class="cls-24" d="M2068.13,607.65c-6.84-19.51-14.89-34.24-24-45.81a60.75,60.75,0,0,0-5.71,4s-44,22.1-30.51,136.76c1.21-4.16,3.11-2.26,5.34,10,0,0,9.35,44.48,12.34,67.51,0,22.06-97.74,47.27-97.74,47.27s-3.08,31.49,7.2,41.21c7.82,7.44,29.55,2.34,55.66-3.69,8.09-1.86,16.59-3.84,25.25-5.54,32.87-6.44,54.84-30,61.85-46.47a1.42,1.42,0,0,1,.16-.36,29.92,29.92,0,0,0,1.5-4.49,1.23,1.23,0,0,0,.12-.37c0-.08,0-.16,0-.24,3.28-10.28,5.26-20.44,5.26-29.91v-2.35C2084.81,730.29,2081.61,645.78,2068.13,607.65Z" transform="translate(-441.04 -222.88)"/><polygon class="cls-25" points="790.03 1323.39 757.08 1342.35 757.08 959.57 790.03 940.57 790.03 1323.39"/><polygon class="cls-26" points="724.17 1323.39 757.08 1342.35 757.08 959.57 724.17 940.57 724.17 1323.39"/><polygon class="cls-27" points="724.17 942.21 1539.2 1412.79 1963.15 1168.05 1963.15 1135.28 724.17 909.43 724.17 942.21"/><polygon class="cls-28" points="724.17 909.43 1539.2 1379.97 1963.15 1135.28 1148.08 664.66 724.17 909.43"/><polygon class="cls-25" points="1963.15 1550.88 1930.2 1569.83 1930.2 1187.06 1963.15 1168.05 1963.15 1550.88"/><polygon class="cls-26" points="1897.31 1550.88 1930.2 1569.83 1930.25 1187.06 1897.31 1168.05 1897.31 1550.88"/><polygon class="cls-29" points="1897.76 1373.64 1506.97 1599.28 1506.74 1637.39 1930.72 1392.65 1897.76 1373.64"/><polygon class="cls-30" points="1539.2 1379.97 1539.2 1412.79 1963.15 1168.05 1963.15 1135.28 1539.2 1379.97"/><polygon class="cls-25" points="1539.2 1618.66 1539.2 1651.5 1963.15 1406.7 1963.15 1373.94 1539.2 1618.66"/><polygon class="cls-25" points="1572.14 1776.61 1539.2 1795.57 1539.2 1412.79 1572.14 1393.79 1572.14 1776.61"/><polygon class="cls-26" points="1506.28 1776.61 1539.2 1795.57 1539.2 1412.79 1506.28 1393.79 1506.28 1776.61"/><polygon class="cls-31" points="1044.01 793.03 1212.03 888.4 1322.21 823.05 1179.96 739.94 1044.01 793.03"/><polygon class="cls-15" points="1113.16 530.07 1169.44 562.56 1113.16 556.98 1059.64 587.88 1003.37 555.39 1056.89 524.49 1113.16 530.07"/><polygon class="cls-32" points="1163.67 560.7 1113.04 555.64 1112.85 555.64 1059.66 586.4 1005.9 555.39 1057.17 525.78 1113.04 531.36 1163.67 560.7"/><polygon class="cls-17" points="1113.04 531.36 1113.04 555.64 1112.85 555.64 1059.66 586.4 1005.9 555.39 1057.17 525.78 1113.04 531.36"/><polygon class="cls-18" points="1052.07 521.97 1052.07 668.43 1148.48 612.76 1148.47 466.3 1052.07 521.97"/><polygon class="cls-16" points="1059.64 801.23 1003.37 768.74 1003.37 555.39 1059.64 587.88 1059.64 801.23"/><polygon class="cls-19" points="1050.26 610.62 1012.75 588.96 1012.75 580.84 1050.26 602.5 1050.26 610.62"/><polygon class="cls-19" points="1050.26 623.82 1012.75 602.16 1012.75 594.04 1050.26 615.7 1050.26 623.82"/><polygon class="cls-19" points="1050.26 637.02 1012.75 615.36 1012.75 607.24 1050.26 628.9 1050.26 637.02"/><polygon class="cls-19" points="1050.26 650.22 1012.75 628.56 1012.75 620.43 1050.26 642.1 1050.26 650.22"/><polygon class="cls-19" points="1045.16 775.61 1017.85 759.84 1017.85 751.72 1045.16 767.49 1045.16 775.61"/><polygon class="cls-19" points="1050.26 747.62 1012.75 725.96 1012.75 651.37 1050.26 673.03 1050.26 747.62"/><polygon class="cls-17" points="1169.44 737.83 1169.44 562.56 1113.16 556.97 1113.16 556.98 1059.64 587.88 1059.65 801.23 1115.92 768.74 1115.92 768.73 1169.44 737.83"/><g class="cls-20"><path class="cls-19" d="M1519.11,992.2V821.39l39.2-22.62,33.75,3.35v148Zm1.6-169.88v167.1l69.75-40.27V803.57l-31.79-3.16Z" transform="translate(-441.04 -222.88)"/></g><polygon class="cls-21" points="1052.07 583.52 1052.07 521.97 1024.87 506.27 1024.87 567.81 1052.07 583.52"/><polygon class="cls-19" points="1148.47 466.3 1052.07 521.97 1024.87 506.27 1121.27 450.6 1148.47 466.3"/><polygon class="cls-15" points="1023.66 565.63 1059.66 586.4 1113.04 555.64 1148.48 559.18 1154.95 561.12 1113.16 556.98 1059.64 587.88 1014.71 561.93 1023.66 565.63"/><polygon class="cls-15" points="1177.78 567.69 1234.06 600.18 1177.78 594.6 1124.26 625.5 1067.98 593.01 1121.51 562.11 1177.78 567.69"/><polygon class="cls-16" points="1228.28 598.33 1177.66 593.27 1177.47 593.27 1124.28 624.03 1070.52 593.01 1121.78 563.41 1177.66 568.98 1228.28 598.33"/><polygon class="cls-17" points="1177.66 568.98 1177.66 593.27 1177.47 593.27 1124.28 624.03 1070.52 593.01 1121.78 563.41 1177.66 568.98"/><polygon class="cls-18" points="1116.68 559.6 1116.68 706.05 1213.09 650.38 1213.09 503.93 1116.68 559.6"/><polygon class="cls-16" points="1124.26 838.86 1067.98 806.37 1067.98 593.01 1124.26 625.5 1124.26 838.86"/><polygon class="cls-19" points="1114.88 648.25 1077.36 626.59 1077.37 618.46 1114.88 640.12 1114.88 648.25"/><polygon class="cls-19" points="1114.88 661.45 1077.36 639.78 1077.36 631.66 1114.88 653.32 1114.88 661.45"/><polygon class="cls-19" points="1114.88 674.64 1077.36 652.99 1077.36 644.86 1114.88 666.52 1114.88 674.64"/><polygon class="cls-19" points="1114.88 687.84 1077.36 666.18 1077.36 658.06 1114.88 679.72 1114.88 687.84"/><polygon class="cls-19" points="1109.78 813.24 1082.46 797.47 1082.46 789.35 1109.78 805.12 1109.78 813.24"/><polygon class="cls-19" points="1114.88 785.25 1077.36 763.59 1077.36 689 1114.88 710.66 1114.88 785.25"/><polygon class="cls-17" points="1234.06 775.46 1234.06 600.18 1177.78 594.59 1177.78 594.6 1124.26 625.5 1124.26 838.86 1180.54 806.37 1180.54 806.35 1234.06 775.46"/><g class="cls-20"><path class="cls-19" d="M1583.72,1029.82V859l39.2-22.63,33.75,3.36v148ZM1585.33,860v167.1l69.75-40.28V841.2l-31.8-3.16Z" transform="translate(-441.04 -222.88)"/></g><polygon class="cls-21" points="1116.68 621.14 1116.68 559.6 1089.48 543.9 1089.48 605.44 1116.68 621.14"/><polygon class="cls-19" points="1213.09 503.93 1116.68 559.6 1089.48 543.9 1185.89 488.23 1213.09 503.93"/><polygon class="cls-15" points="1088.27 603.25 1124.28 624.03 1177.66 593.27 1213.09 596.81 1219.57 598.74 1177.78 594.6 1124.26 625.5 1079.32 599.56 1088.27 603.25"/><path class="cls-33" d="M1618,1079.69c0,7.31,5.14,16.18,11.45,19.82l257.15,153.12c4.85,2.13,14.16-2.39,14.16-9.68V1058c0-7.29-5.14-16.16-11.45-19.81l-259.85-150c-6.32-3.65-16.13.11-16.37,7.61Z" transform="translate(-441.04 -222.88)"/><path class="cls-34" d="M1613.07,1081.76c0,7.29,5.12,16.16,11.43,19.81l259.86,150c6.32,3.67,11.45.7,11.45-6.6V1060.11c0-7.31-5.13-16.18-11.44-19.82l-259.87-150c-6.31-3.65-11.42-.7-11.42,6.59Z" transform="translate(-441.04 -222.88)"/><path class="cls-19" d="M1886,1060.09v181.16L1629.4,1093.12c-3.31-1.95-6.54-7.53-6.54-11.34V900.59l256.62,148.17C1882.79,1050.67,1886,1056.29,1886,1060.09Z" transform="translate(-441.04 -222.88)"/><path class="cls-35" d="M1432.55,1208.55v6.27l0-5.72c.22,2.2,1.78,4.4,4.7,6.07l259.87,150a25.15,25.15,0,0,0,22.87,0l160.13-92.43c6.3-3.65,4.72-13.85,4.72-13.85l-264.59-143.15c-6.31-3.64-16.55-3.64-22.87,0l-156.82,90.56-5.8-9.4c-1.39.82-2,2.73-2.19,4.79a1.35,1.35,0,0,0,0,.29A50.08,50.08,0,0,0,1432.55,1208.55Z" transform="translate(-441.04 -222.88)"/><path class="cls-36" d="M1432.55,1201.67v13.15l0-5.72c.22,2.2,1.78,4.4,4.7,6.07l259.87,150a23.19,23.19,0,0,0,11.44,2.75V1361l-268-154.72-8-4.61Z" transform="translate(-441.04 -222.88)"/><path class="cls-37" d="M1437.28,1195.08c-6.31,3.63-6.31,9.56,0,13.2l259.86,150c6.31,3.63,16.55,3.63,22.87,0l160.13-92.48c6.31-3.64,6.31-9.54,0-13.19l-259.86-150c-6.32-3.63-16.56-3.63-22.88,0Z" transform="translate(-441.04 -222.88)"/><path class="cls-38" d="M1708.58,1357.13a19.53,19.53,0,0,0,9.48-2.21l160.12-92.45c1.73-1,2.78-2.21,2.78-3.21s-1-2.22-2.78-3.21l-259.85-150a21.29,21.29,0,0,0-19,0l-160.12,92.45c-1.74,1-2.78,2.21-2.78,3.2s1,2.22,2.78,3.23l259.85,150A19.57,19.57,0,0,0,1708.58,1357.13Z" transform="translate(-441.04 -222.88)"/><path class="cls-39" d="M1458.41,1193.24c-7.88,4.55-8,11.81-.35,16.24l237,136.82c7.68,4.45,20.3,4.36,28.16-.18L1859,1267.7c7.86-4.53,8-11.82.33-16.26l-237-136.81c-7.67-4.44-20.28-4.35-28.14.19Z" transform="translate(-441.04 -222.88)"/><path class="cls-40" d="M1526.93,1164.1c-7.59,4.42-7.59,11.51,0,15.91l215.82,124.59c7.61,4.4,19.93,4.4,27.53,0l58.58-33.82c7.61-4.39,7.61-11.5,0-15.89l-215.81-124.61c-7.59-4.37-19.92-4.37-27.51,0Z" transform="translate(-441.04 -222.88)"/><path class="cls-41" d="M1756.52,1307.91a26.37,26.37,0,0,1-13-3.1l-215.81-124.59c-3.16-1.83-4.9-4.16-4.9-6.56s1.74-4.75,4.9-6.58l58.6-33.83a28.91,28.91,0,0,1,25.93,0l215.8,124.6c3.18,1.84,4.92,4.16,4.92,6.57s-1.74,4.74-4.91,6.57l-58.59,33.82A26.32,26.32,0,0,1,1756.52,1307.91Z" transform="translate(-441.04 -222.88)"/><path class="cls-41" d="M1612.12,1121.33a1,1,0,0,0,0,1.94l25.82,14.93a3.79,3.79,0,0,0,3.38,0h0a1,1,0,0,0,0-2l-25.82-14.91a3.67,3.67,0,0,0-3.38,0Z" transform="translate(-441.04 -222.88)"/><path class="cls-42" d="M1808.81,1257.11c-1.44.82-1.57,2.07-.34,2.8l7,4a5.4,5.4,0,0,0,4.83-.2l2.57-1.49c1.43-.83,1.59-2.09.34-2.78l-7-4a5.29,5.29,0,0,0-4.81.19Z" transform="translate(-441.04 -222.88)"/><path class="cls-42" d="M1795.76,1249.57c-1.42.82-1.58,2.07-.34,2.78l6.94,4a5.47,5.47,0,0,0,4.85-.19l2.57-1.49c1.41-.83,1.57-2.08.34-2.79l-7-4a5.35,5.35,0,0,0-4.82.19Z" transform="translate(-441.04 -222.88)"/><path class="cls-42" d="M1782.71,1242c-1.43.82-1.57,2.06-.34,2.79l6.94,4a5.42,5.42,0,0,0,4.84-.18l2.56-1.51c1.44-.83,1.58-2.06.35-2.77l-7-4a5.23,5.23,0,0,0-4.81.18Z" transform="translate(-441.04 -222.88)"/><path class="cls-42" d="M1769.65,1234.49c-1.42.82-1.57,2.07-.34,2.78l6.94,4a5.35,5.35,0,0,0,4.84-.18l2.59-1.48c1.42-.83,1.57-2.08.32-2.8l-6.94-4a5.34,5.34,0,0,0-4.83.21Z" transform="translate(-441.04 -222.88)"/><path class="cls-42" d="M1756.61,1227c-1.44.84-1.59,2.08-.35,2.8l7,4a5.27,5.27,0,0,0,4.81-.2l2.59-1.48c1.42-.83,1.57-2.08.33-2.8l-7-4a5.32,5.32,0,0,0-4.82.2Z" transform="translate(-441.04 -222.88)"/><path class="cls-42" d="M1743.55,1219.41c-1.43.84-1.57,2.08-.33,2.8l6.94,4a5.37,5.37,0,0,0,4.83-.2l2.58-1.48c1.42-.82,1.57-2.08.33-2.79l-6.94-4a5.37,5.37,0,0,0-4.83.2Z" transform="translate(-441.04 -222.88)"/><path class="cls-42" d="M1730.49,1211.87c-1.41.85-1.58,2.08-.33,2.78l6.94,4a5.43,5.43,0,0,0,4.83-.19l2.58-1.5c1.43-.82,1.58-2.06.34-2.78l-6.95-4a5.4,5.4,0,0,0-4.83.21Z" transform="translate(-441.04 -222.88)"/><path class="cls-42" d="M1717.45,1204.35c-1.42.82-1.58,2.06-.34,2.78l7,4a5.35,5.35,0,0,0,4.82-.21l2.58-1.48c1.43-.82,1.59-2.07.33-2.79l-6.94-4a5.43,5.43,0,0,0-4.83.19Z" transform="translate(-441.04 -222.88)"/><path class="cls-42" d="M1704.4,1196.82c-1.43.82-1.58,2.06-.34,2.77l6.94,4a5.37,5.37,0,0,0,4.83-.19l2.57-1.48c1.43-.84,1.58-2.08.34-2.8l-6.94-4a5.47,5.47,0,0,0-4.83.2Z" transform="translate(-441.04 -222.88)"/><path class="cls-42" d="M1691.34,1189.27c-1.43.83-1.58,2.08-.33,2.8l6.93,4a5.4,5.4,0,0,0,4.83-.19l2.57-1.48c1.44-.84,1.58-2.09.35-2.79l-6.94-4a5.34,5.34,0,0,0-4.82.18Z" transform="translate(-441.04 -222.88)"/><path class="cls-42" d="M1678.28,1181.75c-1.42.81-1.57,2.07-.33,2.79l7,4a5.38,5.38,0,0,0,4.82-.22l2.58-1.47c1.43-.83,1.57-2.09.34-2.79l-7-4a5.4,5.4,0,0,0-4.83.2Z" transform="translate(-441.04 -222.88)"/><path class="cls-42" d="M1665.23,1174.21c-1.43.81-1.57,2.06-.33,2.76l6.94,4a5.36,5.36,0,0,0,4.84-.2l2.56-1.49c1.44-.81,1.59-2.07.33-2.77l-6.94-4a5.23,5.23,0,0,0-4.82.2Z" transform="translate(-441.04 -222.88)"/><path class="cls-42" d="M1652.17,1166.66c-1.41.83-1.56,2.08-.33,2.8l7,4a5.47,5.47,0,0,0,4.83-.2l2.58-1.5c1.42-.82,1.58-2.08.33-2.78l-6.94-4a5.34,5.34,0,0,0-4.83.21Z" transform="translate(-441.04 -222.88)"/><path class="cls-42" d="M1639.13,1159.14c-1.43.82-1.58,2.06-.33,2.79l6.93,4a5.4,5.4,0,0,0,4.83-.19l2.58-1.49c1.42-.83,1.58-2.06.34-2.79l-7-4a5.32,5.32,0,0,0-4.81.19Z" transform="translate(-441.04 -222.88)"/><path class="cls-42" d="M1626.08,1151.58c-1.43.83-1.58,2.08-.34,2.81l7,4a5.39,5.39,0,0,0,4.81-.19l2.58-1.49c1.42-.83,1.58-2.08.33-2.78l-6.93-4a5.36,5.36,0,0,0-4.84.21Z" transform="translate(-441.04 -222.88)"/><path class="cls-42" d="M1613,1144.06c-1.42.83-1.58,2.06-.35,2.78l7,4a5.34,5.34,0,0,0,4.82-.18l2.58-1.5c1.43-.81,1.58-2.06.34-2.78l-6.94-4a5.22,5.22,0,0,0-4.83.2Z" transform="translate(-441.04 -222.88)"/><path class="cls-42" d="M1600,1136.53c-1.42.81-1.58,2.06-.34,2.77l7,4a5.32,5.32,0,0,0,4.82-.2l2.56-1.48c1.45-.81,1.59-2.06.36-2.77l-6.95-4a5.34,5.34,0,0,0-4.83.21Z" transform="translate(-441.04 -222.88)"/><path class="cls-42" d="M1793.75,1261.06c-1.93,1.11-2.15,2.81-.46,3.78l9.45,5.44a7.15,7.15,0,0,0,6.55-.26l3.5-2c1.94-1.12,2.15-2.81.47-3.78l-9.44-5.45a7.31,7.31,0,0,0-6.57.26Z" transform="translate(-441.04 -222.88)"/><path class="cls-42" d="M1776.68,1251.21c-1.92,1.11-2.13,2.81-.45,3.79l9.44,5.45a7.21,7.21,0,0,0,6.56-.28l3.5-2c1.94-1.11,2.15-2.82.45-3.78l-9.44-5.45a7.22,7.22,0,0,0-6.54.26Z" transform="translate(-441.04 -222.88)"/><path class="cls-42" d="M1759.61,1241.37c-1.92,1.1-2.13,2.8-.44,3.77l9.44,5.46a7.36,7.36,0,0,0,6.56-.26l3.51-2c1.92-1.12,2.14-2.82.45-3.78l-9.44-5.44a7.26,7.26,0,0,0-6.56.26Z" transform="translate(-441.04 -222.88)"/><path class="cls-42" d="M1742.57,1231.5c-1.93,1.12-2.15,2.81-.47,3.79l9.44,5.46a7.36,7.36,0,0,0,6.56-.26l3.51-2c1.93-1.12,2.15-2.81.47-3.8l-9.46-5.45a7.34,7.34,0,0,0-6.55.26Z" transform="translate(-441.04 -222.88)"/><path class="cls-42" d="M1725.5,1221.65c-1.94,1.12-2.14,2.82-.46,3.79l9.45,5.45a7.29,7.29,0,0,0,6.56-.26l3.5-2c1.94-1.13,2.14-2.82.45-3.8l-9.44-5.45a7.25,7.25,0,0,0-6.55.28Z" transform="translate(-441.04 -222.88)"/><path class="cls-42" d="M1708.44,1211.8c-1.93,1.13-2.15,2.81-.45,3.79l9.43,5.45a7.26,7.26,0,0,0,6.56-.26l3.51-2c1.94-1.12,2.14-2.81.46-3.79l-9.45-5.45a7.29,7.29,0,0,0-6.56.26Z" transform="translate(-441.04 -222.88)"/><path class="cls-42" d="M1691.38,1202c-1.93,1.11-2.15,2.8-.46,3.77l9.45,5.45a7.21,7.21,0,0,0,6.55-.26l3.5-2c1.94-1.11,2.15-2.81.45-3.79l-9.43-5.45a7.31,7.31,0,0,0-6.55.27Z" transform="translate(-441.04 -222.88)"/><path class="cls-42" d="M1674.32,1192.1c-2,1.13-2.14,2.82-.46,3.8l9.45,5.43a7.27,7.27,0,0,0,6.55-.25l3.51-2c1.93-1.13,2.14-2.81.46-3.79l-9.46-5.44a7.27,7.27,0,0,0-6.55.26Z" transform="translate(-441.04 -222.88)"/><path class="cls-42" d="M1657.25,1182.25c-1.93,1.11-2.14,2.82-.45,3.78l9.44,5.45a7.35,7.35,0,0,0,6.56-.25l3.51-2c1.94-1.13,2.13-2.81.44-3.79l-9.43-5.44a7.29,7.29,0,0,0-6.56.26Z" transform="translate(-441.04 -222.88)"/><path class="cls-42" d="M1640.2,1172.39c-2,1.13-2.15,2.83-.46,3.79l9.43,5.45a7.29,7.29,0,0,0,6.56-.25l3.52-2c1.92-1.14,2.14-2.82.44-3.81l-9.42-5.45a7.35,7.35,0,0,0-6.57.28Z" transform="translate(-441.04 -222.88)"/><path class="cls-42" d="M1623.14,1162.54c-1.94,1.13-2.15,2.83-.46,3.79l9.44,5.45a7.27,7.27,0,0,0,6.55-.26l3.52-2c1.93-1.13,2.12-2.83.44-3.78l-9.43-5.46a7.26,7.26,0,0,0-6.56.26Z" transform="translate(-441.04 -222.88)"/><path class="cls-42" d="M1606.07,1152.7c-1.94,1.12-2.15,2.81-.46,3.78l9.44,5.45a7.23,7.23,0,0,0,6.56-.26l3.5-2c2-1.13,2.15-2.82.47-3.78l-9.44-5.46a7.34,7.34,0,0,0-6.57.25Z" transform="translate(-441.04 -222.88)"/><path class="cls-42" d="M1589,1142.85c-2,1.12-2.16,2.81-.46,3.79l9.43,5.43a7.15,7.15,0,0,0,6.55-.25l3.52-2c1.93-1.14,2.13-2.83.45-3.79l-9.43-5.46a7.29,7.29,0,0,0-6.56.26Z" transform="translate(-441.04 -222.88)"/><path class="cls-42" d="M1762.7,1257.39c-1.93,1.12-2.14,2.8-.45,3.78l9.44,5.44a7.22,7.22,0,0,0,6.54-.25l3.52-2c1.94-1.14,2.14-2.84.46-3.81l-9.44-5.46a7.29,7.29,0,0,0-6.57.29Z" transform="translate(-441.04 -222.88)"/><path class="cls-42" d="M1745.79,1247.63c-1.93,1.1-2.14,2.81-.46,3.79l9.44,5.45a7.36,7.36,0,0,0,6.56-.29l3.51-2c1.94-1.12,2.13-2.81.45-3.8l-9.44-5.43a7.26,7.26,0,0,0-6.56.25Z" transform="translate(-441.04 -222.88)"/><path class="cls-42" d="M1728.87,1237.84c-1.93,1.13-2.14,2.84-.45,3.8l9.45,5.46a7.37,7.37,0,0,0,6.55-.26l3.5-2c1.94-1.11,2.14-2.82.47-3.78l-9.44-5.47a7.32,7.32,0,0,0-6.57.27Z" transform="translate(-441.04 -222.88)"/><path class="cls-42" d="M1712,1228.1c-1.93,1.11-2.13,2.79-.46,3.77l9.45,5.47a7.28,7.28,0,0,0,6.55-.28l3.51-2c1.94-1.12,2.14-2.8.45-3.78l-9.43-5.45a7.21,7.21,0,0,0-6.55.27Z" transform="translate(-441.04 -222.88)"/><path class="cls-42" d="M1695.05,1218.34c-1.94,1.11-2.14,2.79-.46,3.77l9.44,5.45a7.27,7.27,0,0,0,6.55-.25l3.52-2c1.94-1.13,2.14-2.81.46-3.78l-9.44-5.46a7.37,7.37,0,0,0-6.55.28Z" transform="translate(-441.04 -222.88)"/><path class="cls-42" d="M1678.15,1208.56c-1.94,1.13-2.16,2.81-.47,3.79l9.45,5.45a7.19,7.19,0,0,0,6.54-.28l3.52-2c1.93-1.11,2.14-2.79.46-3.78l-9.44-5.46a7.29,7.29,0,0,0-6.56.27Z" transform="translate(-441.04 -222.88)"/><path class="cls-42" d="M1661.22,1198.8c-1.93,1.12-2.14,2.8-.46,3.77l9.45,5.48a7.35,7.35,0,0,0,6.57-.29l3.5-2c1.94-1.13,2.14-2.83.45-3.78l-9.43-5.46a7.32,7.32,0,0,0-6.56.26Z" transform="translate(-441.04 -222.88)"/><path class="cls-42" d="M1644.31,1189c-1.94,1.11-2.13,2.82-.46,3.78l9.44,5.46a7.31,7.31,0,0,0,6.57-.26l3.5-2c1.94-1.12,2.15-2.82.46-3.78l-9.44-5.45a7.24,7.24,0,0,0-6.55.26Z" transform="translate(-441.04 -222.88)"/><path class="cls-42" d="M1627.4,1179.27c-1.93,1.11-2.14,2.82-.45,3.78l9.44,5.44a7.18,7.18,0,0,0,6.55-.25l3.51-2c1.94-1.12,2.14-2.82.46-3.79l-9.45-5.46a7.31,7.31,0,0,0-6.54.26Z" transform="translate(-441.04 -222.88)"/><path class="cls-42" d="M1610.49,1169.5c-1.93,1.11-2.14,2.82-.45,3.79l9.44,5.46a7.22,7.22,0,0,0,6.55-.29l3.51-2c1.93-1.1,2.14-2.8.45-3.76l-9.43-5.47a7.36,7.36,0,0,0-6.56.27Z" transform="translate(-441.04 -222.88)"/><path class="cls-42" d="M1593.58,1159.75c-1.93,1.1-2.14,2.79-.45,3.78l9.44,5.46a7.34,7.34,0,0,0,6.55-.27l3.5-2c2-1.13,2.15-2.81.47-3.78l-9.45-5.46a7.29,7.29,0,0,0-6.56.26Z" transform="translate(-441.04 -222.88)"/><path class="cls-42" d="M1576.68,1150c-2,1.12-2.15,2.81-.48,3.78l9.45,5.47a7.36,7.36,0,0,0,6.56-.27l3.49-2c1.94-1.13,2.17-2.81.48-3.79l-9.46-5.44a7.25,7.25,0,0,0-6.54.25Z" transform="translate(-441.04 -222.88)"/><path class="cls-42" d="M1746.71,1263.25c-1.94,1.12-2.15,2.84-.46,3.8l9.44,5.44a7.29,7.29,0,0,0,6.56-.25l3.51-2c1.93-1.1,2.14-2.79.44-3.78l-9.42-5.45a7.18,7.18,0,0,0-6.55.28Z" transform="translate(-441.04 -222.88)"/><path class="cls-42" d="M1730.07,1253.66c-2,1.1-2.15,2.78-.46,3.77l9.44,5.47a7.29,7.29,0,0,0,6.54-.28l3.53-2c1.93-1.12,2.12-2.82.45-3.78l-9.45-5.46a7.36,7.36,0,0,0-6.56.26Z" transform="translate(-441.04 -222.88)"/><path class="cls-42" d="M1713.41,1244.05c-1.94,1.11-2.16,2.79-.46,3.77l9.44,5.45a7.26,7.26,0,0,0,6.56-.26l3.51-2c1.93-1.12,2.13-2.82.47-3.79l-9.46-5.45a7.34,7.34,0,0,0-6.55.27Z" transform="translate(-441.04 -222.88)"/><path class="cls-42" d="M1696.77,1234.42c-1.94,1.12-2.14,2.81-.46,3.8l9.44,5.46a7.38,7.38,0,0,0,6.54-.27l3.52-2c1.94-1.12,2.14-2.82.45-3.76l-9.43-5.48a7.33,7.33,0,0,0-6.55.26Z" transform="translate(-441.04 -222.88)"/><path class="cls-42" d="M1680.12,1224.8c-1.94,1.13-2.14,2.83-.46,3.81l9.43,5.45a7.41,7.41,0,0,0,6.57-.27l3.5-2c1.94-1.09,2.14-2.78.46-3.76l-9.44-5.45a7.23,7.23,0,0,0-6.56.27Z" transform="translate(-441.04 -222.88)"/><path class="cls-42" d="M1663.47,1215.21c-1.94,1.12-2.14,2.79-.46,3.77l9.44,5.45a7.26,7.26,0,0,0,6.56-.25l3.5-2c1.94-1.12,2.14-2.81.47-3.77l-9.45-5.44a7.21,7.21,0,0,0-6.55.25Z" transform="translate(-441.04 -222.88)"/><path class="cls-42" d="M1646.83,1205.58c-1.94,1.14-2.15,2.83-.46,3.8l9.44,5.44a7.28,7.28,0,0,0,6.54-.26l3.51-2c2-1.11,2.14-2.81.46-3.76l-9.43-5.48a7.31,7.31,0,0,0-6.57.26Z" transform="translate(-441.04 -222.88)"/><path class="cls-42" d="M1630.18,1196c-1.94,1.11-2.15,2.81-.47,3.78l9.44,5.46a7.31,7.31,0,0,0,6.57-.26l3.49-2c1.94-1.12,2.16-2.82.46-3.78l-9.44-5.46a7.26,7.26,0,0,0-6.54.28Z" transform="translate(-441.04 -222.88)"/><path class="cls-42" d="M1613.54,1186.35c-2,1.14-2.15,2.84-.48,3.79l9.45,5.45a7.23,7.23,0,0,0,6.56-.26l3.5-2c1.94-1.11,2.15-2.82.45-3.78l-9.43-5.45a7.26,7.26,0,0,0-6.56.26Z" transform="translate(-441.04 -222.88)"/><path class="cls-42" d="M1596.88,1176.77c-1.94,1.1-2.15,2.8-.47,3.76l9.46,5.45a7.24,7.24,0,0,0,6.55-.25l3.5-2c1.95-1.11,2.15-2.8.47-3.78l-9.45-5.44a7.33,7.33,0,0,0-6.55.24Z" transform="translate(-441.04 -222.88)"/><path class="cls-42" d="M1580.24,1167.13c-1.94,1.13-2.15,2.83-.46,3.8l9.42,5.45a7.35,7.35,0,0,0,6.57-.27l3.51-2c1.94-1.11,2.14-2.81.45-3.79l-9.44-5.45a7.33,7.33,0,0,0-6.56.27Z" transform="translate(-441.04 -222.88)"/><path class="cls-42" d="M1563.59,1157.54c-1.94,1.11-2.16,2.8-.46,3.78l9.44,5.45a7.37,7.37,0,0,0,6.55-.26l3.51-2c1.94-1.13,2.14-2.84.47-3.8l-9.45-5.45a7.26,7.26,0,0,0-6.56.27Z" transform="translate(-441.04 -222.88)"/><path class="cls-42" d="M1730.72,1269.14c-1.93,1.12-2.15,2.81-.46,3.79l9.44,5.45a7.32,7.32,0,0,0,6.57-.27l3.5-2c1.93-1.11,2.13-2.8.46-3.78l-9.45-5.44a7.27,7.27,0,0,0-6.55.24Z" transform="translate(-441.04 -222.88)"/><path class="cls-42" d="M1713.44,1259.17c-1.94,1.11-2.14,2.81-.46,3.78l9.45,5.46a7.31,7.31,0,0,0,6.55-.28l3.51-2c1.94-1.11,2.15-2.8.46-3.78l-9.44-5.46a7.39,7.39,0,0,0-6.56.26Z" transform="translate(-441.04 -222.88)"/><path class="cls-42" d="M1696.17,1249.19c-1.94,1.12-2.14,2.81-.46,3.8l9.44,5.45a7.33,7.33,0,0,0,6.56-.27l3.51-2c1.93-1.13,2.14-2.81.45-3.79l-9.44-5.45a7.33,7.33,0,0,0-6.56.27Z" transform="translate(-441.04 -222.88)"/><path class="cls-42" d="M1678.89,1239.22c-1.93,1.11-2.14,2.81-.45,3.79l9.43,5.45a7.31,7.31,0,0,0,6.55-.28l3.52-2c1.94-1.11,2.13-2.81.46-3.78l-9.44-5.45a7.33,7.33,0,0,0-6.56.27Z" transform="translate(-441.04 -222.88)"/><path class="cls-42" d="M1661.62,1229.24c-1.94,1.12-2.15,2.81-.46,3.79l9.43,5.46a7.39,7.39,0,0,0,6.56-.27l3.52-2c1.93-1.12,2.14-2.81.45-3.79l-9.44-5.45a7.34,7.34,0,0,0-6.55.27Z" transform="translate(-441.04 -222.88)"/><path class="cls-42" d="M1644.34,1219.27c-1.94,1.14-2.14,2.79-.46,3.77l9.45,5.46a7.28,7.28,0,0,0,6.54-.26l3.52-2c1.93-1.13,2.14-2.83.46-3.8l-9.44-5.45a7.35,7.35,0,0,0-6.56.25Z" transform="translate(-441.04 -222.88)"/><path class="cls-42" d="M1627.06,1209.27c-1.93,1.14-2.14,2.83-.45,3.81l9.44,5.44a7.3,7.3,0,0,0,6.55-.24l3.51-2c1.94-1.12,2.14-2.83.47-3.8l-9.45-5.45a7.31,7.31,0,0,0-6.57.26Z" transform="translate(-441.04 -222.88)"/><path class="cls-42" d="M1609.79,1199.3c-1.94,1.13-2.15,2.83-.45,3.8l9.43,5.45a7.21,7.21,0,0,0,6.55-.27l3.51-2c1.94-1.11,2.16-2.82.46-3.78l-9.44-5.47a7.3,7.3,0,0,0-6.56.28Z" transform="translate(-441.04 -222.88)"/><path class="cls-42" d="M1592.51,1189.35c-1.92,1.12-2.14,2.8-.46,3.78l9.44,5.44a7.26,7.26,0,0,0,6.56-.26l3.5-2c1.94-1.14,2.15-2.82.46-3.81l-9.44-5.45a7.24,7.24,0,0,0-6.55.27Z" transform="translate(-441.04 -222.88)"/><path class="cls-42" d="M1575.23,1179.36c-1.92,1.14-2.14,2.82-.45,3.79l9.44,5.45a7.26,7.26,0,0,0,6.56-.27l3.49-2c2-1.12,2.14-2.81.46-3.79l-9.44-5.46a7.28,7.28,0,0,0-6.55.28Z" transform="translate(-441.04 -222.88)"/><path class="cls-42" d="M1741.55,1291.2c-2,1.13-2.14,2.82-.46,3.79l9.43,5.43a7.25,7.25,0,0,0,6.57-.25l3.51-2c1.92-1.15,2.13-2.83.45-3.8l-9.45-5.45a7.27,7.27,0,0,0-6.55.26Z" transform="translate(-441.04 -222.88)"/><path class="cls-42" d="M1727.35,1283c-2,1.13-2.38,2.7-1,3.5l7.9,4.57c1.4.81,4.12.56,6.06-.55l3.51-2c1.93-1.11,2.35-2.67,1-3.49l-7.91-4.55c-1.41-.82-4.11-.58-6.07.54Z" transform="translate(-441.04 -222.88)"/><path class="cls-42" d="M1713,1274.71c-1.94,1.12-2.37,2.69-1,3.5l7.91,4.56c1.41.82,4.12.57,6-.54l3.51-2c1.94-1.14,2.36-2.7,1-3.51l-7.9-4.57c-1.41-.82-4.12-.56-6.06.56Z" transform="translate(-441.04 -222.88)"/><path class="cls-42" d="M1698.56,1266.37c-1.94,1.14-2.37,2.69-1,3.5l7.9,4.57c1.41.83,4.11.57,6-.56l3.51-2c2-1.11,2.37-2.68,1-3.5l-7.92-4.57c-1.4-.81-4.1-.54-6,.56Z" transform="translate(-441.04 -222.88)"/><path class="cls-42" d="M1583,1199.67c-1.94,1.12-2.36,2.69-1,3.5l7.91,4.56c1.42.82,4.12.57,6.06-.54l3.52-2c1.92-1.1,2.34-2.67.94-3.49l-7.9-4.57c-1.41-.79-4.12-.55-6.06.55Z" transform="translate(-441.04 -222.88)"/><path class="cls-42" d="M1567.4,1190.66c-1.94,1.12-2.37,2.67-1,3.48l7.91,4.57c1.4.82,4.12.57,6.05-.55l3.51-2c1.94-1.09,2.37-2.68,1-3.48l-7.89-4.57c-1.41-.81-4.13-.55-6.07.56Z" transform="translate(-441.04 -222.88)"/><path class="cls-42" d="M1536.8,1173c-1.93,1.11-2.37,2.69-1,3.5l7.9,4.56c1.42.81,4.12.57,6.07-.55l3.49-2c1.93-1.1,2.37-2.66,1-3.48l-7.9-4.57c-1.41-.81-4.12-.56-6.07.55Z" transform="translate(-441.04 -222.88)"/><path class="cls-42" d="M1555.16,1179.89c-.8.46-.3,1.49,1.12,2.32l7.89,4.56c1.41.83,3.21,1.09,4,.64l1.44-.85c.8-.45.3-1.48-1.11-2.29l-7.91-4.57c-1.4-.82-3.19-1.09-4-.63Z" transform="translate(-441.04 -222.88)"/><path class="cls-42" d="M1550.82,1182.4c-.79.47-.29,1.5,1.12,2.31l7.89,4.54c1.42.83,3.21,1.12,4,.65l1.43-.83c.81-.45.31-1.47-1.1-2.3l-7.89-4.56c-1.42-.83-3.22-1.11-4-.64Z" transform="translate(-441.04 -222.88)"/><path class="cls-42" d="M1779.65,1267.17c-1.94,1.12-2,2.88-.11,4l10.51,6.06a7.52,7.52,0,0,0,6.89-.07l3.51-2c1.93-1.12,2-2.91.11-4l-10.5-6.08a7.66,7.66,0,0,0-6.9.05Z" transform="translate(-441.04 -222.88)"/><path class="cls-42" d="M1763.93,1273.2c-1.92,1.13-1.73,3,.42,4.29l12.09,7a8.2,8.2,0,0,0,7.43.23l3.5-2c1.94-1.13,1.76-3-.4-4.29l-12.1-7a8.18,8.18,0,0,0-7.42-.23Z" transform="translate(-441.04 -222.88)"/><path class="cls-42" d="M1748,1279.09c-1.94,1.12-1.49,3.19,1,4.62l13.86,8c2.49,1.42,6.07,1.7,8,.58l3.51-2c1.94-1.1,1.52-3.18-1-4.62l-13.86-8c-2.48-1.43-6-1.68-8-.57Z" transform="translate(-441.04 -222.88)"/><path class="cls-42" d="M1550.5,1165.07c-1.94,1.11-1.52,3.19,1,4.62l13.87,8c2.48,1.44,6,1.68,8,.57l3.5-2c1.93-1.13,1.51-3.19-1-4.63l-13.87-8c-2.48-1.42-6-1.69-8-.56Z" transform="translate(-441.04 -222.88)"/><path class="cls-42" d="M1597.79,1208.93c-2.09,1.17-2.38,2.94-.66,3.94l92.06,53.17a7.63,7.63,0,0,0,6.83-.4l4.78-2.74c2.07-1.21,2.36-3,.65-3.94l-92.07-53.16c-1.7-1-4.76-.83-6.83.35Z" transform="translate(-441.04 -222.88)"/><path class="cls-43" d="M1579.94,1225.76l-35.62,20.56c-2.07,1.19-2.07,3.12,0,4.32l79.44,45.88a8.32,8.32,0,0,0,7.5,0l35.62-20.58c2.06-1.19,2.06-3.1,0-4.31l-79.45-45.87A8.3,8.3,0,0,0,1579.94,1225.76Z" transform="translate(-441.04 -222.88)"/><path class="cls-41" d="M1579.94,1226.87l-35.62,20.55c-2.07,1.19-2.07,3.12,0,4.33l79.44,45.86a8.26,8.26,0,0,0,7.5,0l35.62-20.57c2.06-1.19,2.06-3.1,0-4.31l-79.45-45.86A8.24,8.24,0,0,0,1579.94,1226.87Z" transform="translate(-441.04 -222.88)"/><path class="cls-44" d="M1552.21,1242.93l-7.89,4.55c-2.07,1.19-2.07,3.11,0,4.32l79.44,45.87a8.32,8.32,0,0,0,7.5,0l7.88-4.55Z" transform="translate(-441.04 -222.88)"/><polygon class="cls-45" points="1142.26 1052 1142.79 1052.3 1154.91 1045.28 1154.37 1044.99 1142.26 1052"/><path class="cls-46" d="M1849.7,1285.33V1288a1.63,1.63,0,0,1-.74,1.3l-7.25,4.2a.46.46,0,0,1-.74-.43v-2.66Z" transform="translate(-441.04 -222.88)"/><path class="cls-46" d="M1839.13,1291.4V1294a1.68,1.68,0,0,1-.74,1.31l-7.24,4.15c-.42.26-.75.07-.75-.42v-2.65Z" transform="translate(-441.04 -222.88)"/><polygon class="cls-46" points="1282.72 1138.5 1347.26 1101.24 1347.26 1098.3 1282.72 1135.55 1282.72 1138.5"/><polyline class="cls-47" points="1276.28 820.58 1303.82 873.17 1353.86 845.87"/><ellipse class="cls-48" cx="1754.44" cy="1070.92" rx="46.92" ry="81.26" transform="translate(-741.45 797.81) rotate(-30)"/><ellipse class="cls-49" cx="1754.44" cy="1070.92" rx="52.74" ry="91.34" transform="translate(-741.45 797.81) rotate(-30)"/><path class="cls-50" d="M1572.88,1765.22c22.69-.16,54.49-16.18,66.13-8.62s34.13,33-15.79,57.18-90.29,44.19-95,23.56,2.64-45.33,3.23-56.51S1556.24,1765.46,1572.88,1765.22Z" transform="translate(-441.04 -222.88)"/><path class="cls-50" d="M1579.67,1793.4c-34.13,19.09-54.81-5.36-54.81-5.36s-9-105.23-16-152.37-6-68.2-31.11-55.1c-20,10.43-44.3,34.84-94.13,62.67V1469.1c37.13-11.23,113.71-37.11,154-43.14,60.24-9,65.5,35.42,62.15,144.35-3.11,101.72,7.66,189,7.66,189S1611.41,1775.73,1579.67,1793.4Z" transform="translate(-441.04 -222.88)"/><polygon class="cls-51" points="1100.59 1800.14 1066.83 1819.64 898.47 1722.42 898.47 1706.22 1100.59 1783.88 1100.59 1800.14"/><polygon class="cls-51" points="898.43 1800.14 932.26 1819.64 1100.59 1722.42 1100.59 1706.22 898.43 1783.88 898.43 1800.14"/><polygon class="cls-52" points="1100.59 1783.88 1066.83 1803.4 898.47 1706.22 932.26 1686.69 1100.59 1783.88"/><polygon class="cls-52" points="898.43 1783.88 932.26 1803.4 1100.59 1706.22 1066.8 1686.69 898.43 1783.88"/><path class="cls-51" d="M1455.43,1961.88a14.85,14.85,0,0,1-14.86,14.87h0a14.85,14.85,0,0,1-14.86-14.87V1716.45a14.84,14.84,0,0,1,14.86-14.81h0a14.84,14.84,0,0,1,14.86,14.81Z" transform="translate(-441.04 -222.88)"/><path class="cls-52" d="M1185.56,1722.26h-.09l3.09-41.36,59.3-.06,141.62-81.78c9.41-5.41,24.65-5.41,34,0l141,81.45,66-.13-3,42h0c.09,3.7-2.22,7.32-7,10.09l-197,113.68c-9.39,5.44-24.63,5.44-34,0l-197-113.68C1187.69,1729.7,1185.39,1726,1185.56,1722.26Z" transform="translate(-441.04 -222.88)"/><path class="cls-53" d="M1195.53,1689.78c-9.38-5.43-9.38-14.22,0-19.64l196.94-113.72c9.44-5.42,24.65-5.42,34.1,0l196.94,113.72c9.39,5.42,9.39,14.21,0,19.64l-196.94,113.71c-9.45,5.47-24.66,5.47-34.1,0Z" transform="translate(-441.04 -222.88)"/><path class="cls-54" d="M1212.75,1680v-54.88c0-23,16.13-51,36.12-62.56l127.07-73.37c19.92-11.48,36.11-2.2,36.11,20.83v54.89" transform="translate(-441.04 -222.88)"/><path class="cls-51" d="M1291.33,1759c-18.09,7.43-35,10-50,8.23a64.37,64.37,0,0,1-39.8-19.59v0a1.35,1.35,0,0,1-.35-.29c17.08,4.27,37.07,2.31,58.82-6.62Z" transform="translate(-441.04 -222.88)"/><path class="cls-55" d="M1484.76,1211.74c8.44-4.29,22.54-19.9,32.44-30.34s24.67-22.33,35-27.39,17.93-7.27,19.49-7.22l1.57.06s5.55-3.7,9.26-3.24a37.19,37.19,0,0,1,5.41,1s1.74.36,4.34.67,6.87,4,6.87,4,5.58-1.21,6.18,2.93-17.24,15.25-28.13,23.74-32.57,28.53-31.9,32.21,12.19,1.76,21.8-2.08,18.19-4.33,20.36-.14-11.32,17-29.5,18.78-36.65,15.21-44.88,11.3-18.78.2-18.78.2Z" transform="translate(-441.04 -222.88)"/><path class="cls-56" d="M1435.73,1244.63l42.68-34s14-1.23,19.87,11c7,14.68,12.5,21.83,12.5,21.83l-30.47,32.85Z" transform="translate(-441.04 -222.88)"/><path class="cls-57" d="M1651.57,1347.67a21,21,0,0,0,4.25-16.14c-1.46-9.86-2.69-19.4,7-42.47s14.37-40.92,18.47-39,9.64,4.72,4.36,20.32-6,19.05-4.06,19.64,25-19.64,31.83-30,26.26-34.34,30.3-34.34,5.33,6,0,17.15-19.35,30.64-19.35,30.64,29.66-33.12,33.72-36.55,15.94-4.11,3.45,14.37a295.5,295.5,0,0,1-27.18,33.76s33.1-33.16,37.46-30.29-14,22.69-20.62,31.94a79.17,79.17,0,0,1-12.16,13.94s26.22-22.17,29.65-20.28-16.84,26.55-24,33.38-25.27,25.6-35.9,30.34-30.31,32.46-30.31,32.46Z" transform="translate(-441.04 -222.88)"/><path class="cls-50" d="M1692.14,1818.29c22.64-.24,54.5-16.24,66.1-8.64s34.16,32.88-15.78,57.15-90.27,44.17-95,23.49,2.64-45.28,3.22-56.51S1675.46,1818.42,1692.14,1818.29Z" transform="translate(-441.04 -222.88)"/><path class="cls-58" d="M1274.15,1547.91c-22.75,71.46,1,105.17,26.45,111.79s28.28,9.1,28.28,9.1,58.58,68.89,138.77,32.84,114.85-57.37,139.9-70.44,31,16.46,27.8,61.69c-3.32,47.52,8.77,148.2,8.77,148.2s20.69,24.36,54.79,5.31c31.77-17.69,27.76-34,27.76-34s-6.79-89.24-5.47-191-23.84-146.44-84.1-137.45-166.7,39.7-170,46.37S1274.15,1547.91,1274.15,1547.91Z" transform="translate(-441.04 -222.88)"/><path class="cls-57" d="M1320.23,1130.31c-7.69,29.06-11.34,46.12-20,48.14a69.59,69.59,0,0,1-14,2s9,32.73,57.13,35.79,57.49-4.68,57.49-4.68-6.8-22.15,0-41.82,11.73-25,11.73-25-33.1-27.41-55.5-25.4S1320.23,1130.31,1320.23,1130.31Z" transform="translate(-441.04 -222.88)"/><path class="cls-55" d="M1477.66,1047.45c-8.69,24.74-13.39,44.73-15.06,61.8s-20.39,40.75-38.42,44.15-26.76-14.71-26.76-14.71,19.07-85.4,40.09-95.43S1477.66,1047.45,1477.66,1047.45Z" transform="translate(-441.04 -222.88)"/><path class="cls-59" d="M1318.56,1129.66c-.63-18-37.43-42.79-36.74-109.63s40.08-108.26,110.92-96.22,102.44,50.76,98,93.88-20.4,40.47-25.06,41.13-.35,15.68-5.37,20-6,42.08-11.68,36.43,5-33.73-.7-34.77-22.35,27.62-28.05,40.42c-6.68,15.06-17.36,41.1-54.11,37.82S1319.26,1149,1318.56,1129.66Z" transform="translate(-441.04 -222.88)"/><path class="cls-60" d="M1279.16,1162.9c-38.41-2.71-69.84,56.79-47.11,137s36.12,95.25,39.12,142.39,3,71.65,3.51,86.22-12.9,43.43-12.9,43.43,44.29,56.21,125.13,72.52c102.91,20.73,110.23-62.34,105.16-107.33-4.21-37.29,15.38-58.77-3.34-86.15s-31.44-48.15-33.42-57.49,1.33-64.86,23.39-94.24,32.08-23.37,32.08-23.37-85.59-70.24-137-94.25S1279.16,1162.9,1279.16,1162.9Z" transform="translate(-441.04 -222.88)"/><path class="cls-61" d="M1510.78,1275.86c28.46,27.36,41.42,107.53,50.12,131s32.08,10,50.8-16.06,35.09-51.26,35.09-51.26a60.28,60.28,0,0,1,24.73,20c10.69,14.7,12,25.4,12,25.4s-44.44,70-72.55,110.78-56.13,67.51-80.85,33.4-32.74-59.08-32.74-59.08-47.47-55.21-48.78-98.61S1493.39,1259.08,1510.78,1275.86Z" transform="translate(-441.04 -222.88)"/><path class="cls-54" d="M1406.53,1790.75v-54.9c0-23,16.12-51,36.08-62.55l127.1-73.33c19.93-11.51,36.08-2.2,36.08,20.8v54.9" transform="translate(-441.04 -222.88)"/><path class="cls-52" d="M1183.44,1238.17l33.58-16.3h0c2.72-1.68,6.59-1.5,10.85,1l174.74,100.9c8.35,4.83,15.12,16.58,15.12,26.22V1551.7c0,5-1.85,8.41-4.74,9.85v.11l-33.11,15.92-26.35-45.52-125.66-72.52c-8.35-4.83-15.12-16.59-15.12-26.19V1288.93Z" transform="translate(-441.04 -222.88)"/><path class="cls-53" d="M1383.59,1568.31c0,9.68-6.73,13.52-15.08,8.72l-174.76-100.9c-8.36-4.83-15.1-16.54-15.1-26.14V1248.16c0-9.63,6.74-13.55,15.1-8.72l174.76,100.93c8.35,4.82,15.08,16.47,15.08,26.15Z" transform="translate(-441.04 -222.88)"/><path class="cls-18" d="M1340,1519.52c0,6.15-4.33,8.63-9.69,5.58L1218,1460.29c-5.36-3.11-9.7-10.59-9.7-16.83V1313.8c0-6.14,4.34-8.69,9.7-5.58l112.3,64.85c5.36,3.11,9.69,10.61,9.69,16.78Z" transform="translate(-441.04 -222.88)"/><path class="cls-51" d="M1257.56,1475.15c19-21.91,33.77-41.59,33.77-41.59L1260,1415.2c-74.19,53.66-131.59,160-131.59,248.66,0,46.76,15.95,79.94,41.95,96.3l0,.07,28.78,16.63s-1.44-2.63-3.66-6.94a95.87,95.87,0,0,0,31.88.33,133.62,133.62,0,0,0,13.94-3.06,64.37,64.37,0,0,1-39.8-19.59v0a1.35,1.35,0,0,1-.35-.29,64.38,64.38,0,0,1-20.67-9.32c-4.2-9.76-8-19.76-10.12-28.18-6.45-25.7-4.35-85,18.23-136.69S1238.56,1497.05,1257.56,1475.15Z" transform="translate(-441.04 -222.88)"/><path class="cls-42" d="M1291.33,1453.37v-19.81c-74.31,53.61-131.68,159.92-131.68,248.63a167.89,167.89,0,0,0,4.48,39.9c4.9,19.36,13.34,35,24.77,46.31,23.91,23.61,60.46,28.53,102.43,10.49V1759c-18.09,7.43-35,10-50,8.23a64.37,64.37,0,0,1-39.8-19.59v0a1.35,1.35,0,0,1-.35-.29c-15.37-16.25-24.51-41.77-24.51-74.94C1176.66,1594.55,1226.47,1501.53,1291.33,1453.37Z" transform="translate(-441.04 -222.88)"/><path class="cls-50" d="M1275.81,1037.32c-3.64-41.93,6.16-99,43.1-113.38s126.64-8.21,154.35,19.49,24.84,76.45,17.84,100.05-29.84,21.54-53.56,20-50.39,20-92,20S1277.46,1056.31,1275.81,1037.32Z" transform="translate(-441.04 -222.88)"/><path class="cls-62" d="M1937.34,1483.05v47.11l-124.29-71.77c-4.58-2.67-8.39-9.77-8.39-16v-24.81c0-3.21,1-5.5,2.67-6.49a.73.73,0,0,1,.38-.31c1.45-.84,3.28-.68,5.34.46Z" transform="translate(-441.04 -222.88)"/><path class="cls-19" d="M1937.35,1489.38v34.45l-119.67-69.09a15.7,15.7,0,0,1-7.07-12.25v-18.12c0-4.52,3.18-6.33,7.07-4.08Z" transform="translate(-441.04 -222.88)"/><path class="cls-63" d="M2108.62,1383.3l-5.5,3.2-29.69,17.26-5.5,3.2-130.59,76.09-124.29-71.76c-2.06-1.14-3.89-1.3-5.34-.46l170.21-99,.16-.07c1.52-1.46,3.74-1.61,6.26-.16Z" transform="translate(-441.04 -222.88)"/><polygon class="cls-64" points="1496.31 1266.5 1667.58 1166.83 1667.58 1160.42 1496.3 1260.17 1496.31 1266.5"/><polygon class="cls-65" points="1496.31 1300.95 1667.58 1201.26 1667.58 1166.83 1496.31 1266.5 1496.31 1300.95"/><polygon class="cls-66" points="1496.3 1307.28 1667.58 1207.6 1667.58 1201.26 1496.31 1300.95 1496.3 1307.28"/><path class="cls-16" d="M1937.34,1433.81v47.11l-124.29-71.77c-4.58-2.67-8.39-9.77-8.39-16v-24.81c0-3.21,1-5.5,2.67-6.49a.78.78,0,0,1,.38-.31c1.45-.84,3.28-.68,5.34.46Z" transform="translate(-441.04 -222.88)"/><path class="cls-19" d="M1937.35,1440.14v34.45l-119.67-69.09a15.7,15.7,0,0,1-7.07-12.25v-18.12c0-4.52,3.18-6.33,7.07-4.08Z" transform="translate(-441.04 -222.88)"/><path class="cls-15" d="M2108.62,1334.06l-5.5,3.2-29.69,17.26-5.5,3.2-130.59,76.09-124.29-71.76c-2.06-1.14-3.89-1.3-5.34-.46l170.21-99,.16-.07c1.52-1.45,3.74-1.61,6.26-.16Z" transform="translate(-441.04 -222.88)"/><polygon class="cls-17" points="1496.31 1217.26 1667.58 1117.59 1667.58 1111.18 1496.3 1210.93 1496.31 1217.26"/><polygon class="cls-65" points="1496.31 1251.71 1667.58 1152.02 1667.58 1117.59 1496.31 1217.26 1496.31 1251.71"/><polygon class="cls-17" points="1496.3 1258.04 1667.58 1158.36 1667.58 1152.02 1496.31 1251.71 1496.3 1258.04"/><path class="cls-67" d="M1937.34,1384.57v47.11l-124.29-71.77c-4.58-2.67-8.39-9.77-8.39-16v-24.81c0-3.21,1-5.5,2.67-6.49a.78.78,0,0,1,.38-.31c1.45-.84,3.28-.68,5.34.46Z" transform="translate(-441.04 -222.88)"/><path class="cls-19" d="M1937.35,1390.9v34.45l-119.67-69.09a15.68,15.68,0,0,1-7.07-12.25v-18.12c0-4.52,3.18-6.33,7.07-4.08Z" transform="translate(-441.04 -222.88)"/><path class="cls-68" d="M2108.62,1284.82l-5.5,3.21-29.69,17.25-5.5,3.21-130.59,76.08-124.29-71.76c-2.06-1.14-3.89-1.3-5.34-.46l170.21-99,.16-.07c1.52-1.45,3.74-1.61,6.26-.16Z" transform="translate(-441.04 -222.88)"/><polygon class="cls-69" points="1496.31 1168.02 1667.58 1068.35 1667.58 1061.94 1496.3 1161.69 1496.31 1168.02"/><polygon class="cls-65" points="1496.31 1202.47 1667.58 1102.78 1667.58 1068.35 1496.31 1168.02 1496.31 1202.47"/><polygon class="cls-70" points="1496.3 1208.8 1667.58 1109.12 1667.58 1102.78 1496.31 1202.47 1496.3 1208.8"/><path class="cls-71" d="M2416.76,969.82c72.57,39.31,50.42,138.21,36.58,224.42s-53.69,169.07-94,167.09-86-85.46-86-89.4S2416.76,969.82,2416.76,969.82Z" transform="translate(-441.04 -222.88)"/><path class="cls-72" d="M2075.84,1257.84l-137.35-102.48a13,13,0,0,0-11.69-1.38l-83.38,35.87h-5.88v4.82h0a4.3,4.3,0,0,0,2,3.23l139,103.7a13,13,0,0,0,11.69,1.38l86.42-37.18c1.82-.78,2.75-2,2.81-3.3h0v-4.66Z" transform="translate(-441.04 -222.88)"/><path class="cls-73" d="M2076.67,1261l-86.42,37.17a13,13,0,0,1-11.69-1.38l-139-103.69c-3-2.25-2.65-5.27.8-6.75l86.42-37.18a13,13,0,0,1,11.69,1.38l139,103.7C2080.47,1256.51,2080.12,1259.53,2076.67,1261Z" transform="translate(-441.04 -222.88)"/><polygon class="cls-19" points="1625.67 1028.95 1536.27 1067.41 1405.53 969.86 1494.93 931.4 1625.67 1028.95"/><polyline class="cls-74" points="1487.18 997.51 1508.07 1001.83 1513.73 971.9"/><ellipse class="cls-75" cx="1944.44" cy="1212.16" rx="22.64" ry="39.22" transform="translate(-7.81 2711.62) rotate(-80.68)"/><ellipse class="cls-76" cx="1944.44" cy="1212.16" rx="25.45" ry="44.09" transform="translate(-7.81 2711.62) rotate(-80.68)"/><path class="cls-77" d="M1994.55,1297.79a18.16,18.16,0,0,1-1-15.08c3.19-8.17-7.85-32.84-15-46.15s-13.2-21.83-16.57-9.58,6,18.63,2.66,30.88-24.49.35-32.84-7.28-13.48-14.37-20.23-18.1-13.67-4.44-9.58,2.48,14.73,20.59,18.28,25.21,8.34,9.94,8.34,9.94-4.91,2.12-5,7.09,4.14,11,4.14,11-4.61,1.65-4.14,7.81,5.92,11.12,5.92,11.12-2.84.24-1,6.86,14.67,18.22,33.37,21.54,23.66,10.17,23.66,10.17Z" transform="translate(-441.04 -222.88)"/><path class="cls-78" d="M2010.58,1306.49,1995,1296s-15.68,7.87-16.39,31.77,2.31,23.07,2.31,23.07l16,10.47Z" transform="translate(-441.04 -222.88)"/><path class="cls-79" d="M2343.26,2009.49s-23.78,12.07-39,6.75-48.28-19.17-60.7-6.75-16,52.9,22,66.74,92.06,39.28,116.2,37.86,35-16.09,25.55-61.05S2343.26,2009.49,2343.26,2009.49Z" transform="translate(-441.04 -222.88)"/><path class="cls-51" d="M2406.54,1439.89s-9.21,91.58-5.42,181.51,10.41,232.85,12.31,290.6,3.31,143.88,3.31,143.88-35,1.89-57.27-18.46-22.24-26.51-22.24-26.51-52.54-330.83-61.06-372-20.81-148.12-15-184.11,99.68-45.44,101.57-45.44S2406.54,1439.89,2406.54,1439.89Z" transform="translate(-441.04 -222.88)"/><path class="cls-51" d="M2239.35,2067.72s-23.78,12.07-39,6.74-48.28-19.16-60.7-6.74-16,52.89,22,66.73,92.05,39.29,116.19,37.87,35-16.09,25.56-61.06S2239.35,2067.72,2239.35,2067.72Z" transform="translate(-441.04 -222.88)"/><path class="cls-71" d="M2338.86,1494.09s-45.43,95.6-41.65,185.53,10.42,232.86,12.31,290.6,3.31,143.88,3.31,143.88-35,1.9-57.27-18.46-22.24-26.5-22.24-26.5-52.54-330.83-61.05-372-20.82-148.12-15-184.11,99.68-45.43,101.58-45.43S2338.86,1494.09,2338.86,1494.09Z" transform="translate(-441.04 -222.88)"/><path class="cls-80" d="M2347.86,949.81s-3.32,17,10.41,24.61c0,0,9.46,25.55-27.45,37.39s-71.11,6.15-72,6.15,6.1-46.86,0-54.9-22.23-9.94-22.23-9.94l2.65-23.43s72.65-27.21,86.37-21.53S2347.86,949.81,2347.86,949.81Z" transform="translate(-441.04 -222.88)"/><path class="cls-78" d="M2372.73,969.24s-5.23-9.8-35.76,0-71,22.22-82.71,35.7-13.6,25.77-13.6,25.77Z" transform="translate(-441.04 -222.88)"/><path class="cls-77" d="M2188.24,831.36s.71,23.79,7.81,35.86,3.55,28,3.55,42.95,13.84,36.2,26.62,41.53,27.33-3.55,32-16.68-16.33-95.26-27.69-103.66S2188.24,831.36,2188.24,831.36Z" transform="translate(-441.04 -222.88)"/><path class="cls-81" d="M2349.75,955.25c1.49-21.44,41.18-34.79,50.41-101.52s-39.76-125.66-118.56-125-100.82,22-105.78,58.21,12.77,72.42,30.17,74.55,0,29.1,7.1,33.72,12.42,4.61,12.42,15.62,5.33,8.52,6-.36,10.65-14.55,13.14-1.06,4.61,35.85,24.85,45.79S2348.68,970.51,2349.75,955.25Z" transform="translate(-441.04 -222.88)"/><path class="cls-73" d="M2416.76,969.82c-19.33-5.14-46-2.57-74.59,7.42-37.9,13.27-85.89,32.93-111.94,64.43s-88.24,89.44-94,123.46-30.74,128.26-33.58,153.38-16.6,24.63-36.91,16.55-56.79-31.67-56.79-31.67-18.46,11.19-17.53,36.58l.93,25.39s72.95,59.63,107.51,71,49.15,3.76,60.07-6.61c10.15-9.78,19.93-48,21.18-53-1.36,7.7-16.1,89.94-19.76,110.25-3.77,21.29-13.71,26,5.73,28.83S2294.39,1543.1,2354,1509s60.33-62.52,54.66-98c-4.86-30.09-13.22-75.46-15.08-94.52v0a575.38,575.38,0,0,1-5.46-66.18l.06-.06c.05-.11.16-.43.38-.87s.33-.82.55-1.37a.27.27,0,0,0,.11-.21c.16-.39.38-.82.54-1.31,3.44-8.3,11.8-28.56,19.71-45,2.63-5.41,5.19-10.43,7.49-14.47,10.31-18,17.52-42.81,18.72-47.18a.86.86,0,0,1,.11-.33.76.76,0,0,1,.11-.32C2459,1083.5,2445,1007.27,2416.76,969.82Z" transform="translate(-441.04 -222.88)"/><path class="cls-82" d="M717.08,1828.13v6.63l0,153.39a18.52,18.52,0,0,0,9.09-2.18l119.95-69.26c2.49-1.43,3.77-3.34,3.77-5.26l18.92-170c-.36,1.83-1.76,3.59-4.2,5l-137.15,79.18A21.18,21.18,0,0,1,717.08,1828.13Z" transform="translate(-441.04 -222.88)"/><path class="cls-83" d="M565.36,1741.54c.41,1.81,1.81,3.52,4.18,4.9l137.12,79.18a22.86,22.86,0,0,0,20.83,0l137.15-79.18c2.44-1.39,3.84-3.15,4.2-5v0l.11-1c0-2.19-1.42-4.35-4.31-6l-137.15-79.18c-5.74-3.31-15.07-3.31-20.83,0l-137.12,79.18C566.2,1736.37,564.79,1739,565.36,1741.54Z" transform="translate(-441.04 -222.88)"/><path class="cls-84" d="M584.38,1741.4a7,7,0,0,0,3.65,4.29L708,1815a20.12,20.12,0,0,0,18.22,0l120-69.26a6.92,6.92,0,0,0,3.67-4.37v0l.09-.86c0-1.91-1.25-3.81-3.76-5.27l-120-69.26c-5-2.89-13.19-2.89-18.22,0L588,1735.17C585.1,1736.88,583.88,1739.18,584.38,1741.4Z" transform="translate(-441.04 -222.88)"/><path class="cls-85" d="M565.25,1741.46l19,170c0,1.92,1.26,3.83,3.77,5.26L708,1986a18.6,18.6,0,0,0,9.13,2.18l0-153.39v-6.63a21.28,21.28,0,0,1-10.42-2.51l-137.12-79.18c-2.37-1.38-3.77-3.09-4.18-4.9Z" transform="translate(-441.04 -222.88)"/><path class="cls-86" d="M717.11,1740.44s-5.68-94.54-95.47-94.54h29c11.67,0,24.47-36.65-60.87-36.65,0,0-31.08-1.9,12.4-8.27s-69.59-73.87-158.68-33.56c0,0-19.09,47.37,49.5,55.85s-11.32,8.49-28.29,1.77-11.66,25.8,21.57,40.29a196,196,0,0,0,79,16.27c16.45,0-6.89,8.12-40.82,4.58s-46.3-12.71-46.3-12.71,74.58,68.22,129.72,60.8S717.11,1740.44,717.11,1740.44Z" transform="translate(-441.04 -222.88)"/><path class="cls-87" d="M723.39,1752.64a.58.58,0,0,1-.45-.22,755.94,755.94,0,0,0-82.1-82.89c-44.75-38.67-112-86.45-178.34-94.47a.57.57,0,0,1-.5-.64.56.56,0,0,1,.64-.5c66.61,8,134.09,56,179,94.75a756.53,756.53,0,0,1,82.22,83,.58.58,0,0,1-.08.82A.59.59,0,0,1,723.39,1752.64Z" transform="translate(-441.04 -222.88)"/><path class="cls-87" d="M576.09,1705.21a218.36,218.36,0,0,1-35.13-2.9.58.58,0,1,1,.18-1.14c72.79,11.85,116.87-16.61,117.3-16.9a.58.58,0,0,1,.8.17.57.57,0,0,1-.16.8C658.71,1685.48,628.18,1705.21,576.09,1705.21Z" transform="translate(-441.04 -222.88)"/><path class="cls-87" d="M621.57,1653.34a.58.58,0,0,1-.26-.06.59.59,0,0,1-.25-.78c.11-.2,10.29-20.61-6.59-42.32a.58.58,0,0,1,.91-.71c17.35,22.31,6.81,43.35,6.71,43.56A.59.59,0,0,1,621.57,1653.34Z" transform="translate(-441.04 -222.88)"/><path class="cls-87" d="M522.4,1646.55a145.85,145.85,0,0,1-30.61-3.28.58.58,0,0,1-.44-.69.58.58,0,0,1,.68-.44c56.7,12.18,96.43-13.69,96.83-14a.58.58,0,0,1,.8.16.57.57,0,0,1-.16.8C589.18,1629.37,562.8,1646.55,522.4,1646.55Z" transform="translate(-441.04 -222.88)"/><path class="cls-87" d="M538.8,1599.35a.59.59,0,0,1-.58-.54c0-.27-1.9-27-24.67-39.38a.58.58,0,0,1,.55-1c23.34,12.73,25.26,40,25.28,40.32a.58.58,0,0,1-.55.61Z" transform="translate(-441.04 -222.88)"/><path class="cls-87" d="M465.69,1593.7a53.71,53.71,0,0,1-14.86-2,.58.58,0,0,1,.32-1.11c25.17,7.26,49.62-7.6,49.87-7.75a.57.57,0,0,1,.79.19.58.58,0,0,1-.18.8C501.43,1583.91,485.32,1593.7,465.69,1593.7Z" transform="translate(-441.04 -222.88)"/><path class="cls-88" d="M719.42,1740.52s31.8-98.08-8.5-170.18c0,0-6.37-8.26-6.37,23.44s5.31-26.63-36-68-95.45-55.14-95.45-55.14-27.69,96.2,21.21,123.13c0,0,9.89,13.55-19.09,0s20,44.42,68.32,65.64c0,0,8.74,15.9-16.71,4.41S621.16,1715.58,719.42,1740.52Z" transform="translate(-441.04 -222.88)"/><path class="cls-87" d="M723.39,1758.1a.57.57,0,0,1-.57-.51c-.06-.39-5.29-39.42-25-91.42-18.15-48-52.66-117.09-114-174a.58.58,0,0,1,.79-.85c61.49,57.06,96.09,126.36,114.28,174.46,19.72,52.11,25,91.25,25,91.64a.58.58,0,0,1-.5.65Z" transform="translate(-441.04 -222.88)"/><path class="cls-87" d="M698.83,1698.43c-10.61,0-29.53-3.9-57-23.77a.59.59,0,0,1-.13-.81.6.6,0,0,1,.81-.13c43.75,31.62,65.87,22.14,66.09,22a.57.57,0,0,1,.76.28.58.58,0,0,1-.28.77C708.71,1697,705.32,1698.43,698.83,1698.43Z" transform="translate(-441.04 -222.88)"/><path class="cls-87" d="M690.93,1647.93a.58.58,0,0,1-.2-1.12h0c.17-.07,17.51-7.32,17.51-64a.58.58,0,1,1,1.15,0c0,57.7-17.51,64.83-18.26,65.1A.48.48,0,0,1,690.93,1647.93Z" transform="translate(-441.04 -222.88)"/><path class="cls-87" d="M667.84,1606.15c-12,0-55.53-2.5-84-37a.58.58,0,1,1,.89-.73c32.74,39.6,85.66,36.5,86.2,36.46a.55.55,0,0,1,.61.53.58.58,0,0,1-.54.62C670.91,1606.08,669.79,1606.15,667.84,1606.15Z" transform="translate(-441.04 -222.88)"/><path class="cls-87" d="M639.62,1555.54a.56.56,0,0,1-.4-.17.57.57,0,0,1,0-.81c.1-.11,10.33-11.31-.14-45a.58.58,0,1,1,1.11-.34c10.7,34.4.31,45.63-.14,46.09A.55.55,0,0,1,639.62,1555.54Z" transform="translate(-441.04 -222.88)"/><path class="cls-89" d="M727.09,1691.1s-65-79.86,1.93-173.17c0,0-38.09,50.9-38.09,7.43s51.9-152.74,178.67-158,64.19,91.22,9,133.63l50.19-10.6S918.06,1635.21,727.09,1691.1Z" transform="translate(-441.04 -222.88)"/><path class="cls-87" d="M729,1731a.57.57,0,0,1-.57-.52c-.06-.7-5.86-70.29,14.24-146.89,11.81-45,30.11-83.6,54.4-114.71,30.38-38.89,70.24-66.12,118.5-80.91a.58.58,0,0,1,.72.38.59.59,0,0,1-.38.73c-108.76,33.33-153.63,124.32-172.12,194.77-20,76.41-14.27,145.83-14.21,146.52a.59.59,0,0,1-.53.63Z" transform="translate(-441.04 -222.88)"/><path class="cls-90" d="M731.32,1649.29a.58.58,0,0,1-.57-.48.59.59,0,0,1,.47-.67c.71-.13,72.1-13.59,140.35-95.56a.58.58,0,0,1,.89.74c-68.54,82.31-140.32,95.83-141,96Z" transform="translate(-441.04 -222.88)"/><path class="cls-87" d="M740.77,1594.26a.57.57,0,0,1-.54-.39c-.33-1-32.58-98.55,0-151.89a.58.58,0,0,1,1,.6c-32.35,52.88-.28,150,.05,150.92a.57.57,0,0,1-.55.76Z" transform="translate(-441.04 -222.88)"/><path class="cls-87" d="M761.94,1548.11a36.9,36.9,0,0,1-7.2-.54.58.58,0,0,1-.43-.7.57.57,0,0,1,.69-.43c.38.09,38.57,8.22,113.77-43.13a.58.58,0,0,1,.65,1C812.35,1543.23,776.36,1548.11,761.94,1548.11Z" transform="translate(-441.04 -222.88)"/><path class="cls-87" d="M796.54,1471.13h0a.57.57,0,0,1-.52-.63c0-.61,5.85-61.61,34-89.79a.57.57,0,0,1,.82,0,.58.58,0,0,1,0,.81c-27.9,27.9-33.66,88.48-33.71,89.09A.58.58,0,0,1,796.54,1471.13Z" transform="translate(-441.04 -222.88)"/><path class="cls-87" d="M890,1435c-30.53,0-43.59-12.27-43.76-12.44a.57.57,0,0,1,0-.81.58.58,0,0,1,.82,0c.23.23,23.64,22.11,81.62,6.52a.57.57,0,0,1,.71.41.58.58,0,0,1-.41.71C913.7,1433.48,900.78,1435,890,1435Z" transform="translate(-441.04 -222.88)"/><path class="cls-91" d="M724.6,1730s100.73-21.94,142.73-93.08c0,0,3.94-9.66-23.46,6.31s25.67-8.83,40.56-65.39-.44-110.23-.44-110.23-97,24.54-95.68,80.34c0,0-6.71,15.39-9.62-16.48s-28.32,39.62-22.28,92.07c0,0-9.34,15.57-12.23-12.2S696.64,1632.53,724.6,1730Z" transform="translate(-441.04 -222.88)"/><path class="cls-87" d="M717.08,1762.42a.54.54,0,0,1-.22,0,.58.58,0,0,1-.32-.76c.86-2.1,86.59-210.69,155.15-258.31a.58.58,0,0,1,.8.15.57.57,0,0,1-.15.8c-68.27,47.43-153.87,255.7-154.73,257.8A.58.58,0,0,1,717.08,1762.42Z" transform="translate(-441.04 -222.88)"/><path class="cls-90" d="M734.58,1722.14a.58.58,0,0,1-.1-1.15c.45-.08,46-9,106.71-50.82a.58.58,0,0,1,.66.95c-60.91,42-106.71,50.92-107.16,51Z" transform="translate(-441.04 -222.88)"/><path class="cls-87" d="M762.06,1664.32a.57.57,0,0,1-.57-.47c-.09-.49-8.84-49.45,3.73-85.19a.59.59,0,0,1,.74-.35.58.58,0,0,1,.35.74c-12.47,35.45-3.77,84.11-3.68,84.59a.59.59,0,0,1-.47.68Z" transform="translate(-441.04 -222.88)"/><path class="cls-87" d="M812.46,1612.63c-14.92,0-20-5.19-20.35-5.57a.58.58,0,0,1,0-.82.59.59,0,0,1,.82,0c.18.2,15.54,15.53,72.21-8a.58.58,0,0,1,.75.31.59.59,0,0,1-.31.76C840.75,1609.64,823.77,1612.63,812.46,1612.63Z" transform="translate(-441.04 -222.88)"/><path class="cls-87" d="M825.11,1555.54a.57.57,0,0,1-.54-.38c-.11-.29-10.14-28.63,13-51.78a.57.57,0,0,1,.82,0,.59.59,0,0,1,0,.82c-22.62,22.62-12.85,50.28-12.75,50.56a.57.57,0,0,1-.34.74A.71.71,0,0,1,825.11,1555.54Z" transform="translate(-441.04 -222.88)"/><path class="cls-92" d="M717.11,1740.44s12.62-122.67,75.33-133.11l2.29-.32a35.32,35.32,0,0,1,0,29.69c-7.31,16.27,50.63-86.74,143.46-43,0,0,10.13,6.25-16.88,27.46s40.51-33.74,96.78,25.55l56.25,59.29s-49,60.1-100.7,26.16-54.39-29.05-48.38-21.49,40.5,30.8,40.5,30.8-70.89,30.28-105.21-24.16c0,0-1.13,9.44,18,24.16S794.05,1685.63,717.11,1740.44Z" transform="translate(-441.04 -222.88)"/><path class="cls-87" d="M713.72,1750.43a.52.52,0,0,1-.33-.11.58.58,0,0,1-.14-.8c.32-.45,32.31-44.83,87.16-74.51,32.23-17.45,65.93-26.49,100.17-26.88,42.79-.42,86.53,12.64,130,39a.57.57,0,0,1,.19.79.58.58,0,0,1-.79.2c-98-59.38-178.62-39.36-229-12.1-54.63,29.56-86.49,73.74-86.81,74.19A.57.57,0,0,1,713.72,1750.43Z" transform="translate(-441.04 -222.88)"/><path class="cls-87" d="M750.1,1711.68h-.05a.57.57,0,0,1-.53-.62c.05-.6,5.5-60.06,31.49-86.07a.57.57,0,0,1,.82,0,.58.58,0,0,1,0,.81c-25.7,25.72-31.11,84.77-31.16,85.36A.58.58,0,0,1,750.1,1711.68Z" transform="translate(-441.04 -222.88)"/><path class="cls-87" d="M898.08,1718.94H898c-62-9.11-94.92-44-95.24-44.35a.57.57,0,0,1,0-.81.58.58,0,0,1,.82,0c.32.35,32.93,34.94,94.56,44a.57.57,0,0,1,.48.65A.58.58,0,0,1,898.08,1718.94Z" transform="translate(-441.04 -222.88)"/><path class="cls-87" d="M858.85,1654.12h-.05a.57.57,0,0,1-.53-.62c0-.44,1-11,9.67-23,8-11.07,24.47-25.42,57.26-30.93a.58.58,0,1,1,.19,1.14c-61.93,10.41-65.93,52.49-66,52.91A.57.57,0,0,1,858.85,1654.12Z" transform="translate(-441.04 -222.88)"/><path class="cls-87" d="M971.25,1711.68a.53.53,0,0,1-.24-.06c-28.87-13.15-38.66-29.09-41.8-40.15-3.42-12,0-20.82.15-21.19a.58.58,0,0,1,1.07.43c0,.09-3.43,8.84-.09,20.52,3.09,10.8,12.73,26.4,41.15,39.34a.58.58,0,0,1-.24,1.11Z" transform="translate(-441.04 -222.88)"/><path class="cls-87" d="M1027.1,1662.4a.69.69,0,0,1-.24-.05c-36.2-16.88-49.73-.34-49.86-.17a.58.58,0,0,1-.81.1.58.58,0,0,1-.1-.81c.14-.18,14.16-17.47,51.26-.17a.58.58,0,0,1-.25,1.1Z" transform="translate(-441.04 -222.88)"/><path class="cls-93" d="M717.11,1740.44s67.14-67,108.5,0c0,0,18,21.4-19.44,12.92s3.89,5.3,20.5,11,40.84,66.64-14.85,100.49c0,0-9.62,8.4-18.85-14.94s-9.33,13.79,0,29.69-103.1,88.56-85.6-18.55c0,0-10.08,24.39-10.08,35s-52-48.79-11.66-89.09c0,0,.52-14-18,10.22S636.24,1729.28,717.11,1740.44Z" transform="translate(-441.04 -222.88)"/><path class="cls-87" d="M738.65,1892.68a.57.57,0,0,1-.54-.39C700.5,1782.15,705.62,1751.49,712,1743c2.45-3.25,5-3.15,5.13-3.15a.58.58,0,0,1,0,1.16h0c-.05,0-2.13,0-4.21,2.77-6.19,8.38-11,38.77,26.33,148.13a.57.57,0,0,1-.55.76Z" transform="translate(-441.04 -222.88)"/><path class="cls-87" d="M779,1872.35a.58.58,0,0,1-.54-.37c-18-45-57.86-39.42-58.26-39.36a.58.58,0,1,1-.18-1.14c.42-.07,41.18-5.77,59.51,40.08a.57.57,0,0,1-.32.75A.78.78,0,0,1,779,1872.35Z" transform="translate(-441.04 -222.88)"/><path class="cls-87" d="M686,1872.35a.57.57,0,0,1-.56-.47c-8.1-40.12,25.24-77.3,25.58-77.67a.57.57,0,1,1,.85.77c-.33.37-33.28,37.13-25.3,76.68a.59.59,0,0,1-.45.68Z" transform="translate(-441.04 -222.88)"/><path class="cls-87" d="M812.53,1817.71a.57.57,0,0,1-.51-.32c-14.87-29.48-42.24-40.64-62.59-44.81a136.26,136.26,0,0,0-41-2,.58.58,0,0,1-.65-.5.59.59,0,0,1,.49-.65,138.1,138.1,0,0,1,41.44,2c20.6,4.22,48.31,15.53,63.39,45.42a.58.58,0,0,1-.52.84Z" transform="translate(-441.04 -222.88)"/><path class="cls-87" d="M661.77,1797.15a.78.78,0,0,1-.21,0,.57.57,0,0,1-.33-.75c14.79-38.83,47.43-44.81,47.76-44.87a.58.58,0,0,1,.19,1.14c-.32,0-32.32,5.95-46.87,44.14A.58.58,0,0,1,661.77,1797.15Z" transform="translate(-441.04 -222.88)"/><path class="cls-87" d="M812.53,1774.89a.62.62,0,0,1-.41-.17c-49.3-49.3-100-29.37-100.47-29.17a.58.58,0,1,1-.44-1.07c.13,0,13.08-5.24,32-4.19,17.44,1,43.7,7.59,69.73,33.62a.56.56,0,0,1,0,.81A.58.58,0,0,1,812.53,1774.89Z" transform="translate(-441.04 -222.88)"/></svg>