<svg xmlns="http://www.w3.org/2000/svg" xmlns:xlink="http://www.w3.org/1999/xlink" viewBox="0 0 2137.37 1469"><defs><style>.a{isolation:isolate;}.b{font-size:12px;font-family:MyriadPro-Regular, Myriad Pro;}.c{fill:#009245;}.d{fill:#b3ddd1;}.e{fill:#80beaf;}.f{fill:#47cacc;}.g{fill:#63bcc9;}.h{fill:#f5b994;}.i{fill:#ee9c6c;}.j{fill:#ddb0a7;}.k{fill:#c1938b;}.l{fill:#9b9b9b;}.m{fill:#4d4d4d;}.n{fill:#666;}.o,.r{fill:#e6e6e6;}.p{fill:#ecc19c;}.q{fill:#ccc;}.ad,.aj,.r{mix-blend-mode:multiply;}.s{fill:#333;}.t{fill:#f0d0b4;}.u{fill:#603813;}.v{fill:#534741;}.w{fill:#f1aa80;}.x{fill:#fff;}.y{fill:#ce8561;}.z{fill:#476263;}.aa{fill:#1a1a1a;}.ab{fill:#08324c;}.ac{fill:#0a3d64;}.ad{fill:#b3b3b3;}.ae{fill:#728d8e;}.af{fill:#5b797c;}.ag{fill:#143b65;}.ah{fill:#134574;}.ai{fill:#6aa595;}.aj{fill:#999;}.ak{fill:url(#a);}.al{fill:url(#b);}.am{fill:url(#c);}.an{fill:#a67c52;}.ao{fill:#006837;}.ap{fill:#005b29;}.aq{fill:#d7d9de;}.ar{fill:#747578;}.as{fill:#cdd7ec;}.at{fill:#bdccd4;}.au{fill:#39b54a;}.av{fill:#8090a6;}.aw{fill:#8cc63f;}.ax{fill:#f2f2f2;}.ay{fill:#3c558f;}.az,.ba{fill:none;stroke:#722b31;stroke-miterlimit:10;}.ba{stroke-dasharray:12.05 12.05;}</style><linearGradient id="a" x1="1447.9" y1="343.17" x2="1449.48" y2="520.4" gradientUnits="userSpaceOnUse"><stop offset="0" stop-color="#fff"/><stop offset="1"/></linearGradient><linearGradient id="b" x1="1536.94" y1="342.38" x2="1538.53" y2="519.61" xlink:href="#a"/><linearGradient id="c" x1="1590.3" y1="377.53" x2="1591.88" y2="510.45" xlink:href="#a"/></defs><g class="a"><text class="b" transform="translate(275.08 219.71)">12,6003 </text><path class="c" d="M263.11,993.92c17.1-37.46,56.07-66.4,100.59-74.73,47-8.79,97.72,4.15,143.1-9.9,65.49-20.28,94-86.16,132.45-137.41,77.06-102.62,212.68-158.13,346.92-189.65,180.17-42.3,377.8-49.06,547.86,18.63,195.55,77.84,336.08,256.79,346.49,446.91s-112,382-303,468.35c-118.08,53.4-247.21,9-379.53,15.16-151.33,7-314.12,11.28-465.22,1-114.71-7.8-226.36,31-331.22-11s-198-116.86-232-214.5c-13.82-39.73-17.17-83.93,1.27-122.15A116.8,116.8,0,0,1,208,1141c12.93-9.25,47.91-15.33,55.47-27.06C281.42,1086,245.93,1031.57,263.11,993.92Z" transform="translate(-145.87 -77.93)"/><rect class="d" x="215.15" y="1418.74" width="224.37" height="32.85"/><rect class="e" x="439.52" y="1418.74" width="53.87" height="32.85"/><rect class="f" x="546.67" y="1200.92" width="224.37" height="250.67"/><rect class="g" x="771.03" y="1200.92" width="53.87" height="250.67"/><rect class="h" x="882.33" y="1078.75" width="224.37" height="372.84"/><rect class="i" x="1106.69" y="1078.75" width="53.87" height="372.84"/><rect class="j" x="1210.29" y="957.68" width="224.37" height="495.06"/><rect class="k" x="1434.66" y="957.68" width="53.87" height="495.06"/><rect class="l" x="215.15" y="1451.59" width="1273.38" height="17.41"/><path class="m" d="M523.86,1247.86,495.7,1348.69l-66.89,116.09H401.88s13.47-86,37.84-111.66,20.46-23.73,20.46-23.73l-4.77-131Z" transform="translate(-145.87 -77.93)"/><path class="n" d="M455.41,1197s-8.23,24.23,20.71,63.52c31.84,43.22,56.66,77.24,56.66,77.24s-10.89,31.55-15.07,47.45-1,88.5-1,88.5h22.7s38.22-131.46,35.5-144.29c-8-37.64-61.41-132.42-61.41-132.42Z" transform="translate(-145.87 -77.93)"/><polygon class="o" points="368.92 1047.54 432.28 1075.52 427.99 1095.74 349.6 1074.28 368.92 1047.54"/><path class="m" d="M506.45,1014.11c-6.21,3.88-10.47,0-17.52,2.84-4.42,1.76-10.15,6.24-14.34,18.88-2.91-6.37-3.19,5.3-7.77,0a.8.8,0,0,0-.36.37c-.37.87,1.36,2.09,1.14,2.51s-2.51-.2-3.86-.8c-6-2.68-10.49-12.19-11.95-21.26-.74-4.61-1.68-10.4,1.17-16.6a25.91,25.91,0,0,1,6.25-8.2c2.33-2.2,5.12-4.18,12.06-7.34,12.31-5.59,19-8.64,22.88-5.74,2.78,2.08,1.53,5.3,4.49,6.83,4.1,2.13,8.36-3,12.3-1.17,3.7,1.75,4,8.18,4.11,10.55C515.33,1001.14,513.09,1010,506.45,1014.11Z" transform="translate(-145.87 -77.93)"/><polygon class="p" points="361.57 996.31 330.33 996.31 322.32 961.95 354.54 961.95 355.22 965.32 360.18 989.56 361.57 996.31"/><path class="q" d="M536.56,1094.56c0,.12,0,.23,0,.34-.13,2.12-.3,4.51-.57,7.13-.24,2.39-.55,5-.94,7.67a157.06,157.06,0,0,1-7.78,31.48A274,274,0,0,0,513.54,1197H455.41s0-53.76,0-84.5V1109a53.2,53.2,0,0,1,.64-8c.74-5,1.88-8.8,1.88-10.06,0-8.31,70-31.65,78.81-6.58C536.78,1084.37,536.92,1088.23,536.56,1094.56Z" transform="translate(-145.87 -77.93)"/><path class="r" d="M506.05,1067.49c-11.4-2.69-34.54-22-34.54-22s19.26-2.09,29.58-2.29Z" transform="translate(-145.87 -77.93)"/><path class="p" d="M508.6,1019.58s6.25,17.57,4.69,25-.78,14.84-17.57,10.54-25.87-5.47-26.65-16.79-7.72-35.14-2.64-36.71S504.52,991.36,508.6,1019.58Z" transform="translate(-145.87 -77.93)"/><ellipse class="p" cx="322.32" cy="950.24" rx="8" ry="11.71"/><path class="m" d="M492.51,1000.34s-14,3.81-16.32,9.08a32.43,32.43,0,0,0-2.2,18.33c1.17,6.06-8.32-10.71-8.32-10.71s-15.05-11.35-8.61-16.7S493,990.08,492.51,1000.34Z" transform="translate(-145.87 -77.93)"/><path class="r" d="M536.56,1101.85l-.59.18c-10.07,3-49.64,17.78-63.05,17.39-11.24-.33-16-2.78-17.47-7V1109a53.2,53.2,0,0,1,.64-8l80.47-6.45c0,.12,0,.23,0,.34C536.39,1098.54,537.38,1096.18,536.56,1101.85Z" transform="translate(-145.87 -77.93)"/><path class="p" d="M608.37,1036.55l10.86-5.1,9.46-6.09s7.23-10,12.73-10.58c11-1,16.72,17.72,6.69,20.83-13.46,4.18-24,7.52-24,7.52l-8.48,8.82Z" transform="translate(-145.87 -77.93)"/><path class="o" d="M467.08,1115.63c-11.16-2.13-16.05-20-6.9-33,7-9.9,86.95-15.13,86.95-15.13l63.24-31.88,7.14,15s-49,39.21-57.74,42.45C550,1096.7,475.23,1117.19,467.08,1115.63Z" transform="translate(-145.87 -77.93)"/><path class="s" d="M401.88,1464.78s-15.66,16.22-4.49,18.59c19.16,4.07,32.32,12.18,46.45,12.56,9.84.27,19.07-1.15,15.82-6.2-6.17-9.59-11.06-1.86-20.6-10.82-9.34-8.78-10.25-14.13-10.25-14.13Z" transform="translate(-145.87 -77.93)"/><path class="s" d="M536.8,1473.68s12.56,7.41,26.61,10c4.8.89,20.81,12.4-.75,12-17.94-.37-52.59,1.47-53.16-1.25-1-4.88,2.38-20.7,6.38-20.7Z" transform="translate(-145.87 -77.93)"/><path class="t" d="M578.14,1153.45s27.58,10.65,30.23,20.22-.44,26.57-4.3,26.57-.23-14.68-1.55-17.69c-2.83-6.48-12.36-3.77-17.85-7.21-3.92-2.44-9.47-8-9.47-8Z" transform="translate(-145.87 -77.93)"/><path class="t" d="M591.17,1170s.52,11.5,4.29,13.39,5.84-5,2.75-9.44S591.17,1170,591.17,1170Z" transform="translate(-145.87 -77.93)"/><path class="t" d="M630.31,1022.75s-17,5-14.6,10.36l3.52-1.66s-3.37,3,.86,2.6S630.31,1022.75,630.31,1022.75Z" transform="translate(-145.87 -77.93)"/><path class="u" d="M762.38,1256s-25.75,7.9-32.62,9.27-27.82,1.72-18.89,7.9,74.18,3.59,74.18,3.59l.08-20.76Z" transform="translate(-145.87 -77.93)"/><path class="u" d="M930.29,1254.86s23.55,6.8,30.41,8.17,28.26,7.54,19.33,13.72-70.44-.54-70.44-.54l-.09-20.76Z" transform="translate(-145.87 -77.93)"/><path class="v" d="M930.29,1254.86,910.05,1256s-6.87-47.73-9.62-67.65S903,1146.1,903,1146.1l-57.17-71.6-67.49,69.32c1.94,8,4.12,19.5,4.12,38.34,0,26.57,2.66,73.83,2.66,73.83H762.38s-24.73-84.91-27.81-108.86c-2.67-20.62,44.62-82.13,57.83-98.85,2.14-2.71,3.38-4.24,3.38-4.24l79.37-29.25s3,5,7.56,13.08c16.43,28.6,54,95.16,55.84,108.19C940.87,1152.76,930.29,1254.86,930.29,1254.86Z" transform="translate(-145.87 -77.93)"/><path class="s" d="M783.89,849.24c-2.09-9.33-7.07-18.39-15.18-23.45-6.76-4.21-15-5.29-23-5-9.57.28-20.34,3.24-24.65,11.79-1.35,2.68-2,5.77-3.93,8.05-2.77,3.23-7.55,4.08-10.46,7.17-3.09,3.28-3.36,8.47-1.81,12.69s4.63,7.69,7.72,11c7.83,8.31,16.37,16.25,26.69,21.14s22.72,6.4,33.14,1.73C789,886.85,787.26,864.26,783.89,849.24Z" transform="translate(-145.87 -77.93)"/><path class="p" d="M1012.09,849.05s-22.33-5.89-19.43-.24c1.32,2.57,9.25,5.34,9.25,5.34s-22.38-7.35-21.31,2.59.7,16.59,13,15.4a67.24,67.24,0,0,0,23-7.07Z" transform="translate(-145.87 -77.93)"/><path class="r" d="M882.71,1027.87c-23.21,12.35-77.2,19-90.31,20.41,2.14-2.71,3.38-4.24,3.38-4.24l79.37-29.25S878.1,1019.83,882.71,1027.87Z" transform="translate(-145.87 -77.93)"/><path class="w" d="M769.94,914.67s-22,9.41-32.28,26.93-25.24,41.72-25.24,41.72l-59.24,29.36,7.21,17.37s61.81-18.4,71.6-25.09,28.48-33.12,28.48-33.12l35.31,72.2,79.38-29.26-26.62-84.26s59.29-1.44,63.92-3.5,61-54.74,61-54.74L959.81,856.6,901,897.3s-93.51-.89-110.75,6C781.36,906.84,769.94,914.67,769.94,914.67Z" transform="translate(-145.87 -77.93)"/><path class="x" d="M767.47,922.72s12.36,12.57,22,13.07c0,0,5.91-14.76,0-22.7C789.49,913.09,788.82,932.73,767.47,922.72Z" transform="translate(-145.87 -77.93)"/><path class="r" d="M769,943.35l1.61-8.62s16.87,3.51,18.91,1.06l-22-5.12Z" transform="translate(-145.87 -77.93)"/><path class="y" d="M764.08,915.3s-11,8-2,19.21,6.84,8.84,6.84,8.84l.24-10a49.58,49.58,0,0,0,12.31,2.17c5.56.31,8,.28,8,.28s-16.15-6.19-19.93-11.36A52.15,52.15,0,0,1,764.08,915.3Z" transform="translate(-145.87 -77.93)"/><path class="y" d="M785.13,904.54s12.7-5,17.25,8.68,3.77,10.53,3.77,10.53l-8.57-5.18a49.3,49.3,0,0,1-4.79,11.54c-2.72,4.85-3.3,5.68-3.3,5.68s2.72-15.75.39-21.72A51.58,51.58,0,0,0,785.13,904.54Z" transform="translate(-145.87 -77.93)"/><polygon class="r" points="660.28 845.81 650.6 844.19 651.72 840.64 660.28 845.81"/><path class="t" d="M784.22,924.09l-2.9,1.63a10.2,10.2,0,0,1-14.05-4.23l-5.22-10.13L757.76,903l-4.29-8.32L775,881.41c.37.62,2.79,5.87,5.7,12.28l.05.1c.24.53.48,1.07.74,1.61h0c2.37,5.23,5,11,7,15.59A10.19,10.19,0,0,1,784.22,924.09Z" transform="translate(-145.87 -77.93)"/><path class="r" d="M773.81,909.08c-4.33,1.68-9.06.68-13.1-1.06l-4.29-8.33,22.93-9.33,0,.1a16.49,16.49,0,0,1,.73,1.6h0C781.67,895.88,784.07,905.08,773.81,909.08Z" transform="translate(-145.87 -77.93)"/><path class="t" d="M725.12,855.92A53.43,53.43,0,0,0,732,887c10,17.07,27.82,23.85,37.61,18.55C791.09,893.89,784,873.62,784,872.59S771.5,831.53,755,835,723.69,842.79,725.12,855.92Z" transform="translate(-145.87 -77.93)"/><path class="t" d="M654.05,1014.78s-21.65-2-21.3,1.91c.41,4.67,8.25,3.43,8.25,3.43s-19.8,3.94-20.78,7.63-2.07,10.27,9.26,11.11,30.91-8.81,30.91-8.81Z" transform="translate(-145.87 -77.93)"/><path class="t" d="M959.81,856.6s27.22-21.84,30.77-16.87-10.26,8.48-10.26,8.48,21.5-8.44,24.46-2.84,12.43,16.19,0,19.81-31.36,7.1-31.36,7.1Z" transform="translate(-145.87 -77.93)"/><path class="t" d="M785.7,858.26c1.15,5.85-.33,11.07-3.3,11.66s-6.33-3.68-7.48-9.54.33-11.07,3.3-11.66S784.55,852.41,785.7,858.26Z" transform="translate(-145.87 -77.93)"/><path class="t" d="M729.35,878.55c4.84,3.49,7.33,8.31,5.56,10.77s-7.14,1.64-12-1.85-7.33-8.31-5.56-10.77S724.51,875.07,729.35,878.55Z" transform="translate(-145.87 -77.93)"/><path class="s" d="M756.61,847.45c-3.51,4-8.08,6.92-12.58,9.77L748,845.56c-1.8,5-6.77,7.94-11.25,10.74s-9.22,6.43-10,11.66a13.19,13.19,0,0,1-.51,3,2.33,2.33,0,0,1-2.27,1.62c-1.23-.17-1.8-1.59-2.1-2.8a66,66,0,0,1-1.86-18.2c.18-4.55.9-9.3,3.58-13,3.82-5.27,10.74-7.26,17.23-7.81,4.34-.37,17-1.51,20.26,2S759.09,844.62,756.61,847.45Z" transform="translate(-145.87 -77.93)"/><polygon class="z" points="968.24 756.83 935.55 771.85 868.49 788.02 866.74 775.51 973.63 704.1 986.22 748.6 968.24 756.83"/><path class="aa" d="M1114.23,1126.27s-11.58,12-16.43,15.4-38.57,1.09-27.92,10.54h49.61c3.65,0,32.31-16.82,32.31-16.82s-5.52-22.1-13-19.09Z" transform="translate(-145.87 -77.93)"/><polygon class="p" points="995.32 671.84 966.17 683.18 964.01 677.63 956.47 658.24 951.94 646.55 977.73 629.21 995.32 671.84"/><path class="r" d="M1124.5,722.41s-3.46,27.32-14.62,33.15l-7.54-19.39Z" transform="translate(-145.87 -77.93)"/><path class="p" d="M1067.69,691.54s-2.65,12.64,6,30.75c1.42,3,17.09,26,25.89,24.43,18.44-3.39,21-11.86,25-24.32,3.08-9.64-2.8-26.38-2.8-26.38S1095,652.47,1067.69,691.54Z" transform="translate(-145.87 -77.93)"/><path class="ab" d="M1216,919.76s-5,46.15-64.15,67.32c-55.21,19.77-56.77,21-56.77,21s25,33.82,25.55,50.43c.36,10.58,18.27,57.8,18.27,57.8l-24.62,10-66-119.8Z" transform="translate(-145.87 -77.93)"/><path class="ac" d="M1206.88,940.21c-33.07,38-122.72,66-122.72,66s2.74,22.11,3.12,29.24c.57,10.45-5,25.3-5.22,33.73-.63,25.31-2.5,62-2.5,62l-26.38,3.57s-19.87-141.6-2.55-163.93c24.32-31.33,69.27-52.76,88.19-62.94h0c5.48-2.94,8.78-5,8.78-6a13,13,0,0,0-.37-3.49c-.31-1.09-.73-1.1-.74-1.1l53.13-19.45a69.64,69.64,0,0,1,6.31,8.37,64.57,64.57,0,0,1,9.2,21.07C1217.38,917.62,1216.31,929.39,1206.88,940.21Z" transform="translate(-145.87 -77.93)"/><path class="ad" d="M1215.13,907.26c-22.84,9.63-76.31.6-76.31.6h0c5.48-2.94,8.78-5,8.78-6a13,13,0,0,0-.37-3.49l58.7-12.18A64.57,64.57,0,0,1,1215.13,907.26Z" transform="translate(-145.87 -77.93)"/><path class="ae" d="M1210.46,894.14l-65.61,10.27v0c-.75-1.51-40.87-82-40.87-99.43,0-14.12,4.28-35.71,6-43.72.42-2,.68-3.12.68-3.12l29.3-11.41S1189,758.29,1194,843.26Z" transform="translate(-145.87 -77.93)"/><path class="r" d="M1139,800.08c-24,34.33,5.44,102.85,5.88,104.31-.75-1.51-40.87-82-40.87-99.43,0-14.12,4.28-35.71,6-43.72a43.74,43.74,0,0,1,19.9-7S1163.17,765.39,1139,800.08Z" transform="translate(-145.87 -77.93)"/><path class="af" d="M1118.05,757.41s-12.46,8-25.16,25.91-28.88,38-28.88,38l-60.33,16.33,6.48,19.44s55.8-7.31,64.92-15.45c14-12.51,60.17-36.38,69.14-57.31S1133.75,750.57,1118.05,757.41Z" transform="translate(-145.87 -77.93)"/><path class="p" d="M1005,839.52s-22.33-5.89-19.43-.24c1.32,2.56,9.25,5.33,9.25,5.33s-22.38-7.35-21.31,2.59.7,16.6,13,15.41a67.14,67.14,0,0,0,23-7.07Z" transform="translate(-145.87 -77.93)"/><path class="s" d="M1054.7,1134.73s-52.79,8.83-53.64,13.16,0,4.32,1.13,4.32h84.19s-4.29-21.78-9.54-21.07Z" transform="translate(-145.87 -77.93)"/><path class="s" d="M1094.59,705.31c-2.12-3.3-5.75-5.93-9.67-5.76-6.27.27-4,7.72-9.84,10-6.67,2.59-17.34,4.78-23.84-1.19-5.28-4.83-1.83-18.46,2.37-24.26s11.29-13.59,17.84-16.46c10.86-4.76,23-6.94,34.72-4.88s10.9,7.49,17.27,17.49,14.71,22.48,9,32.85c-2.38,4.29-2.39,4.9-7,6.51-7.81,2.71-6.69-.61-13.05-4.89S1098.52,711.43,1094.59,705.31Z" transform="translate(-145.87 -77.93)"/><path class="p" d="M1111.13,708.33c2.29,6.11,1.25,12.16-2.34,13.51s-8.35-2.52-10.65-8.63-1.24-12.16,2.34-13.51S1108.83,702.22,1111.13,708.33Z" transform="translate(-145.87 -77.93)"/><path class="aa" d="M1451.27,1002.26s-13.52,27.7-8.11,30.4,39.35,2,58.44,2.7c13.25.52,10.51-8.78,6.79-11.14s-7.87-4-20.71-6.66-11.71-11.43-11.71-11.43Z" transform="translate(-145.87 -77.93)"/><path class="s" d="M1525,500.34c-1.22-8.76-9.79-14.73-18.34-17a44.05,44.05,0,0,0-25.32,84.33c-1.74-.59,5.89-17.54,6.77-19.09a60.18,60.18,0,0,1,13.49-16.3C1511.34,524.05,1527.19,516.08,1525,500.34Z" transform="translate(-145.87 -77.93)"/><path class="ag" d="M1449.58,1002.59l23-107.43,15.76-142.42,55.59,13.61L1491.61,979.2l-12.5,33.1S1454.64,1013.74,1449.58,1002.59Z" transform="translate(-145.87 -77.93)"/><polygon class="p" points="1367.28 522.42 1337.42 515.32 1335.54 483.24 1364.51 482.37 1364.73 485.53 1366.18 506.44 1367.28 522.42"/><path class="r" d="M1512,584.37c-7.14-.45-22.16-10.23-22.16-10.23l20.71-10.68Z" transform="translate(-145.87 -77.93)"/><path class="p" d="M1512,505.53l5.65,28.84s7,2.15,7,4.58-5.52,5.79-5.52,5.79,4,12.67,2,17.74c-2.69,6.74-28.93,17.57-34,11.1s-23.1-30.72-23.64-42.85S1489.08,497.72,1512,505.53Z" transform="translate(-145.87 -77.93)"/><path class="p" d="M1478.1,556.08c-2.12,2.62-7.1,2.1-11.11-1.16s-5.55-8-3.42-10.65,7.1-2.09,11.12,1.17S1480.23,553.47,1478.1,556.08Z" transform="translate(-145.87 -77.93)"/><path class="s" d="M1525.87,1011l9.74,5.93s24.23,8.2,26.93,11.24,1.77,7.4,1.77,7.4-38.48-.25-46.25-.59-21.32.85-22.89-2c-2.64-4.77,4.37-22,4.37-22Z" transform="translate(-145.87 -77.93)"/><path class="ah" d="M1551.46,720.58s-.12,7.29-.32,18.66c-.66,37.37-2.17,118.84-3,130-1.12,14.49-21.79,102.75-23.19,115.48s3,26.36,3,26.36c-16.76,9.66-27.56,1.46-29,1.46s-4.13-69,.9-97.54-7.45-119.43-7.45-119.43c-21.09-10.73-13.82-45.81-8.62-63.31,1.83-6.14,3.4-10.11,3.4-10.11Z" transform="translate(-145.87 -77.93)"/><path class="p" d="M1572.15,536.39c-.66-1.3,8.12,0,9.2-1,.62-.55,1.23.93,2.06,1,9,.19,18-1.12,27-.93a79.92,79.92,0,0,1-.88,14.5c-.2,1.21-17.7,6.76-21,4.45C1584.86,551.84,1574.58,540,1572.15,536.39Z" transform="translate(-145.87 -77.93)"/><path class="ai" d="M1525.19,598.86l46.92-.26,16.4-44.21,21-4.45s-14.91,70.23-20.58,73.68c-6.48,3.94-61,6-61,6l-16.5-33Z" transform="translate(-145.87 -77.93)"/><path class="aj" d="M1551.46,720.58s-.12,7.29-.32,18.66c-2.2.54-4.6,1.1-7.24,1.68-24.33,5.36-49.29-3.84-60.11-8.7,1.83-6.14,3.4-10.11,3.4-10.11Z" transform="translate(-145.87 -77.93)"/><path class="e" d="M1483.09,589.89s25.08-.57,30.06,1.67c30.44,13.71,38.69,49.42,38.69,49.42s.33,16.43,0,34.29c-.38,20.07.16,26.77-.38,50.49,0,0-43.69,9.24-64.44-1.27,0,0,1.12-32.34,1.12-41.77s-16.44-53.09-17.25-57.4S1477.43,599.86,1483.09,589.89Z" transform="translate(-145.87 -77.93)"/><path class="d" d="M1491.47,603.42c.52-.1,29.07,10.62,41.15,14.87,6.14,2.16,13.3-30.58,12.62-57.12h17.45v50c0,12.78,1.36,28.8-15.08,30.69s-46.15,2-50.2.16-22-7.52-22-18.57A20,20,0,0,1,1491.47,603.42Z" transform="translate(-145.87 -77.93)"/><polygon class="ak" points="1511.78 458.46 1385.93 458.46 1385.93 446.33 1511.78 441.75 1511.78 458.46"/><polygon class="al" points="1563.68 458.46 1511.78 458.46 1511.78 441.48 1564.01 438.27 1563.68 458.46"/><polygon class="am" points="1616.14 457.2 1566.11 458.46 1566.11 437.74 1616.14 435.39 1616.14 457.2"/><path class="l" d="M1531,539.54h0a1.6,1.6,0,0,1-1.6-1.6V523.52a1.6,1.6,0,0,1,1.6-1.6h0a1.6,1.6,0,0,1,1.6,1.6v14.42A1.6,1.6,0,0,1,1531,539.54Z" transform="translate(-145.87 -77.93)"/><path class="l" d="M1657.64,539.54h0a1.6,1.6,0,0,1-1.6-1.6V519.09a1.6,1.6,0,0,1,1.6-1.6h0a1.6,1.6,0,0,1,1.6,1.6v18.85A1.6,1.6,0,0,1,1657.64,539.54Z" transform="translate(-145.87 -77.93)"/><rect class="l" x="1434.85" y="442.87" width="3.2" height="16.83" rx="1.6"/><path class="l" d="M1711,539.54h0a2.21,2.21,0,0,1-2.2-2.2V515.52a2.21,2.21,0,0,1,2.2-2.2h0a2.2,2.2,0,0,1,2.2,2.2v21.82A2.2,2.2,0,0,1,1711,539.54Z" transform="translate(-145.87 -77.93)"/><rect class="l" x="1613.23" y="425.9" width="16.94" height="41.29" rx="2.2"/><path class="p" d="M1545.87,546.06l-11.33-9.67h11.71s-3.21-15.78,0-16.71a3.31,3.31,0,0,1,4.18,2.24s-.75-5.83,2.77-5.72,3.62,4.48,3.62,4.48-.53-4.27,2.24-3.95,3.41,3.52,3.41,3.52-.32-3.84,2.88-3.41,3.09,1.71,3.63,5.07-.43,12.3-1.39,16.77-4.9,22.49-4.9,22.49h-17.45Z" transform="translate(-145.87 -77.93)"/><path class="p" d="M1582.32,522.27s2.07,11.59,6.67,7.71,1.53-13.34-2.57-10.52Z" transform="translate(-145.87 -77.93)"/><path class="p" d="M1591.08,520.93s2.71,11.23,6.31,7.9.22-12.61-3.05-10.26Z" transform="translate(-145.87 -77.93)"/><path class="p" d="M1574.46,523.54s2.71,11.23,6.31,7.9.22-12.61-3-10.26Z" transform="translate(-145.87 -77.93)"/><path class="p" d="M1598.91,521s2.79,11.18,6.26,7.92,0-12.51-3.11-10.22Z" transform="translate(-145.87 -77.93)"/><path class="s" d="M1487,523.49l7.47-6.82c-4.49-1.84-10,.17-13,3.94s-4,8.91-3.56,13.75.53,13.5,2.16,18.07c-3-7.07-9.15-10.84-16.69-9.44-2.41-9.69-2.14-25,2.43-33.89s13.08-15.84,22.89-17.75c8.07-1.56,27.53,1.44,26.25,13.26C1513.87,514.93,1495.48,521.81,1487,523.49Z" transform="translate(-145.87 -77.93)"/><rect class="an" x="1912.66" y="1444.89" width="224.7" height="20.96"/><rect class="an" x="2008.69" y="497.63" width="27.86" height="955.11"/><ellipse class="ao" cx="2016.29" cy="482.37" rx="67.02" ry="203.3"/><ellipse class="c" cx="2008.69" cy="482.37" rx="59.42" ry="203.3"/><ellipse class="x" cx="2008.69" cy="482.37" rx="51.36" ry="175.72"/><ellipse class="c" cx="2008.69" cy="482.37" rx="40.45" ry="138.39"/><ellipse class="x" cx="2008.69" cy="482.37" rx="27.86" ry="95.34"/><ellipse class="c" cx="2008.69" cy="482.37" rx="19.07" ry="65.24"/><polygon class="c" points="86.09 555.81 0 591.19 4.08 623.29 86.09 555.81"/><polygon class="ao" points="4.08 623.29 11.61 622.13 9.18 628.87 86.09 555.81 4.08 623.29"/><polygon class="c" points="86.23 555.78 22.9 663.4 9.18 628.87 86.23 555.78"/><polygon class="ao" points="1613.17 226.99 1579.58 263.8 1735.27 325.26 1616.07 219.66 1613.17 226.99"/><polygon class="c" points="1615.94 238.1 1611.35 304.07 1735.27 325.26 1615.94 238.1"/><polygon class="c" points="1616.07 219.66 1735.27 325.26 1596.25 170.24 1616.07 219.66"/><polygon class="ap" points="1615.94 238.1 1613.23 277.08 1579.58 263.8 1615.94 238.1"/><path class="aq" d="M683.07,413.61h-.5V465h51.74v-.1A51.25,51.25,0,0,0,683.07,413.61Z" transform="translate(-145.87 -77.93)"/><path class="ar" d="M682.57,521.61A56.66,56.66,0,1,1,739.23,465,56.72,56.72,0,0,1,682.57,521.61Zm0-110.33A53.68,53.68,0,1,0,736.24,465,53.74,53.74,0,0,0,682.57,411.28Z" transform="translate(-145.87 -77.93)"/><rect class="ar" x="536.46" y="341.55" width="0.69" height="13.17"/><rect class="ar" x="536.46" y="418.49" width="0.69" height="13.17"/><rect class="ar" x="491.92" y="386.14" width="13.32" height="0.69"/><rect class="ar" x="568.8" y="386.14" width="13.32" height="0.69"/><rect class="ar" x="697.95" y="429.06" width="9.57" height="0.69" transform="translate(-166.97 744.25) rotate(-59.91)"/><rect class="ar" x="713.15" y="443.95" width="9.36" height="0.69" transform="translate(-272.07 349.64) rotate(-30.62)"/><rect class="ar" x="657.78" y="499.11" width="9.4" height="0.69" transform="translate(-248.45 742.48) rotate(-59.77)"/><rect class="ar" x="643.14" y="484.34" width="9.69" height="0.69" transform="matrix(0.87, -0.5, 0.5, 0.87, -301.4, 311.02)"/><rect class="ar" x="647.63" y="439.58" width="0.69" height="9.67" transform="translate(-203.71 711.75) rotate(-60.51)"/><rect class="ar" x="717.47" y="480.19" width="0.69" height="9.2" transform="translate(-206.8 786.09) rotate(-60)"/><rect class="ar" x="701.74" y="495.46" width="0.69" height="9.48" transform="translate(-301.06 331.73) rotate(-29.44)"/><polygon class="ar" points="517.72 356.74 512.89 348.5 513.48 348.15 518.31 356.39 517.72 356.74"/><rect class="ar" x="536.86" y="386.09" width="46.02" height="1.49"/><path class="ar" d="M685.64,464.61a2.92,2.92,0,1,1-2.91-2.92A2.91,2.91,0,0,1,685.64,464.61Z" transform="translate(-145.87 -77.93)"/><rect class="c" x="219.63" y="653.12" width="51.77" height="0.57"/><rect class="c" x="290.57" y="653.12" width="51.77" height="0.57"/><rect class="c" x="225.59" y="573.29" width="7.04" height="37.34"/><rect class="c" x="236.67" y="579.64" width="7.05" height="30.99"/><rect class="c" x="247.74" y="591.96" width="7.04" height="18.67"/><rect class="c" x="258.81" y="507.81" width="7.05" height="102.82"/><rect class="c" x="296.54" y="523.72" width="7.05" height="86.91"/><rect class="c" x="307.61" y="507.81" width="7.05" height="102.82"/><rect class="c" x="318.68" y="517.21" width="7.05" height="93.42"/><rect class="c" x="329.76" y="548.65" width="7.04" height="61.98"/><rect class="c" x="219.63" y="501.73" width="51.77" height="0.58"/><rect class="c" x="290.57" y="501.73" width="51.77" height="0.58"/><rect class="c" x="219.63" y="614.83" width="51.77" height="0.57"/><rect class="c" x="290.57" y="614.83" width="51.77" height="0.57"/><path class="c" d="M452,706l-9.44,17.73h-3l10-18.4H437.74v-2.46H452Z" transform="translate(-145.87 -77.93)"/><path class="c" d="M470.68,717.88h-3.09v5.87h-2.7v-5.87h-10v-3.22L465,702.89h2.58v12.75h3.09Zm-5.79-2.24v-9.41l-8.08,9.41Z" transform="translate(-145.87 -77.93)"/><path class="c" d="M479.17,705.37a3.19,3.19,0,0,1-.6,2.12,2.17,2.17,0,0,1-1.73.69,2.2,2.2,0,0,1-1.76-.69,3.24,3.24,0,0,1-.59-2.11,3.17,3.17,0,0,1,.61-2.12,2.16,2.16,0,0,1,1.74-.7,2.19,2.19,0,0,1,1.74.7A3.24,3.24,0,0,1,479.17,705.37Zm-1.14,0a3,3,0,0,0-.28-1.53,1,1,0,0,0-.91-.43,1,1,0,0,0-.93.43,3,3,0,0,0-.28,1.54,2.9,2.9,0,0,0,.28,1.52,1,1,0,0,0,.93.43,1,1,0,0,0,.91-.43A2.92,2.92,0,0,0,478,705.37Zm5.53-2.63-5,9.47h-1l4.95-9.47Zm3.06,6.85a3.16,3.16,0,0,1-.61,2.11,2.51,2.51,0,0,1-3.48,0,3.24,3.24,0,0,1-.59-2.11,3.14,3.14,0,0,1,.61-2.12,2.53,2.53,0,0,1,3.47,0A3.19,3.19,0,0,1,486.62,709.59Zm-1.13,0a3,3,0,0,0-.29-1.53,1,1,0,0,0-.92-.43,1,1,0,0,0-.93.43,4.32,4.32,0,0,0,0,3.06,1,1,0,0,0,.93.43,1,1,0,0,0,.92-.43A3,3,0,0,0,485.49,709.59Z" transform="translate(-145.87 -77.93)"/><path class="c" d="M410.77,704.7a3.34,3.34,0,0,1-.63,2.22,2.66,2.66,0,0,1-3.66,0,3.4,3.4,0,0,1-.62-2.22,3.31,3.31,0,0,1,.63-2.22,2.29,2.29,0,0,1,1.83-.73,2.24,2.24,0,0,1,1.83.74A3.35,3.35,0,0,1,410.77,704.7Zm-1.19,0a3.1,3.1,0,0,0-.3-1.61,1,1,0,0,0-1-.45,1.08,1.08,0,0,0-1,.45,4.61,4.61,0,0,0,0,3.22,1.08,1.08,0,0,0,1,.45,1,1,0,0,0,1-.45A3.1,3.1,0,0,0,409.58,704.7Zm5.8-2.77-5.2,10h-1.11l5.21-10Zm3.21,7.19a3.35,3.35,0,0,1-.63,2.23,2.32,2.32,0,0,1-1.83.72,2.27,2.27,0,0,1-1.83-.73,4.26,4.26,0,0,1,0-4.44,2.69,2.69,0,0,1,3.66,0A3.4,3.4,0,0,1,418.59,709.12Zm-1.19,0a3.08,3.08,0,0,0-.3-1.6,1.06,1.06,0,0,0-1-.45,1.09,1.09,0,0,0-1,.45,3.23,3.23,0,0,0-.29,1.61,3.16,3.16,0,0,0,.29,1.6,1.07,1.07,0,0,0,1,.45,1,1,0,0,0,1-.45A3.05,3.05,0,0,0,417.4,709.12Z" transform="translate(-145.87 -77.93)"/><path class="c" d="M383.83,724.3H368.78v-3.11l3.14-2.69c1.05-.9,2-1.79,2.93-2.67a28.87,28.87,0,0,0,3.93-4.42,6.35,6.35,0,0,0,1.06-3.53,3.38,3.38,0,0,0-1.14-2.71,4.75,4.75,0,0,0-3.19-1,10.17,10.17,0,0,0-2.94.48,12.23,12.23,0,0,0-3.09,1.46h-.15V703a16,16,0,0,1,6.25-1.39,8,8,0,0,1,5.37,1.65,5.57,5.57,0,0,1,1.94,4.47,8.18,8.18,0,0,1-.33,2.37,7.78,7.78,0,0,1-.94,2.08,14.21,14.21,0,0,1-1.37,1.82c-.52.6-1.16,1.26-1.9,2-1.07,1-2.16,2-3.3,3s-2.2,1.89-3.18,2.73h12Z" transform="translate(-145.87 -77.93)"/><path class="c" d="M403.78,718.05h-3.31v6.25h-2.86v-6.25H387v-3.44l10.76-12.54h2.74v13.59h3.31Zm-6.17-2.39v-10l-8.61,10Z" transform="translate(-145.87 -77.93)"/><path class="as" d="M996.38,278.23c2.53,7.68,9.58,7.67,12.11,0a4.25,4.25,0,0,0,1.83-2.81c.15-1.12.06-2.61-1.08-2.61-.24-3.6-2.22-6.65-6.71-6.65s-6.63,2.64-6.9,6.65c-1.14,0-1.22,1.49-1.07,2.61A4.2,4.2,0,0,0,996.38,278.23Z" transform="translate(-145.87 -77.93)"/><path class="as" d="M1043.47,278.23c2.53,7.67,9.57,7.68,12.1,0a4.21,4.21,0,0,0,1.83-2.81c.15-1.12.07-2.61-1.07-2.61-.28-4-2.51-6.65-6.9-6.65s-6.47,3-6.72,6.65c-1.13,0-1.22,1.49-1.07,2.61A4.25,4.25,0,0,0,1043.47,278.23Z" transform="translate(-145.87 -77.93)"/><path class="as" d="M1058.34,284.46l-2.86-.59-6,11.88-6-11.88-2.86.59a8.51,8.51,0,0,0-5.67,4.09l-8.57,18.64a.53.53,0,0,1-1,0l-8.57-18.64a8.53,8.53,0,0,0-5.67-4.09l-2.87-.59-5.95,11.88-6-11.88-2.86.59a8.25,8.25,0,0,0-6.71,8v21.87a5.32,5.32,0,0,0,5.32,5.32v32.51a5.32,5.32,0,0,0,5.32,5.32h9.78a5.32,5.32,0,0,0,5.32-5.32V299.76a.65.65,0,0,1,1.24-.27l8.74,19a3.71,3.71,0,0,0,6.7,0l8.74-19a.65.65,0,0,1,1.24.27v52.38a5.32,5.32,0,0,0,5.32,5.32h9.78a5.32,5.32,0,0,0,5.32-5.32V319.63a5.32,5.32,0,0,0,5.32-5.32V292.44A8.25,8.25,0,0,0,1058.34,284.46Z" transform="translate(-145.87 -77.93)"/><path class="at" d="M475.39,302c1.68,7.83,6.35,7.82,8,0a4.83,4.83,0,0,0,1.21-2.86c.1-1.14,0-2.66-.71-2.66-.16-3.68-1.48-6.78-4.45-6.78s-4.4,2.69-4.58,6.78c-.75,0-.81,1.52-.71,2.66A4.83,4.83,0,0,0,475.39,302Z" transform="translate(-145.87 -77.93)"/><path class="at" d="M485.26,308.38l-1.9-.61-4,12.11-3.95-12.11-1.9.61c-2.59.83-4.45,4.22-4.45,8.13V338.8c0,3,1.58,5.43,3.53,5.43v33.15c0,3,1.58,5.42,3.53,5.42h6.49c2,0,3.53-2.43,3.53-5.42V344.23c1.95,0,3.53-2.43,3.53-5.43V316.51C489.71,312.6,487.85,309.21,485.26,308.38Z" transform="translate(-145.87 -77.93)"/><path class="at" d="M430.74,302.81c0,2.07,1.09,3.74,2.43,3.74h6.09c1.34,0,2.43-1.67,2.43-3.74v-9.36c0-2.06-1.09-3.73-2.43-3.73h-6.09c-1.34,0-2.43,1.67-2.43,3.73Z" transform="translate(-145.87 -77.93)"/><path class="at" d="M430.74,379.2c0,2.06,1.09,3.74,2.43,3.74h6.09c1.34,0,2.43-1.68,2.43-3.74v-9.36c0-2.06-1.09-3.74-2.43-3.74h-6.09c-1.34,0-2.43,1.68-2.43,3.74Z" transform="translate(-145.87 -77.93)"/><path class="at" d="M430.74,341c0,2.06,1.09,3.73,2.43,3.73h6.09c1.34,0,2.43-1.67,2.43-3.73v-9.36c0-2.07-1.09-3.74-2.43-3.74h-6.09c-1.34,0-2.43,1.67-2.43,3.74Z" transform="translate(-145.87 -77.93)"/><polygon class="at" points="311.17 216.22 299.43 216.22 299.43 222.05 307.37 222.05 307.37 257.06 299.43 257.06 299.43 262.89 307.37 262.89 307.37 293.67 299.43 293.67 299.43 299.5 311.17 299.5 311.17 262.89 319.63 262.89 319.63 257.06 311.17 257.06 311.17 216.22"/><path class="at" d="M1450.38,275.64a7.24,7.24,0,0,0-7.24-7.24h-63.81a7.24,7.24,0,0,0-7.24,7.24v12.75h78.29Zm-57.22,7.62h-5.83V272.79h5.83Zm42,0h-5.83V272.79h5.83Z" transform="translate(-145.87 -77.93)"/><path class="at" d="M1381.18,329.23a15.71,15.71,0,1,0,15.7,15.7A15.7,15.7,0,0,0,1381.18,329.23Zm10.13,17h-10.13a1.35,1.35,0,0,1-1.36-1.35V334.46a1.36,1.36,0,0,1,2.71,0v9.12h8.78a1.35,1.35,0,0,1,0,2.7Z" transform="translate(-145.87 -77.93)"/><path class="at" d="M1372.06,293v35.19a18.83,18.83,0,0,1,5.4-1.95V298.39H1445v46.26a4.55,4.55,0,0,1-4.55,4.55h-40.7a18.85,18.85,0,0,1-2.16,5.4h42.86a10,10,0,0,0,10-10V293Z" transform="translate(-145.87 -77.93)"/><path class="at" d="M1418.48,310.66a25.94,25.94,0,0,1,3.6-.12v-7.13a26.92,26.92,0,0,0-3.72.06c-6.21.31-11.33,2.26-15.29,5.85-4.25,3.95-7,10.17-7,17.6,0,9.44,5.18,17.29,15.71,17.29a14.18,14.18,0,0,0,14.62-14.31c0-8.22-5.61-12.91-12.24-12.91a11.16,11.16,0,0,0-8.41,3.17h-.18C1406.61,315.53,1410.26,311.33,1418.48,310.66Zm-12.84,16.44a6,6,0,0,1,5.48-3.53c4,0,5.9,3.16,5.9,6.82,0,4-2.07,7-5.36,7-4.2,0-6.21-3.78-6.39-8A5.24,5.24,0,0,1,1405.64,327.1Z" transform="translate(-145.87 -77.93)"/><path class="au" d="M1313.19,132.49a54.56,54.56,0,1,1-54.57-54.56A54.57,54.57,0,0,1,1313.19,132.49Z" transform="translate(-145.87 -77.93)"/><path class="aq" d="M1258.62,187.05a54.56,54.56,0,0,1,0-109.12Z" transform="translate(-145.87 -77.93)"/><path class="av" d="M1204.07,132.49a54.56,54.56,0,0,1,54.55-54.56v54.55Z" transform="translate(-145.87 -77.93)"/><path class="aw" d="M1219.76,94.2a54.36,54.36,0,0,1,38.86-16.27v54.55Z" transform="translate(-145.87 -77.93)"/><path class="x" d="M1273.31,135.85v-.74a4,4,0,0,0,1.91.53,2.62,2.62,0,0,0,1.91-.68,2.4,2.4,0,0,0,.69-1.79c0-1.63-.93-2.44-2.78-2.44-.42,0-.89,0-1.43.08l.3-4.75h4.15v.59h-3.58l-.23,3.55c.48,0,.82-.06,1-.06a3.32,3.32,0,0,1,2.39.78,2.83,2.83,0,0,1,.82,2.16,3.09,3.09,0,0,1-.86,2.27,3.34,3.34,0,0,1-2.47.87A4.3,4.3,0,0,1,1273.31,135.85Z" transform="translate(-145.87 -77.93)"/><path class="x" d="M1283.13,136.22A2.42,2.42,0,0,1,1281,135a7.14,7.14,0,0,1-.78-3.69,8,8,0,0,1,.81-4,2.6,2.6,0,0,1,2.34-1.35q2.88,0,2.88,5.11a7.53,7.53,0,0,1-.81,3.88A2.54,2.54,0,0,1,1283.13,136.22Zm.16-9.74a2,2,0,0,0-1.79,1.18,7.68,7.68,0,0,0-.64,3.53,7.15,7.15,0,0,0,.62,3.3,1.92,1.92,0,0,0,1.74,1.15,1.89,1.89,0,0,0,1.72-1.17,7.39,7.39,0,0,0,.62-3.36Q1285.56,126.48,1283.29,126.48Z" transform="translate(-145.87 -77.93)"/><path class="x" d="M1289.77,131a2.13,2.13,0,0,1-1.69-.7,2.69,2.69,0,0,1-.62-1.83,2.59,2.59,0,0,1,.66-1.89,2.26,2.26,0,0,1,1.72-.68,2.13,2.13,0,0,1,1.66.67,2.7,2.7,0,0,1,.61,1.89,2.6,2.6,0,0,1-.64,1.81A2.12,2.12,0,0,1,1289.77,131Zm.06-4.53a1.61,1.61,0,0,0-1.27.53,2.2,2.2,0,0,0-.46,1.49,2.15,2.15,0,0,0,.45,1.43,1.69,1.69,0,0,0,2.48,0,2.19,2.19,0,0,0,.45-1.45,2.13,2.13,0,0,0-.45-1.48A1.55,1.55,0,0,0,1289.83,126.44Zm0,9.84h-.68l6-10.2h.67Zm5.45-.06a2.15,2.15,0,0,1-1.69-.7,2.68,2.68,0,0,1-.62-1.82,2.57,2.57,0,0,1,.67-1.91,2.29,2.29,0,0,1,1.71-.68,2.13,2.13,0,0,1,1.66.68,2.74,2.74,0,0,1,.61,1.89,2.65,2.65,0,0,1-.64,1.82A2.15,2.15,0,0,1,1295.23,136.22Zm.06-4.54a1.55,1.55,0,0,0-1.26.55,2.53,2.53,0,0,0,0,2.91,1.7,1.7,0,0,0,2.48,0,2.67,2.67,0,0,0,0-2.95A1.55,1.55,0,0,0,1295.29,131.68Z" transform="translate(-145.87 -77.93)"/><path class="x" d="M1231,159.72v-.27a2.49,2.49,0,0,1,0-.49,1.72,1.72,0,0,1,.14-.4,1.85,1.85,0,0,1,.23-.34,2.41,2.41,0,0,1,.32-.32,3.68,3.68,0,0,1,.41-.33l.5-.37c.17-.13.34-.25.49-.38a2.16,2.16,0,0,0,.4-.4,2,2,0,0,0,.27-.47,1.55,1.55,0,0,0,.1-.59,1.11,1.11,0,0,0-1.21-1.22,1.87,1.87,0,0,0-.76.17,3.36,3.36,0,0,0-.7.48v-.44a2.82,2.82,0,0,1,.72-.4,2.15,2.15,0,0,1,.8-.15,1.81,1.81,0,0,1,.63.11,1.35,1.35,0,0,1,.49.3,1.38,1.38,0,0,1,.31.47,1.71,1.71,0,0,1,.11.62,2,2,0,0,1-.12.71,1.79,1.79,0,0,1-.31.56,2.61,2.61,0,0,1-.47.47c-.17.14-.36.29-.56.43s-.48.35-.66.49a3.13,3.13,0,0,0-.45.43,1.5,1.5,0,0,0-.24.42,1.6,1.6,0,0,0-.08.51v.06h2.9v.34Z" transform="translate(-145.87 -77.93)"/><path class="x" d="M1235.58,159.61v-.43a2.32,2.32,0,0,0,1.11.3,1.56,1.56,0,0,0,1.12-.39,1.42,1.42,0,0,0,.4-1.05c0-.94-.54-1.42-1.62-1.42-.25,0-.53,0-.84,0l.17-2.77h2.43v.34h-2.09l-.14,2.07.6,0a2,2,0,0,1,1.4.45,1.66,1.66,0,0,1,.48,1.26,1.79,1.79,0,0,1-.51,1.33,1.91,1.91,0,0,1-1.43.51A2.6,2.6,0,0,1,1235.58,159.61Z" transform="translate(-145.87 -77.93)"/><path class="x" d="M1240.89,156.76a1.22,1.22,0,0,1-1-.41,1.74,1.74,0,0,1,0-2.17,1.33,1.33,0,0,1,1-.39,1.25,1.25,0,0,1,1,.39,1.57,1.57,0,0,1,.36,1.1,1.59,1.59,0,0,1-.37,1.06A1.27,1.27,0,0,1,1240.89,156.76Zm0-2.64a.91.91,0,0,0-.74.31,1.29,1.29,0,0,0-.27.87,1.27,1.27,0,0,0,.26.83.87.87,0,0,0,.72.31.91.91,0,0,0,.73-.32,1.31,1.31,0,0,0,.26-.85,1.26,1.26,0,0,0-.26-.86A.92.92,0,0,0,1240.93,154.12Zm0,5.74h-.4l3.5-6h.39Zm3.18,0a1.26,1.26,0,0,1-1-.41,1.57,1.57,0,0,1-.36-1.07,1.5,1.5,0,0,1,.39-1.11,1.36,1.36,0,0,1,1-.4,1.24,1.24,0,0,1,1,.4,1.58,1.58,0,0,1,.36,1.1,1.52,1.52,0,0,1-.37,1.06A1.27,1.27,0,0,1,1244.08,159.83Zm0-2.65a.94.94,0,0,0-.74.31,1.31,1.31,0,0,0-.27.87,1.25,1.25,0,0,0,.26.83.9.9,0,0,0,.73.31.87.87,0,0,0,.72-.31,1.53,1.53,0,0,0,0-1.72A.89.89,0,0,0,1244.11,157.18Z" transform="translate(-145.87 -77.93)"/><path class="x" d="M1217.46,116.24v6h-.37v-5.37a3,3,0,0,1-.64.47,5.69,5.69,0,0,1-.79.34v-.34c.17-.06.33-.12.48-.19a4.49,4.49,0,0,0,.42-.24c.13-.09.26-.18.39-.29l.38-.33Z" transform="translate(-145.87 -77.93)"/><path class="x" d="M1218.68,122.19v-.27a2.43,2.43,0,0,1,0-.49,1.62,1.62,0,0,1,.37-.74,3.13,3.13,0,0,1,.31-.33l.41-.32.51-.37.49-.38a2.52,2.52,0,0,0,.4-.4,2,2,0,0,0,.27-.48,1.52,1.52,0,0,0,.1-.59,1.11,1.11,0,0,0-1.22-1.21,1.79,1.79,0,0,0-.75.17,2.74,2.74,0,0,0-.7.48v-.44a2.85,2.85,0,0,1,.72-.41,2.36,2.36,0,0,1,.8-.14,1.81,1.81,0,0,1,.63.1,1.44,1.44,0,0,1,.49.3,1.33,1.33,0,0,1,.31.48,1.7,1.7,0,0,1,.11.61,2,2,0,0,1-.12.72,2.05,2.05,0,0,1-.31.56,2.61,2.61,0,0,1-.47.47c-.17.14-.36.28-.56.42l-.67.5a3.6,3.6,0,0,0-.44.42,1.42,1.42,0,0,0-.24.43,1.6,1.6,0,0,0-.08.51v.06h2.9v.34Z" transform="translate(-145.87 -77.93)"/><path class="x" d="M1223.5,122.26a.31.31,0,0,1-.33-.33.32.32,0,0,1,.09-.23.34.34,0,0,1,.24-.09.32.32,0,0,1,.23.09.29.29,0,0,1,.1.23.31.31,0,0,1-.1.24A.32.32,0,0,1,1223.5,122.26Z" transform="translate(-145.87 -77.93)"/><path class="x" d="M1225.07,122.07v-.43a2.29,2.29,0,0,0,1.12.31,1.53,1.53,0,0,0,1.11-.39,1.42,1.42,0,0,0,.4-1c0-1-.54-1.42-1.62-1.42a6.43,6.43,0,0,0-.83,0l.17-2.77h2.43v.34h-2.1l-.13,2.07.6,0a2,2,0,0,1,1.4.45,1.64,1.64,0,0,1,.47,1.26,1.76,1.76,0,0,1-.5,1.32,1.92,1.92,0,0,1-1.44.51A2.45,2.45,0,0,1,1225.07,122.07Z" transform="translate(-145.87 -77.93)"/><path class="x" d="M1230.39,119.23a1.26,1.26,0,0,1-1-.41,1.56,1.56,0,0,1-.36-1.07,1.53,1.53,0,0,1,.38-1.1,1.34,1.34,0,0,1,1-.4,1.22,1.22,0,0,1,1,.4,1.56,1.56,0,0,1,.35,1.1,1.51,1.51,0,0,1-.37,1A1.23,1.23,0,0,1,1230.39,119.23Zm0-2.65a.93.93,0,0,0-.74.32,1.47,1.47,0,0,0,0,1.7.89.89,0,0,0,.72.3.87.87,0,0,0,.72-.31,1.27,1.27,0,0,0,.26-.85,1.21,1.21,0,0,0-.26-.86A.87.87,0,0,0,1230.42,116.58Zm0,5.74h-.4l3.5-5.95h.39Zm3.17,0a1.22,1.22,0,0,1-1-.41,1.77,1.77,0,0,1,0-2.18,1.34,1.34,0,0,1,1-.39,1.22,1.22,0,0,1,1,.4,1.78,1.78,0,0,1,0,2.16A1.27,1.27,0,0,1,1233.57,122.29Zm0-2.65a.93.93,0,0,0-.74.32,1.29,1.29,0,0,0-.27.87,1.27,1.27,0,0,0,.26.83.93.93,0,0,0,.72.31.9.9,0,0,0,.73-.32,1.25,1.25,0,0,0,.26-.85,1.21,1.21,0,0,0-.26-.86A.88.88,0,0,0,1233.61,119.64Z" transform="translate(-145.87 -77.93)"/><path class="x" d="M1235.35,92.14v6H1235V92.73a3,3,0,0,1-.64.46,5.22,5.22,0,0,1-.79.35V93.2c.17-.06.33-.13.48-.2l.42-.23.39-.29.38-.34Z" transform="translate(-145.87 -77.93)"/><path class="x" d="M1236.57,98.1v-.28a2.49,2.49,0,0,1,0-.49,1.9,1.9,0,0,1,.14-.4,1.85,1.85,0,0,1,.23-.34,2.41,2.41,0,0,1,.32-.32,3.68,3.68,0,0,1,.41-.33l.5-.37c.17-.12.34-.25.49-.38a2.16,2.16,0,0,0,.4-.4,2,2,0,0,0,.27-.47,1.55,1.55,0,0,0,.1-.59,1.24,1.24,0,0,0-.32-.9,1.21,1.21,0,0,0-.89-.32,1.87,1.87,0,0,0-.76.17,3.36,3.36,0,0,0-.7.48v-.44a2.82,2.82,0,0,1,.72-.4,2.15,2.15,0,0,1,.8-.15,1.81,1.81,0,0,1,.63.11,1.35,1.35,0,0,1,.49.3,1.38,1.38,0,0,1,.31.47,1.71,1.71,0,0,1,.11.62,2,2,0,0,1-.12.71,1.79,1.79,0,0,1-.31.56,2.61,2.61,0,0,1-.47.47c-.17.14-.36.29-.56.43s-.48.35-.66.49a3.13,3.13,0,0,0-.45.43,1.42,1.42,0,0,0-.24.43,1.5,1.5,0,0,0-.08.5v.06h2.9v.35Z" transform="translate(-145.87 -77.93)"/><path class="x" d="M1241.39,98.17a.34.34,0,0,1-.33-.33.28.28,0,0,1,.1-.23.31.31,0,0,1,.46,0,.28.28,0,0,1,.1.23.34.34,0,0,1-.33.33Z" transform="translate(-145.87 -77.93)"/><path class="x" d="M1243,98v-.43a2.4,2.4,0,0,0,1.12.31,1.52,1.52,0,0,0,1.11-.4,1.39,1.39,0,0,0,.41-1c0-.94-.54-1.42-1.62-1.42-.25,0-.53,0-.84.05l.17-2.77h2.43v.34h-2.09l-.14,2.07.6,0a2,2,0,0,1,1.4.45,1.67,1.67,0,0,1,.48,1.26,1.79,1.79,0,0,1-.51,1.33,1.92,1.92,0,0,1-1.44.51A2.67,2.67,0,0,1,1243,98Z" transform="translate(-145.87 -77.93)"/><path class="x" d="M1248.28,95.13a1.23,1.23,0,0,1-1-.41,1.76,1.76,0,0,1,0-2.17,1.33,1.33,0,0,1,1-.39,1.25,1.25,0,0,1,1,.39,1.57,1.57,0,0,1,.36,1.1,1.55,1.55,0,0,1-.38,1.06A1.23,1.23,0,0,1,1248.28,95.13Zm0-2.64a.9.9,0,0,0-.73.31,1.29,1.29,0,0,0-.27.87,1.22,1.22,0,0,0,.26.83,1,1,0,0,0,1.44,0,1.51,1.51,0,0,0,0-1.71A.93.93,0,0,0,1248.31,92.49Zm0,5.74h-.4l3.5-6h.39Zm3.18,0a1.26,1.26,0,0,1-1-.41,1.57,1.57,0,0,1-.36-1.07,1.5,1.5,0,0,1,.39-1.11,1.35,1.35,0,0,1,1-.39,1.24,1.24,0,0,1,1,.39,1.6,1.6,0,0,1,.36,1.1,1.52,1.52,0,0,1-.37,1.06A1.24,1.24,0,0,1,1251.47,98.2Zm0-2.65a.92.92,0,0,0-.74.31,1.31,1.31,0,0,0-.27.87,1.25,1.25,0,0,0,.26.83.9.9,0,0,0,.72.31.88.88,0,0,0,.73-.31,1.27,1.27,0,0,0,.27-.85,1.24,1.24,0,0,0-.27-.87A.89.89,0,0,0,1251.5,95.55Z" transform="translate(-145.87 -77.93)"/><rect class="o" x="601.61" y="102.68" width="84.57" height="13.21"/><rect class="ax" x="601.61" y="116.43" width="84.57" height="52.33"/><rect class="ay" x="603.72" y="121.71" width="81.4" height="0.53"/><rect class="ay" x="603.72" y="133.87" width="81.4" height="0.53"/><rect class="ay" x="603.72" y="148.14" width="81.4" height="0.53"/><rect class="ay" x="603.72" y="162.41" width="81.4" height="0.53"/><rect class="ay" x="613.23" y="121.71" width="0.53" height="41.23"/><rect class="ay" x="625.92" y="121.71" width="0.53" height="41.23"/><rect class="ay" x="638.6" y="121.71" width="0.53" height="41.23"/><rect class="ay" x="651.29" y="121.71" width="0.53" height="41.23"/><rect class="ay" x="663.98" y="121.71" width="0.53" height="41.23"/><rect class="ay" x="676.66" y="121.71" width="0.53" height="41.23"/><rect class="ay" x="639.13" y="148.67" width="12.16" height="14.27"/><rect class="ay" x="625.92" y="121.71" width="12.69" height="12.16"/><path class="au" d="M1635.85,109.51h44.41a9.09,9.09,0,0,0,9.09-9.09V86.49h-15.58V78.1h-31.44v8.39h-15.58v13.93A9.09,9.09,0,0,0,1635.85,109.51Zm10.91-27h22.58v4h-22.58Z" transform="translate(-145.87 -77.93)"/><path class="au" d="M1618.36,159v-60h4.72V91.58H1611v69.49a29.06,29.06,0,0,1,6.55-2C1617.83,159,1618.1,159,1618.36,159Z" transform="translate(-145.87 -77.93)"/><path class="au" d="M1693,91.58v7.34h4.72v83.16a13.35,13.35,0,0,1-13.35,13.35H1652.1a24.92,24.92,0,0,1-2.72,7.34h37.23a18.48,18.48,0,0,0,18.48-18.47V91.58Z" transform="translate(-145.87 -77.93)"/><path class="au" d="M1611.22,165.56a25.53,25.53,0,0,0-13.89,22.72c0,23,28.09,34.16,43.94,17.71C1661.56,185,1636.36,152.64,1611.22,165.56ZM1637,183.11l-16,16a4,4,0,0,1-5.69,0l-6.54-6.54a4,4,0,0,1,5.69-5.7l3.7,3.7,13.17-13.17a4,4,0,1,1,5.69,5.69Z" transform="translate(-145.87 -77.93)"/><path class="az" d="M273.79,602.28s1.63-1.26,4.77-3.64" transform="translate(-145.87 -77.93)"/><path class="ba" d="M288.2,591.43c68.51-50.76,370.82-266,682.57-351.09,342.94-93.64,661.43,39,723.45,67.37" transform="translate(-145.87 -77.93)"/><path class="az" d="M1699.68,310.24c3.56,1.68,5.41,2.61,5.41,2.61" transform="translate(-145.87 -77.93)"/></g></svg>